STARTFONT 2.1
FONT -FontForge-Nunito-Book-R-Normal--33-240-100-100-P-174-ISO10646-1
SIZE 24 100 100
FONTBOUNDINGBOX 51 43 -8 -9
COMMENT "Generated by fontforge, http://fontforge.sourceforge.net"
COMMENT "Copyright 2014 The Nunito Project Authors (https://github.com/googlefonts/nunito)"
STARTPROPERTIES 41
FOUNDRY "FontForge"
FAMILY_NAME "Nunito"
WEIGHT_NAME "Book"
SLANT "R"
SETWIDTH_NAME "Normal"
ADD_STYLE_NAME ""
PIXEL_SIZE 33
POINT_SIZE 240
RESOLUTION_X 100
RESOLUTION_Y 100
SPACING "P"
AVERAGE_WIDTH 174
CHARSET_REGISTRY "ISO10646"
CHARSET_ENCODING "1"
FONTNAME_REGISTRY ""
CHARSET_COLLECTIONS "ISO8859-2 ISO8859-5 ISO8859-9 ISO8859-4 ISO10646-1"
FONT_NAME "Nunito-Regular"
FACE_NAME "Nunito Regular"
COPYRIGHT "Copyright 2014 The Nunito Project Authors (https://github.com/googlefonts/nunito)"
FONT_VERSION "3.601; ttfautohint (v1.8.2.53-6de2)"
FONT_ASCENT 26
FONT_DESCENT 7
UNDERLINE_POSITION -3
UNDERLINE_THICKNESS 2
X_HEIGHT 15
CAP_HEIGHT 22
DEFAULT_CHAR 1097
RAW_ASCENT 800
RAW_DESCENT 200
NORM_SPACE 9
RELATIVE_WEIGHT 40
RELATIVE_SETWIDTH 50
SUPERSCRIPT_X 0
SUPERSCRIPT_Y 11
SUPERSCRIPT_SIZE 19
SUBSCRIPT_X 0
SUBSCRIPT_Y 2
SUBSCRIPT_SIZE 19
FIGURE_WIDTH 20
AVG_LOWERCASE_WIDTH 176
AVG_UPPERCASE_WIDTH 226
ENDPROPERTIES
CHARS 1098
STARTCHAR NULL.dup1
ENCODING 0
SWIDTH 0 0
DWIDTH 0 0
BBX 1 1 0 0
BITMAP
00
ENDCHAR
STARTCHAR CR
ENCODING 13
SWIDTH 258 0
DWIDTH 9 0
BBX 1 1 0 0
BITMAP
00
ENDCHAR
STARTCHAR space
ENCODING 32
SWIDTH 258 0
DWIDTH 9 0
BBX 1 1 0 0
BITMAP
00
ENDCHAR
STARTCHAR exclam
ENCODING 33
SWIDTH 228 0
DWIDTH 8 0
BBX 4 23 2 0
BITMAP
60
E0
E0
E0
E0
E0
E0
E0
60
60
60
60
60
60
60
60
60
00
00
60
F0
F0
60
ENDCHAR
STARTCHAR quotedbl
ENCODING 34
SWIDTH 392 0
DWIDTH 13 0
BBX 9 9 2 14
BITMAP
E300
E380
E380
E380
E380
6300
6300
6300
6300
ENDCHAR
STARTCHAR numbersign
ENCODING 35
SWIDTH 600 0
DWIDTH 20 0
BBX 18 23 1 0
BITMAP
030300
030700
030600
030600
030600
060600
7FFFC0
7FFFC0
060C00
060C00
0C0C00
0C1C00
0C1800
0C1800
0C1800
FFFF80
FFFF80
183000
183000
183000
303000
307000
306000
ENDCHAR
STARTCHAR dollar
ENCODING 36
SWIDTH 600 0
DWIDTH 20 0
BBX 16 31 2 -4
BITMAP
0180
0180
0180
0180
0FF0
3FFC
781F
7006
E000
E000
E000
E000
E000
7800
3F80
1FF0
07FC
003E
000F
0007
0007
0007
0007
C00F
F81E
7FFC
1FF0
0180
0180
0180
0180
ENDCHAR
STARTCHAR percent
ENCODING 37
SWIDTH 930 0
DWIDTH 31 0
BBX 27 25 2 -1
BITMAP
00001800
1F003800
3F803000
71C07000
E0E06000
C0E0E000
C061C000
C0618000
C0638000
C0630000
C0E71F00
E0C67F80
71CE71C0
3F9CE0C0
1F18C0E0
0038C0E0
0030C060
0070C060
0060C0E0
00E0C0E0
01C0E0C0
018071C0
03807F80
03001F00
02000000
ENDCHAR
STARTCHAR ampersand
ENCODING 38
SWIDTH 693 0
DWIDTH 23 0
BBX 19 23 2 0
BITMAP
03E000
0FF800
1E3800
1C1C00
181C00
181C00
1C1800
1C7800
0EF000
07E0C0
0780C0
1FC0C0
3CE0C0
7071C0
6039C0
E01D80
E01F80
E00F00
E00780
F00F80
783DC0
3FF8E0
0FE060
ENDCHAR
STARTCHAR quotesingle
ENCODING 39
SWIDTH 221 0
DWIDTH 7 0
BBX 3 9 2 14
BITMAP
E0
E0
E0
E0
E0
60
60
60
60
ENDCHAR
STARTCHAR parenleft
ENCODING 40
SWIDTH 317 0
DWIDTH 10 0
BBX 6 29 3 -6
BITMAP
0C
1C
1C
38
38
38
70
70
70
70
60
E0
E0
E0
E0
E0
E0
E0
60
70
70
70
70
38
38
38
1C
1C
0C
ENDCHAR
STARTCHAR parenright
ENCODING 41
SWIDTH 317 0
DWIDTH 10 0
BBX 6 29 1 -6
BITMAP
60
E0
70
70
30
38
38
38
18
1C
1C
1C
1C
1C
1C
1C
1C
1C
1C
1C
18
38
38
38
30
70
70
E0
60
ENDCHAR
STARTCHAR asterisk
ENCODING 42
SWIDTH 450 0
DWIDTH 15 0
BBX 13 12 1 11
BITMAP
10C0
18C0
1D80
0D80
0700
FFF8
FFF8
0700
0D80
19C0
18C0
1040
ENDCHAR
STARTCHAR plus
ENCODING 43
SWIDTH 600 0
DWIDTH 20 0
BBX 16 16 2 1
BITMAP
0180
0180
0180
0180
0180
0180
0180
FFFF
FFFF
0180
0180
0180
0180
0180
0180
0180
ENDCHAR
STARTCHAR comma
ENCODING 44
SWIDTH 228 0
DWIDTH 8 0
BBX 4 7 2 -4
BITMAP
E0
F0
F0
60
60
60
C0
ENDCHAR
STARTCHAR hyphen
ENCODING 45
SWIDTH 424 0
DWIDTH 14 0
BBX 10 2 2 8
BITMAP
FFC0
FFC0
ENDCHAR
STARTCHAR period
ENCODING 46
SWIDTH 228 0
DWIDTH 8 0
BBX 4 4 2 0
BITMAP
60
F0
F0
60
ENDCHAR
STARTCHAR slash
ENCODING 47
SWIDTH 283 0
DWIDTH 9 0
BBX 10 27 0 -2
BITMAP
0080
01C0
0180
0180
0380
0300
0300
0700
0600
0600
0E00
0E00
0C00
0C00
1C00
1800
1800
3800
3000
3000
7000
6000
6000
E000
C000
C000
C000
ENDCHAR
STARTCHAR zero
ENCODING 48
SWIDTH 600 0
DWIDTH 20 0
BBX 16 23 2 0
BITMAP
07E0
1FF8
3C3C
701C
700E
6006
E007
E007
E007
E007
C007
C007
C007
E007
E007
E007
E007
600E
700E
701C
3C3C
1FF8
07E0
ENDCHAR
STARTCHAR one
ENCODING 49
SWIDTH 600 0
DWIDTH 20 0
BBX 13 23 4 0
BITMAP
0300
0F00
1F00
7F00
F700
C700
0700
0700
0700
0700
0700
0700
0700
0700
0700
0700
0700
0700
0700
0700
0700
FFF8
FFF8
ENDCHAR
STARTCHAR two
ENCODING 50
SWIDTH 600 0
DWIDTH 20 0
BBX 16 23 2 0
BITMAP
0FE0
3FF8
F83C
E01C
000E
000E
000E
000E
000C
001C
001C
0038
0070
00E0
01E0
03C0
0780
0F00
1E00
3C00
7800
7FFF
7FFF
ENDCHAR
STARTCHAR three
ENCODING 51
SWIDTH 600 0
DWIDTH 20 0
BBX 15 23 2 0
BITMAP
0FE0
3FF8
F83C
E01C
000E
000E
000E
000E
001C
0038
0FF0
0FF8
003C
000E
000E
0006
0006
0006
000E
C00E
F83C
7FF8
0FE0
ENDCHAR
STARTCHAR four
ENCODING 52
SWIDTH 600 0
DWIDTH 20 0
BBX 17 23 2 0
BITMAP
001800
003800
007800
007800
00F800
01F800
03B800
033800
073800
0E3800
0C3800
1C3800
383800
703800
603800
E03800
FFFF80
FFFF80
003800
003800
003800
003800
001800
ENDCHAR
STARTCHAR five
ENCODING 53
SWIDTH 600 0
DWIDTH 20 0
BBX 15 23 3 0
BITMAP
7FFC
FFFC
E000
E000
E000
E000
E000
E000
E000
E7E0
FFF8
F83C
E01E
400E
000E
0006
0006
000E
000E
C01C
F83C
7FF8
0FE0
ENDCHAR
STARTCHAR six
ENCODING 54
SWIDTH 600 0
DWIDTH 20 0
BBX 16 23 2 0
BITMAP
03F8
0FFE
1E0F
3803
3800
7000
6000
6000
E000
E3F0
E7FC
EC1E
F80E
F007
F007
F007
7007
7007
7007
380E
1C1C
0FF8
03F0
ENDCHAR
STARTCHAR seven
ENCODING 55
SWIDTH 600 0
DWIDTH 20 0
BBX 16 23 2 0
BITMAP
FFFE
FFFF
000E
000E
001C
001C
0038
0038
0070
0070
00E0
00E0
01C0
01C0
0380
0380
0700
0E00
0E00
1C00
1C00
3800
3800
ENDCHAR
STARTCHAR eight
ENCODING 56
SWIDTH 600 0
DWIDTH 20 0
BBX 16 23 2 0
BITMAP
0FE0
3FF8
783E
700E
E007
E007
E007
E006
700E
381C
1FF8
1FF8
781E
E00E
E007
C007
C003
C007
E007
E00F
781E
3FFC
0FF0
ENDCHAR
STARTCHAR nine
ENCODING 57
SWIDTH 600 0
DWIDTH 20 0
BBX 16 23 2 0
BITMAP
0FC0
3FF0
7878
701C
E00C
E00E
C00E
C00E
E00F
E00F
F01F
7837
3FE7
0FC7
0006
0006
000E
000E
001C
C038
F078
7FE0
1F80
ENDCHAR
STARTCHAR colon
ENCODING 58
SWIDTH 228 0
DWIDTH 8 0
BBX 4 16 2 0
BITMAP
60
F0
F0
60
00
00
00
00
00
00
00
00
60
F0
F0
60
ENDCHAR
STARTCHAR semicolon
ENCODING 59
SWIDTH 228 0
DWIDTH 8 0
BBX 4 20 2 -4
BITMAP
60
F0
F0
60
00
00
00
00
00
00
00
00
00
E0
F0
F0
60
60
60
C0
ENDCHAR
STARTCHAR less
ENCODING 60
SWIDTH 600 0
DWIDTH 20 0
BBX 16 16 2 1
BITMAP
0007
001F
007C
03E0
0F80
3E00
F800
E000
F800
3E00
0F80
03E0
00FC
001F
0007
0001
ENDCHAR
STARTCHAR equal
ENCODING 61
SWIDTH 600 0
DWIDTH 20 0
BBX 16 8 2 5
BITMAP
FFFF
FFFF
0000
0000
0000
0000
FFFF
FFFF
ENDCHAR
STARTCHAR greater
ENCODING 62
SWIDTH 600 0
DWIDTH 20 0
BBX 17 16 1 1
BITMAP
F00000
7C0000
1F0000
07C000
00F800
003E00
000F80
000380
000F80
003E00
00F800
07E000
1F0000
7C0000
F00000
400000
ENDCHAR
STARTCHAR question
ENCODING 63
SWIDTH 443 0
DWIDTH 15 0
BBX 14 23 0 0
BITMAP
0FC0
3FF0
F878
E01C
001C
001C
001C
0038
0038
0070
00E0
01C0
0180
0380
0300
0300
0200
0000
0000
0300
0780
0780
0300
ENDCHAR
STARTCHAR at
ENCODING 64
SWIDTH 946 0
DWIDTH 31 0
BBX 27 29 2 -6
BITMAP
003FE000
00FFF800
03E03E00
07000F00
0E000380
1C0001C0
380000C0
301F18C0
603FB060
6070F060
E0E07060
C1C07060
C1C03060
C1807060
C1806060
C1806060
C1806040
C180E0C0
E0C1E1C0
60FF3F80
603E1E00
70000000
30000000
18000000
1C000600
0F000E00
07E07C00
01FFF000
003FC000
ENDCHAR
STARTCHAR A
ENCODING 65
SWIDTH 729 0
DWIDTH 24 0
BBX 22 23 1 0
BITMAP
003000
007800
007800
00FC00
00CC00
01CE00
018600
018700
038700
030300
070380
060180
0E01C0
0E00C0
1C00E0
1FFFE0
3FFFF0
380070
300038
700038
600018
E0001C
C0000C
ENDCHAR
STARTCHAR B
ENCODING 66
SWIDTH 676 0
DWIDTH 22 0
BBX 17 23 3 0
BITMAP
FFF800
FFFE00
E01F00
E00700
E00380
E00380
E00380
E00300
E00700
E00E00
FFFC00
FFFE00
E00F00
E00380
E00380
E00180
E00180
E00380
E00380
E00380
E00F00
FFFE00
FFF800
ENDCHAR
STARTCHAR C
ENCODING 67
SWIDTH 673 0
DWIDTH 22 0
BBX 19 23 2 0
BITMAP
01FE00
07FF80
0F07E0
1C00E0
380000
700000
700000
E00000
E00000
E00000
E00000
E00000
E00000
E00000
E00000
E00000
700000
700000
380000
1C00E0
1F03E0
07FF80
01FE00
ENDCHAR
STARTCHAR D
ENCODING 68
SWIDTH 742 0
DWIDTH 24 0
BBX 20 23 3 0
BITMAP
FFF000
FFFC00
E01F00
E00780
E003C0
E001C0
E000E0
E000E0
E000E0
E00060
E00060
E00070
E00060
E000E0
E000E0
E000E0
E000E0
E001C0
E003C0
E00780
E01F00
FFFC00
FFF000
ENDCHAR
STARTCHAR E
ENCODING 69
SWIDTH 583 0
DWIDTH 19 0
BBX 15 23 3 0
BITMAP
FFFE
FFFE
E000
E000
E000
E000
E000
E000
E000
E000
FFFC
FFFC
E000
E000
E000
E000
E000
E000
E000
E000
E000
FFFE
FFFE
ENDCHAR
STARTCHAR F
ENCODING 70
SWIDTH 548 0
DWIDTH 18 0
BBX 14 23 3 0
BITMAP
FFFC
FFFC
E000
E000
E000
E000
E000
E000
E000
E000
FFFC
FFFC
E000
E000
E000
E000
E000
E000
E000
E000
E000
E000
C000
ENDCHAR
STARTCHAR G
ENCODING 71
SWIDTH 726 0
DWIDTH 24 0
BBX 19 23 2 0
BITMAP
01FE00
07FFC0
0F03E0
1C00E0
380000
700000
700000
E00000
E00000
E00000
E00000
E01FE0
E01FE0
E00060
E00060
E00060
700060
700060
380060
1C0060
0F81E0
07FFE0
01FF00
ENDCHAR
STARTCHAR H
ENCODING 72
SWIDTH 761 0
DWIDTH 25 0
BBX 19 23 3 0
BITMAP
C00060
E00060
E00060
E00060
E00060
E00060
E00060
E00060
E00060
E00060
FFFFE0
FFFFE0
E00060
E00060
E00060
E00060
E00060
E00060
E00060
E00060
E00060
E00060
C00060
ENDCHAR
STARTCHAR I
ENCODING 73
SWIDTH 257 0
DWIDTH 8 0
BBX 3 23 3 0
BITMAP
C0
E0
E0
E0
E0
E0
E0
E0
E0
E0
E0
E0
E0
E0
E0
E0
E0
E0
E0
E0
E0
E0
C0
ENDCHAR
STARTCHAR J
ENCODING 74
SWIDTH 324 0
DWIDTH 11 0
BBX 8 23 0 0
BITMAP
07
07
07
07
07
07
07
07
07
07
07
07
07
07
07
07
07
07
07
0E
1E
FC
F8
ENDCHAR
STARTCHAR K
ENCODING 75
SWIDTH 625 0
DWIDTH 21 0
BBX 17 23 3 0
BITMAP
C00300
E00700
E01E00
E03C00
E07800
E0F000
E1E000
E38000
E70000
EE0000
FC0000
FC0000
FE0000
EF0000
E78000
E3C000
E1E000
E07000
E03800
E01E00
E00F00
E00780
C00380
ENDCHAR
STARTCHAR L
ENCODING 76
SWIDTH 543 0
DWIDTH 18 0
BBX 15 23 3 0
BITMAP
C000
E000
E000
E000
E000
E000
E000
E000
E000
E000
E000
E000
E000
E000
E000
E000
E000
E000
E000
E000
E000
FFFE
FFFE
ENDCHAR
STARTCHAR M
ENCODING 77
SWIDTH 855 0
DWIDTH 28 0
BBX 22 23 3 0
BITMAP
C0000C
E0001C
E0001C
F0003C
F8003C
D8007C
DC006C
CC00EC
CE00CC
C6018C
C7038C
C3030C
C3870C
C1C60C
C0CE0C
C0EC0C
C07C0C
C0780C
C0300C
C0100C
C0000C
C0000C
C0000C
ENDCHAR
STARTCHAR N
ENCODING 78
SWIDTH 740 0
DWIDTH 24 0
BBX 19 23 3 0
BITMAP
C000C0
E000E0
F000E0
F800E0
F800E0
DC00E0
CE00E0
C700E0
C700E0
C380E0
C1C0E0
C0E0E0
C0E0E0
C070E0
C038E0
C01CE0
C00EE0
C00EE0
C007E0
C003E0
C001E0
C001E0
C000C0
ENDCHAR
STARTCHAR O
ENCODING 79
SWIDTH 767 0
DWIDTH 25 0
BBX 21 23 2 0
BITMAP
01FC00
07FF00
1F07C0
3C01E0
3800F0
700070
700038
E00038
E00038
E00038
E00038
E00038
E00038
E00038
E00038
E00038
700030
700070
3800E0
1C01E0
0F07C0
07FF00
01FC00
ENDCHAR
STARTCHAR P
ENCODING 80
SWIDTH 633 0
DWIDTH 21 0
BBX 17 23 3 0
BITMAP
FFF800
FFFC00
E01E00
E00700
E00300
E00380
E00380
E00380
E00380
E00300
E00700
E01E00
FFFC00
FFF000
E00000
E00000
E00000
E00000
E00000
E00000
E00000
E00000
C00000
ENDCHAR
STARTCHAR Q
ENCODING 81
SWIDTH 767 0
DWIDTH 25 0
BBX 21 29 2 -6
BITMAP
01FC00
07FF00
1F07C0
3C01E0
3800F0
700070
700030
E00038
E00038
E00038
E00038
E00038
E00038
E00038
E00038
E00038
700030
700070
3800F0
1C01E0
0F07C0
07FF80
01FE00
000700
000380
0001C0
0001C0
0000E0
000060
ENDCHAR
STARTCHAR R
ENCODING 82
SWIDTH 669 0
DWIDTH 22 0
BBX 17 23 3 0
BITMAP
FFF800
FFFE00
E01F00
E00700
E00380
E00380
E00380
E00380
E00380
E00700
E00F00
FFFE00
FFF800
E07800
E01C00
E01C00
E00E00
E00E00
E00700
E00700
E00380
E00380
C00180
ENDCHAR
STARTCHAR S
ENCODING 83
SWIDTH 615 0
DWIDTH 20 0
BBX 17 23 2 0
BITMAP
07F000
1FFE00
3C1F00
700300
E00000
E00000
E00000
E00000
F00000
780000
3F8000
1FF800
07FE00
003F00
000780
000380
000380
000380
000380
C00700
F81E00
7FFC00
0FF000
ENDCHAR
STARTCHAR T
ENCODING 84
SWIDTH 602 0
DWIDTH 20 0
BBX 20 23 0 0
BITMAP
FFFFF0
FFFFF0
006000
006000
006000
006000
006000
006000
006000
006000
006000
006000
006000
006000
006000
006000
006000
006000
006000
006000
006000
006000
006000
ENDCHAR
STARTCHAR U
ENCODING 85
SWIDTH 728 0
DWIDTH 24 0
BBX 18 23 3 0
BITMAP
C000C0
C000C0
C000C0
C000C0
C000C0
C000C0
C000C0
C000C0
C000C0
C000C0
C000C0
C000C0
C000C0
C000C0
C000C0
E001C0
E001C0
E001C0
700380
700380
3E0F00
1FFE00
07F800
ENDCHAR
STARTCHAR V
ENCODING 86
SWIDTH 689 0
DWIDTH 23 0
BBX 22 23 0 0
BITMAP
60000C
E0001C
70001C
700038
380038
380030
1C0070
1C0060
0E00E0
0E00E0
0601C0
0701C0
030380
038380
038300
01C700
01C600
00EE00
00EE00
007C00
007C00
003800
003800
ENDCHAR
STARTCHAR W
ENCODING 87
SWIDTH 1101 0
DWIDTH 36 0
BBX 34 23 1 0
BITMAP
6000C000C0
E000E001C0
7001E001C0
7001E00180
3001F00380
3803B00300
3803380700
1803380700
1C07180600
1C061C0E00
0C0E1C0E00
0E0E0C0C00
0E0C0E1C00
061C0E1C00
071C061800
0318073800
03B8033000
03B0033000
01B003F000
01F001E000
01E001E000
00E001E000
00C000C000
ENDCHAR
STARTCHAR X
ENCODING 88
SWIDTH 650 0
DWIDTH 21 0
BBX 19 23 1 0
BITMAP
6000E0
7000E0
7801C0
380380
1C0700
0E0700
070E00
071C00
03B800
01F800
00F000
00E000
01F000
03F800
039C00
071E00
0E0E00
1E0700
1C0380
3803C0
7001C0
F000E0
E00060
ENDCHAR
STARTCHAR Y
ENCODING 89
SWIDTH 596 0
DWIDTH 20 0
BBX 19 23 0 0
BITMAP
600060
F000E0
7001C0
3801C0
1C0380
1E0700
0E0E00
070E00
039C00
01F800
01F000
00F000
00E000
00E000
00E000
00E000
00E000
00E000
00E000
00E000
00E000
00E000
006000
ENDCHAR
STARTCHAR Z
ENCODING 90
SWIDTH 589 0
DWIDTH 19 0
BBX 18 23 1 0
BITMAP
FFFF80
FFFF80
000380
000700
000F00
000E00
001C00
003800
007800
007000
00E000
01E000
01C000
038000
070000
0F0000
0E0000
1C0000
3C0000
380000
700000
FFFFC0
7FFFC0
ENDCHAR
STARTCHAR bracketleft
ENCODING 91
SWIDTH 315 0
DWIDTH 10 0
BBX 6 29 4 -6
BITMAP
FC
FC
C0
C0
C0
C0
C0
C0
C0
C0
C0
C0
C0
C0
C0
C0
C0
C0
C0
C0
C0
C0
C0
C0
C0
C0
C0
FC
FC
ENDCHAR
STARTCHAR backslash
ENCODING 92
SWIDTH 283 0
DWIDTH 9 0
BBX 10 27 0 -2
BITMAP
8000
C000
C000
E000
6000
6000
7000
3000
3000
3800
3800
1800
1800
1C00
0C00
0C00
0E00
0600
0600
0700
0300
0300
0380
0180
0180
01C0
00C0
ENDCHAR
STARTCHAR bracketright
ENCODING 93
SWIDTH 315 0
DWIDTH 10 0
BBX 7 29 0 -6
BITMAP
FE
FE
0E
0E
0E
0E
0E
0E
0E
0E
0E
0E
0E
0E
0E
0E
0E
0E
0E
0E
0E
0E
0E
0E
0E
0E
0E
FE
FE
ENDCHAR
STARTCHAR asciicircum
ENCODING 94
SWIDTH 600 0
DWIDTH 20 0
BBX 16 16 2 4
BITMAP
0180
03C0
03C0
07C0
0660
0E60
0C30
1C30
1818
1818
300C
300C
600E
6006
C007
C003
ENDCHAR
STARTCHAR underscore
ENCODING 95
SWIDTH 500 0
DWIDTH 17 0
BBX 16 2 0 -2
BITMAP
FFFF
7FFF
ENDCHAR
STARTCHAR grave
ENCODING 96
SWIDTH 500 0
DWIDTH 17 0
BBX 5 7 4 18
BITMAP
C0
E0
E0
70
30
38
18
ENDCHAR
STARTCHAR a
ENCODING 97
SWIDTH 530 0
DWIDTH 17 0
BBX 13 16 2 0
BITMAP
0FC0
7FF0
7070
4038
0038
0038
1FF8
7FF8
F038
E038
E038
E038
E078
70D8
7F98
1F18
ENDCHAR
STARTCHAR b
ENCODING 98
SWIDTH 583 0
DWIDTH 19 0
BBX 15 23 3 0
BITMAP
C000
C000
C000
C000
C000
C000
C000
C7C0
DFF0
F878
F01C
E01C
C00C
C00E
C00E
C00E
C00E
C00C
E01C
F01C
F878
DFF0
C7C0
ENDCHAR
STARTCHAR c
ENCODING 99
SWIDTH 463 0
DWIDTH 15 0
BBX 13 16 2 0
BITMAP
0FC0
3FF0
7878
7010
E000
E000
C000
C000
C000
C000
E000
E000
7010
7878
3FF0
0FC0
ENDCHAR
STARTCHAR d
ENCODING 100
SWIDTH 583 0
DWIDTH 19 0
BBX 15 23 2 0
BITMAP
000C
000E
000E
000E
000E
000E
000E
0F8E
3FEE
787E
F01E
E01E
E00E
C00E
C00E
C00E
C00E
E00E
E01E
701E
787E
3FEE
0F8C
ENDCHAR
STARTCHAR e
ENCODING 101
SWIDTH 532 0
DWIDTH 18 0
BBX 14 16 2 0
BITMAP
0FC0
3FF0
7878
7018
E01C
C00C
C00C
FFFC
FFFC
C000
C000
E000
700C
783C
3FF8
0FE0
ENDCHAR
STARTCHAR f
ENCODING 102
SWIDTH 333 0
DWIDTH 11 0
BBX 12 23 0 0
BITMAP
01F0
07E0
0F00
0E00
0C00
1C00
1C00
FFE0
FFE0
1C00
1C00
1C00
1C00
1C00
1C00
1C00
1C00
1C00
1C00
1C00
1C00
1C00
0C00
ENDCHAR
STARTCHAR g
ENCODING 103
SWIDTH 586 0
DWIDTH 19 0
BBX 15 22 2 -6
BITMAP
0F8E
3FEE
787E
701E
E01E
E00E
C00E
C00E
C00E
C00E
E00E
E01E
701E
787E
3FEE
0F8E
000E
000C
401C
783C
7FF8
0FE0
ENDCHAR
STARTCHAR h
ENCODING 104
SWIDTH 568 0
DWIDTH 19 0
BBX 13 23 3 0
BITMAP
C000
C000
C000
C000
C000
C000
C000
C7C0
DFF0
F878
E038
E038
C018
C018
C018
C018
C018
C018
C018
C018
C018
C018
C018
ENDCHAR
STARTCHAR i
ENCODING 105
SWIDTH 232 0
DWIDTH 8 0
BBX 4 23 2 0
BITMAP
E0
F0
E0
00
00
00
00
60
60
60
60
60
60
60
60
60
60
60
60
60
60
60
60
ENDCHAR
STARTCHAR j
ENCODING 106
SWIDTH 236 0
DWIDTH 8 0
BBX 8 29 -2 -6
BITMAP
06
0F
06
00
00
00
00
06
06
06
06
06
06
06
06
06
06
06
06
06
06
06
06
06
0E
0E
1E
FC
F0
ENDCHAR
STARTCHAR k
ENCODING 107
SWIDTH 500 0
DWIDTH 17 0
BBX 13 23 3 0
BITMAP
C000
C000
C000
C000
C000
C000
C000
C070
C0F0
C1E0
C3C0
C780
CE00
DC00
F800
FC00
DE00
CF00
C380
C1C0
C0E0
C070
C038
ENDCHAR
STARTCHAR l
ENCODING 108
SWIDTH 296 0
DWIDTH 10 0
BBX 7 23 3 0
BITMAP
C0
C0
C0
C0
C0
C0
C0
C0
C0
C0
C0
C0
C0
C0
C0
C0
C0
C0
C0
E0
E0
7E
3C
ENDCHAR
STARTCHAR m
ENCODING 109
SWIDTH 856 0
DWIDTH 28 0
BBX 23 16 3 0
BITMAP
C7C1F0
DFE7F8
F8FE1C
E07C0C
E0380E
C0380E
C0380E
C0380E
C0380E
C0380E
C0380E
C0380E
C0380E
C0380E
C0380E
C0300E
ENDCHAR
STARTCHAR n
ENCODING 110
SWIDTH 568 0
DWIDTH 19 0
BBX 13 16 3 0
BITMAP
C7C0
DFF0
F878
E038
E038
C018
C018
C018
C018
C018
C018
C018
C018
C018
C018
C018
ENDCHAR
STARTCHAR o
ENCODING 111
SWIDTH 556 0
DWIDTH 18 0
BBX 15 16 2 0
BITMAP
0FC0
3FF0
7878
701C
E01C
E00E
C00E
C00E
C00E
C00E
E00E
E01C
701C
7878
3FF0
0FC0
ENDCHAR
STARTCHAR p
ENCODING 112
SWIDTH 583 0
DWIDTH 19 0
BBX 15 22 3 -6
BITMAP
C7C0
DFF0
F878
F01C
E01C
C00C
C00E
C00E
C00E
C00E
C00C
E01C
F01C
F878
DFF0
C7C0
C000
C000
C000
C000
C000
C000
ENDCHAR
STARTCHAR q
ENCODING 113
SWIDTH 583 0
DWIDTH 19 0
BBX 15 22 2 -6
BITMAP
0F8C
3FEE
787E
F01E
E01E
E00E
C00E
C00E
C00E
C00E
E00E
E01E
701E
787E
3FEE
0F8E
000E
000E
000E
000E
000E
000C
ENDCHAR
STARTCHAR r
ENCODING 114
SWIDTH 358 0
DWIDTH 12 0
BBX 9 16 3 0
BITMAP
C700
DF80
FC00
F000
E000
C000
C000
C000
C000
C000
C000
C000
C000
C000
C000
C000
ENDCHAR
STARTCHAR s
ENCODING 115
SWIDTH 481 0
DWIDTH 16 0
BBX 12 16 2 0
BITMAP
1F80
7FE0
7070
E010
E000
E000
7000
7F00
0FE0
00F0
0070
0030
8070
E0F0
FFE0
3F80
ENDCHAR
STARTCHAR t
ENCODING 116
SWIDTH 350 0
DWIDTH 12 0
BBX 12 21 0 0
BITMAP
1C00
1C00
1C00
1C00
1C00
FFE0
FFE0
1C00
1C00
1C00
1C00
1C00
1C00
1C00
1C00
1C00
1C00
0C00
0E00
07F0
03E0
ENDCHAR
STARTCHAR u
ENCODING 117
SWIDTH 561 0
DWIDTH 19 0
BBX 14 16 2 0
BITMAP
600C
E01C
E01C
E01C
E01C
E01C
E01C
E01C
E01C
E01C
E01C
601C
703C
787C
3FDC
1F8C
ENDCHAR
STARTCHAR v
ENCODING 118
SWIDTH 515 0
DWIDTH 17 0
BBX 15 16 1 0
BITMAP
C006
E00E
E00E
700C
701C
3018
3838
1830
1C70
1C70
0E60
0EE0
06C0
07C0
0380
0380
ENDCHAR
STARTCHAR w
ENCODING 119
SWIDTH 841 0
DWIDTH 28 0
BBX 25 16 1 0
BITMAP
E00C0180
E01E0180
601E0380
701E0380
703F0300
38330700
38730700
18638600
1C618E00
1CE18C00
0CC1CC00
0EC0DC00
07C0F800
07807800
07807800
03007000
ENDCHAR
STARTCHAR x
ENCODING 120
SWIDTH 525 0
DWIDTH 17 0
BBX 15 16 1 0
BITMAP
600E
701C
381C
1C38
1C70
0EE0
07C0
03C0
03C0
07E0
0EE0
1C70
3838
781C
700E
E00E
ENDCHAR
STARTCHAR y
ENCODING 121
SWIDTH 514 0
DWIDTH 17 0
BBX 15 22 1 -6
BITMAP
C006
E00E
E00E
700C
701C
3018
3838
3830
1C70
1C70
0E60
0EE0
06C0
07C0
0380
0380
0380
0700
0700
0E00
0E00
0C00
ENDCHAR
STARTCHAR z
ENCODING 122
SWIDTH 463 0
DWIDTH 15 0
BBX 13 16 2 0
BITMAP
FFF0
FFF0
0060
00E0
01C0
0380
0300
0700
0E00
1C00
1800
3800
7000
E000
FFF8
FFF0
ENDCHAR
STARTCHAR braceleft
ENCODING 123
SWIDTH 352 0
DWIDTH 12 0
BBX 11 29 1 -6
BITMAP
07C0
0FE0
0E00
0E00
0C00
0C00
0C00
0C00
0C00
0C00
0C00
0C00
0C00
1C00
F800
7800
1C00
0C00
0C00
0C00
0C00
0C00
0C00
0C00
0C00
0C00
0E00
0FE0
07C0
ENDCHAR
STARTCHAR bar
ENCODING 124
SWIDTH 265 0
DWIDTH 9 0
BBX 3 29 3 -6
BITMAP
C0
E0
E0
E0
E0
E0
E0
E0
E0
E0
E0
E0
E0
E0
E0
E0
E0
E0
E0
E0
E0
E0
E0
E0
E0
E0
E0
E0
C0
ENDCHAR
STARTCHAR braceright
ENCODING 125
SWIDTH 352 0
DWIDTH 12 0
BBX 10 29 0 -6
BITMAP
F800
FC00
0E00
0E00
0E00
0E00
0E00
0E00
0E00
0E00
0E00
0E00
0E00
0700
03C0
07C0
0700
0E00
0E00
0E00
0E00
0E00
0E00
0E00
0E00
0E00
0E00
FC00
FC00
ENDCHAR
STARTCHAR asciitilde
ENCODING 126
SWIDTH 600 0
DWIDTH 20 0
BBX 16 5 2 7
BITMAP
3C00
7F03
E3C7
C0FE
003C
ENDCHAR
STARTCHAR uni00A0
ENCODING 160
SWIDTH 258 0
DWIDTH 9 0
BBX 1 1 0 0
BITMAP
00
ENDCHAR
STARTCHAR exclamdown
ENCODING 161
SWIDTH 228 0
DWIDTH 8 0
BBX 4 22 2 -6
BITMAP
60
F0
F0
60
00
00
60
60
60
60
60
60
60
60
E0
E0
E0
E0
E0
E0
E0
60
ENDCHAR
STARTCHAR cent
ENCODING 162
SWIDTH 600 0
DWIDTH 20 0
BBX 13 24 3 -4
BITMAP
0100
0380
0380
0380
07E0
1FF8
3C18
7000
7000
E000
E000
E000
E000
E000
E000
7000
7000
3C18
1FF8
0FE0
0380
0380
0380
0100
ENDCHAR
STARTCHAR sterling
ENCODING 163
SWIDTH 600 0
DWIDTH 20 0
BBX 18 23 1 0
BITMAP
00FC00
03FF80
0787C0
0E0180
0E0000
0E0000
0E0000
0E0000
0E0000
0E0000
0E0000
FFF800
7FF800
0E0000
0E0000
0E0000
0E0000
0E0000
0E0000
0E0000
0E0000
FFFF80
7FFF80
ENDCHAR
STARTCHAR currency
ENCODING 164
SWIDTH 600 0
DWIDTH 20 0
BBX 17 16 1 0
BITMAP
C3F180
7FFF80
3E1F00
380F00
300700
700300
700380
600380
600380
700380
700300
300700
380F00
3E1F00
7FFF80
C3F180
ENDCHAR
STARTCHAR yen
ENCODING 165
SWIDTH 600 0
DWIDTH 20 0
BBX 18 23 1 0
BITMAP
C000C0
E001C0
700380
700700
380700
1C0E00
0E1C00
0E3800
073800
03F000
7FFF80
7FFF80
00C000
00C000
00C000
7FFF80
7FFF80
00C000
00C000
00C000
00C000
00C000
00C000
ENDCHAR
STARTCHAR brokenbar
ENCODING 166
SWIDTH 265 0
DWIDTH 9 0
BBX 3 29 3 -6
BITMAP
C0
E0
E0
E0
E0
E0
E0
E0
E0
E0
C0
00
00
00
00
00
00
00
C0
E0
E0
E0
E0
E0
E0
E0
E0
E0
C0
ENDCHAR
STARTCHAR section
ENCODING 167
SWIDTH 545 0
DWIDTH 18 0
BBX 16 29 1 -6
BITMAP
03F0
0FFC
1E1E
3806
3800
3000
3000
3800
3C00
7F00
67C0
E3F0
E0FC
E01E
700E
7806
3E07
0FC7
03E6
00FE
003C
001C
000C
000C
001C
401C
7078
7FF0
1FC0
ENDCHAR
STARTCHAR dieresis
ENCODING 168
SWIDTH 500 0
DWIDTH 17 0
BBX 9 3 4 20
BITMAP
E300
E380
E300
ENDCHAR
STARTCHAR copyright
ENCODING 169
SWIDTH 815 0
DWIDTH 27 0
BBX 23 23 2 0
BITMAP
00FE00
078380
0C0060
180030
307E18
61FF0C
43C384
C30006
870006
870002
860002
860002
870002
870002
838006
C3C386
41FF04
607C0C
300018
180030
0C0060
0701C0
01FF00
ENDCHAR
STARTCHAR ordfeminine
ENCODING 170
SWIDTH 327 0
DWIDTH 11 0
BBX 9 11 1 12
BITMAP
3E00
FF00
4300
0180
0180
3F80
C180
C380
C380
FD80
3900
ENDCHAR
STARTCHAR guillemotleft
ENCODING 171
SWIDTH 441 0
DWIDTH 15 0
BBX 11 12 2 3
BITMAP
1040
38E0
30C0
71C0
6180
E380
E380
E380
71C0
30C0
38E0
1860
ENDCHAR
STARTCHAR logicalnot
ENCODING 172
SWIDTH 600 0
DWIDTH 20 0
BBX 16 9 2 5
BITMAP
FFFF
FFFF
0003
0003
0003
0003
0003
0003
0003
ENDCHAR
STARTCHAR uni00AD
ENCODING 173
SWIDTH 424 0
DWIDTH 14 0
BBX 10 2 2 8
BITMAP
FFC0
FFC0
ENDCHAR
STARTCHAR registered
ENCODING 174
SWIDTH 815 0
DWIDTH 27 0
BBX 23 23 2 0
BITMAP
00FE00
078380
0C0060
180030
300018
61FE0C
41FF04
C18386
818186
818182
818382
81FF02
81FC02
818602
818706
C18306
418304
61818C
318118
180030
0C0060
0701C0
01FF00
ENDCHAR
STARTCHAR macron
ENCODING 175
SWIDTH 500 0
DWIDTH 17 0
BBX 10 2 3 20
BITMAP
FFC0
FFC0
ENDCHAR
STARTCHAR degree
ENCODING 176
SWIDTH 371 0
DWIDTH 12 0
BBX 10 10 1 14
BITMAP
1E00
3F80
7180
E0C0
C0C0
C0C0
E0C0
7180
3F80
1E00
ENDCHAR
STARTCHAR plusminus
ENCODING 177
SWIDTH 600 0
DWIDTH 20 0
BBX 16 17 2 0
BITMAP
0180
0180
0180
0180
0180
FFFF
FFFF
0180
0180
0180
0180
0180
0180
0000
0000
FFFF
FFFF
ENDCHAR
STARTCHAR uni00B2
ENCODING 178
SWIDTH 380 0
DWIDTH 13 0
BBX 10 14 1 9
BITMAP
3E00
7F80
E380
0180
0180
0180
0380
0700
0E00
1C00
1800
3000
7FC0
7FC0
ENDCHAR
STARTCHAR uni00B3
ENCODING 179
SWIDTH 380 0
DWIDTH 13 0
BBX 10 14 1 9
BITMAP
1F00
7F80
E380
01C0
0180
0380
3F00
3F80
01C0
00C0
00C0
E1C0
7F80
3F00
ENDCHAR
STARTCHAR acute
ENCODING 180
SWIDTH 500 0
DWIDTH 17 0
BBX 5 7 8 18
BITMAP
18
38
70
60
E0
C0
80
ENDCHAR
STARTCHAR uni00B5
ENCODING 181
SWIDTH 600 0
DWIDTH 20 0
BBX 14 22 3 -6
BITMAP
E018
E01C
E01C
E01C
E01C
E01C
E01C
E01C
E01C
E01C
E01C
E01C
E03C
F0FC
FFDC
EF9C
E000
E000
E000
E000
E000
E000
ENDCHAR
STARTCHAR paragraph
ENCODING 182
SWIDTH 588 0
DWIDTH 19 0
BBX 16 29 1 -6
BITMAP
0FFE
1FFF
3F87
7F87
7F87
7F87
FF87
7F87
7F87
7F87
3F87
1F87
0F87
0187
0187
0187
0187
0187
0187
0187
0187
0187
0187
0187
0187
0187
0187
0187
0182
ENDCHAR
STARTCHAR periodcentered
ENCODING 183
SWIDTH 228 0
DWIDTH 8 0
BBX 4 4 2 7
BITMAP
60
F0
F0
60
ENDCHAR
STARTCHAR cedilla
ENCODING 184
SWIDTH 500 0
DWIDTH 17 0
BBX 7 7 5 -6
BITMAP
30
30
3C
06
06
FE
7C
ENDCHAR
STARTCHAR uni00B9
ENCODING 185
SWIDTH 380 0
DWIDTH 13 0
BBX 8 14 3 9
BITMAP
18
78
F8
D8
18
18
18
18
18
18
18
18
FF
FF
ENDCHAR
STARTCHAR ordmasculine
ENCODING 186
SWIDTH 339 0
DWIDTH 11 0
BBX 9 11 1 12
BITMAP
3E00
7F00
E380
C180
C180
C180
C180
C180
6380
7F00
1C00
ENDCHAR
STARTCHAR guillemotright
ENCODING 187
SWIDTH 441 0
DWIDTH 15 0
BBX 11 12 2 3
BITMAP
8200
C300
E380
6180
71C0
38C0
38E0
71C0
71C0
E380
C300
C300
ENDCHAR
STARTCHAR onequarter
ENCODING 188
SWIDTH 893 0
DWIDTH 29 0
BBX 26 23 3 0
BITMAP
18003000
78007000
F8006000
D800E000
1800C000
18018000
18038000
18030000
18070000
18060700
180C0700
181C0F00
FF181F00
FF381F00
00703700
00606700
00E0C700
00C0C700
0181FFC0
0381FFC0
03000700
07000700
06000300
ENDCHAR
STARTCHAR onehalf
ENCODING 189
SWIDTH 937 0
DWIDTH 31 0
BBX 27 23 3 0
BITMAP
18003000
78007000
F8006000
D800E000
1800C000
18018000
18038000
18030000
18070000
18061F00
180C7F80
181C61C0
FF1801C0
FF3801C0
00700180
00600180
00E00300
00C00600
01800C00
03801800
03003000
07007FE0
06007FC0
ENDCHAR
STARTCHAR threequarters
ENCODING 190
SWIDTH 893 0
DWIDTH 29 0
BBX 28 23 1 0
BITMAP
1F000C00
7F801C00
E3801800
01C03800
01803000
03806000
3F00E000
3F80C000
01C1C000
00C181C0
00C301C0
E1C703C0
7F8607C0
3F0E07C0
001C0DC0
001819C0
003831C0
003031C0
00607FF0
00E07FF0
00C001C0
01C001C0
018000C0
ENDCHAR
STARTCHAR questiondown
ENCODING 191
SWIDTH 443 0
DWIDTH 15 0
BBX 14 22 1 -6
BITMAP
0300
0780
0780
0700
0000
0000
0200
0300
0600
0600
0E00
1C00
3800
7000
6000
E000
E000
E000
E01C
F9F8
7FF0
1F80
ENDCHAR
STARTCHAR Agrave
ENCODING 192
SWIDTH 729 0
DWIDTH 24 0
BBX 22 31 1 0
BITMAP
038000
038000
01C000
00E000
006000
003000
000000
000000
003000
007800
007800
00FC00
00CC00
01CE00
018600
018700
038700
030300
070380
060180
0E01C0
0E00C0
1C00E0
1FFFE0
3FFFF0
380070
300038
700038
600018
E0001C
C0000C
ENDCHAR
STARTCHAR Aacute
ENCODING 193
SWIDTH 729 0
DWIDTH 24 0
BBX 22 31 1 0
BITMAP
000300
000700
000E00
000C00
001800
001000
000000
000000
003000
007800
007800
00FC00
00CC00
01CE00
018600
018700
038700
030300
070380
060180
0E01C0
0E00C0
1C00E0
1FFFE0
3FFFF0
380070
300038
700038
600018
E0001C
C0000C
ENDCHAR
STARTCHAR Acircumflex
ENCODING 194
SWIDTH 729 0
DWIDTH 24 0
BBX 22 31 1 0
BITMAP
003000
007800
00FC00
00CE00
018600
030300
000000
000000
003000
007800
007800
00FC00
00CC00
01CE00
018600
018700
038700
030300
070380
060180
0E01C0
0E00C0
1C00E0
1FFFE0
3FFFF0
380070
300038
700038
600018
E0001C
C0000C
ENDCHAR
STARTCHAR Atilde
ENCODING 195
SWIDTH 729 0
DWIDTH 24 0
BBX 22 30 1 0
BITMAP
03C0C0
07E0C0
067980
0C1F80
0C0F00
000000
000000
003000
007800
007800
00FC00
00CC00
01CE00
018600
018700
038700
030300
070380
060180
0E01C0
0E00C0
1C00E0
1FFFE0
3FFFF0
380070
300038
700038
600018
E0001C
C0000C
ENDCHAR
STARTCHAR Adieresis
ENCODING 196
SWIDTH 729 0
DWIDTH 24 0
BBX 22 29 1 0
BITMAP
018600
01CF00
018600
000000
000000
000000
003000
007800
007800
00FC00
00CC00
01CE00
018600
018700
038700
030300
070380
060180
0E01C0
0E00C0
1C00E0
1FFFE0
3FFFF0
380070
300038
700038
600018
E0001C
C0000C
ENDCHAR
STARTCHAR Aring
ENCODING 197
SWIDTH 729 0
DWIDTH 24 0
BBX 22 32 1 0
BITMAP
007800
00CC00
018600
018600
018600
00C400
007800
000000
000000
003000
007800
007800
00FC00
00CC00
01CE00
018600
018700
038700
030300
070380
060180
0E01C0
0E00C0
1C00E0
1FFFE0
3FFFF0
380070
300038
700038
600018
E0001C
C0000C
ENDCHAR
STARTCHAR AE
ENCODING 198
SWIDTH 981 0
DWIDTH 32 0
BBX 31 23 0 0
BITMAP
0007FFFE
0007FFFE
000F8000
001F8000
00198000
00398000
0031C000
0071C000
00E0C000
00C0C000
01C0FFFC
0380FFFC
0380E000
07006000
07006000
0FFFF000
1FFFF000
1C007000
38003000
70003000
70003800
E0003FFE
E0001FFE
ENDCHAR
STARTCHAR Ccedilla
ENCODING 199
SWIDTH 673 0
DWIDTH 22 0
BBX 19 29 2 -6
BITMAP
01FE00
07FF80
0F07E0
1C00E0
380000
700000
700000
E00000
E00000
E00000
E00000
E00000
E00000
E00000
E00000
E00000
700000
700000
380000
1C00E0
1F03E0
07FF80
01FE00
002000
007C00
000C00
000600
00FC00
00F800
ENDCHAR
STARTCHAR Egrave
ENCODING 200
SWIDTH 583 0
DWIDTH 19 0
BBX 15 31 3 0
BITMAP
1800
1C00
0C00
0600
0300
0300
0000
0000
FFFE
FFFE
E000
E000
E000
E000
E000
E000
E000
E000
FFFC
FFFC
E000
E000
E000
E000
E000
E000
E000
E000
E000
FFFE
FFFE
ENDCHAR
STARTCHAR Eacute
ENCODING 201
SWIDTH 583 0
DWIDTH 19 0
BBX 15 31 3 0
BITMAP
0038
0030
0060
00E0
00C0
0180
0000
0000
FFFE
FFFE
E000
E000
E000
E000
E000
E000
E000
E000
FFFC
FFFC
E000
E000
E000
E000
E000
E000
E000
E000
E000
FFFE
FFFE
ENDCHAR
STARTCHAR Ecircumflex
ENCODING 202
SWIDTH 583 0
DWIDTH 19 0
BBX 15 31 3 0
BITMAP
0380
03C0
06E0
0C60
1C30
1810
0000
0000
FFFE
FFFE
E000
E000
E000
E000
E000
E000
E000
E000
FFFC
FFFC
E000
E000
E000
E000
E000
E000
E000
E000
E000
FFFE
FFFE
ENDCHAR
STARTCHAR Edieresis
ENCODING 203
SWIDTH 583 0
DWIDTH 19 0
BBX 15 29 3 0
BITMAP
0C70
1C70
0C70
0000
0000
0000
FFFE
FFFE
E000
E000
E000
E000
E000
E000
E000
E000
FFFC
FFFC
E000
E000
E000
E000
E000
E000
E000
E000
E000
FFFE
FFFE
ENDCHAR
STARTCHAR Igrave
ENCODING 204
SWIDTH 257 0
DWIDTH 8 0
BBX 7 31 -1 0
BITMAP
E0
60
70
38
18
0C
00
00
0C
0E
0E
0E
0E
0E
0E
0E
0E
0E
0E
0E
0E
0E
0E
0E
0E
0E
0E
0E
0E
0E
0C
ENDCHAR
STARTCHAR Iacute
ENCODING 205
SWIDTH 257 0
DWIDTH 8 0
BBX 6 31 3 0
BITMAP
0C
1C
38
30
60
40
00
00
C0
E0
E0
E0
E0
E0
E0
E0
E0
E0
E0
E0
E0
E0
E0
E0
E0
E0
E0
E0
E0
E0
C0
ENDCHAR
STARTCHAR Icircumflex
ENCODING 206
SWIDTH 257 0
DWIDTH 8 0
BBX 10 31 -1 0
BITMAP
0E00
1E00
3B00
3380
6180
C0C0
0000
0000
0C00
0E00
0E00
0E00
0E00
0E00
0E00
0E00
0E00
0E00
0E00
0E00
0E00
0E00
0E00
0E00
0E00
0E00
0E00
0E00
0E00
0E00
0C00
ENDCHAR
STARTCHAR Idieresis
ENCODING 207
SWIDTH 257 0
DWIDTH 8 0
BBX 9 29 0 0
BITMAP
E300
E380
E300
0000
0000
0000
1800
1C00
1C00
1C00
1C00
1C00
1C00
1C00
1C00
1C00
1C00
1C00
1C00
1C00
1C00
1C00
1C00
1C00
1C00
1C00
1C00
1C00
1800
ENDCHAR
STARTCHAR Eth
ENCODING 208
SWIDTH 742 0
DWIDTH 24 0
BBX 23 23 0 0
BITMAP
1FFE00
1FFF80
1C03E0
1C00F0
1C0078
1C0038
1C001C
1C001C
1C001C
1C000C
FFF00C
FFF00E
1C000C
1C001C
1C001C
1C001C
1C001C
1C0038
1C0078
1C00F0
1C03E0
1FFF80
1FFE00
ENDCHAR
STARTCHAR Ntilde
ENCODING 209
SWIDTH 740 0
DWIDTH 24 0
BBX 19 30 3 0
BITMAP
0F0300
1FC300
19E700
307E00
303C00
000000
000000
C000C0
E000E0
F000E0
F800E0
F800E0
DC00E0
CE00E0
C700E0
C700E0
C380E0
C1C0E0
C0E0E0
C0E0E0
C070E0
C038E0
C01CE0
C00EE0
C00EE0
C007E0
C003E0
C001E0
C001E0
C000C0
ENDCHAR
STARTCHAR Ograve
ENCODING 210
SWIDTH 767 0
DWIDTH 25 0
BBX 21 31 2 0
BITMAP
030000
038000
018000
00C000
006000
006000
000000
000000
01FC00
07FF00
1F07C0
3C01E0
3800F0
700070
700038
E00038
E00038
E00038
E00038
E00038
E00038
E00038
E00038
E00038
700030
700070
3800E0
1C01E0
0F07C0
07FF00
01FC00
ENDCHAR
STARTCHAR Oacute
ENCODING 211
SWIDTH 767 0
DWIDTH 25 0
BBX 21 31 2 0
BITMAP
000700
000600
000C00
001C00
003800
003000
000000
000000
01FC00
07FF00
1F07C0
3C01E0
3800F0
700070
700038
E00038
E00038
E00038
E00038
E00038
E00038
E00038
E00038
E00038
700030
700070
3800E0
1C01E0
0F07C0
07FF00
01FC00
ENDCHAR
STARTCHAR Ocircumflex
ENCODING 212
SWIDTH 767 0
DWIDTH 25 0
BBX 21 31 2 0
BITMAP
007000
007800
00DC00
018C00
038600
030200
000000
000000
01FC00
07FF00
1F07C0
3C01E0
3800F0
700070
700038
E00038
E00038
E00038
E00038
E00038
E00038
E00038
E00038
E00038
700030
700070
3800E0
1C01E0
0F07C0
07FF00
01FC00
ENDCHAR
STARTCHAR Otilde
ENCODING 213
SWIDTH 767 0
DWIDTH 25 0
BBX 21 30 2 0
BITMAP
03C080
07E080
0C7180
0C3F00
080E00
000000
000000
01FC00
07FF00
1F07C0
3C01E0
3800F0
700070
700038
E00038
E00038
E00038
E00038
E00038
E00038
E00038
E00038
E00038
700030
700070
3800E0
1C01E0
0F07C0
07FF00
01FC00
ENDCHAR
STARTCHAR Odieresis
ENCODING 214
SWIDTH 767 0
DWIDTH 25 0
BBX 21 29 2 0
BITMAP
018E00
038E00
018E00
000000
000000
000000
01FC00
07FF00
1F07C0
3C01E0
3800F0
700070
700038
E00038
E00038
E00038
E00038
E00038
E00038
E00038
E00038
E00038
700030
700070
3800E0
1C01E0
0F07C0
07FF00
01FC00
ENDCHAR
STARTCHAR multiply
ENCODING 215
SWIDTH 600 0
DWIDTH 20 0
BBX 15 15 2 2
BITMAP
4002
E006
700C
3818
1C30
0E60
07C0
0380
03C0
06E0
0C70
1838
301C
600E
C006
ENDCHAR
STARTCHAR Oslash
ENCODING 216
SWIDTH 767 0
DWIDTH 25 0
BBX 21 26 2 -1
BITMAP
000040
0000E0
01FCC0
07FFC0
1F07C0
3C03E0
3807F0
700670
700E38
E00C38
E01C38
E01838
E03038
E07038
E06038
E0E038
E0C038
E18038
738030
730070
3F00E0
1E01E0
0F07C0
1FFF00
19FC00
180000
ENDCHAR
STARTCHAR Ugrave
ENCODING 217
SWIDTH 728 0
DWIDTH 24 0
BBX 18 31 3 0
BITMAP
0C0000
0E0000
070000
038000
018000
00C000
000000
000000
C000C0
C000C0
C000C0
C000C0
C000C0
C000C0
C000C0
C000C0
C000C0
C000C0
C000C0
C000C0
C000C0
C000C0
C000C0
E001C0
E001C0
E001C0
700380
700380
3E0F00
1FFE00
07F800
ENDCHAR
STARTCHAR Uacute
ENCODING 218
SWIDTH 728 0
DWIDTH 24 0
BBX 18 31 3 0
BITMAP
000C00
001C00
003800
003000
006000
004000
000000
000000
C000C0
C000C0
C000C0
C000C0
C000C0
C000C0
C000C0
C000C0
C000C0
C000C0
C000C0
C000C0
C000C0
C000C0
C000C0
E001C0
E001C0
E001C0
700380
700380
3E0F00
1FFE00
07F800
ENDCHAR
STARTCHAR Ucircumflex
ENCODING 219
SWIDTH 728 0
DWIDTH 24 0
BBX 18 31 3 0
BITMAP
00C000
01E000
03F000
073800
061800
0C0C00
000000
000000
C000C0
C000C0
C000C0
C000C0
C000C0
C000C0
C000C0
C000C0
C000C0
C000C0
C000C0
C000C0
C000C0
C000C0
C000C0
E001C0
E001C0
E001C0
700380
700380
3E0F00
1FFE00
07F800
ENDCHAR
STARTCHAR Udieresis
ENCODING 220
SWIDTH 728 0
DWIDTH 24 0
BBX 18 29 3 0
BITMAP
061800
073800
061800
000000
000000
000000
C000C0
C000C0
C000C0
C000C0
C000C0
C000C0
C000C0
C000C0
C000C0
C000C0
C000C0
C000C0
C000C0
C000C0
C000C0
E001C0
E001C0
E001C0
700380
700380
3E0F00
1FFE00
07F800
ENDCHAR
STARTCHAR Yacute
ENCODING 221
SWIDTH 596 0
DWIDTH 20 0
BBX 19 31 0 0
BITMAP
000E00
000C00
001C00
003800
003000
006000
000000
000000
600060
F000E0
7001C0
3801C0
1C0380
1E0700
0E0E00
070E00
039C00
01F800
01F000
00F000
00E000
00E000
00E000
00E000
00E000
00E000
00E000
00E000
00E000
00E000
006000
ENDCHAR
STARTCHAR Thorn
ENCODING 222
SWIDTH 634 0
DWIDTH 21 0
BBX 17 23 3 0
BITMAP
C00000
E00000
E00000
E00000
FFF800
FFFC00
E01E00
E00700
E00380
E00380
E00380
E00380
E00380
E00380
E00700
E01E00
FFFC00
FFF800
E00000
E00000
E00000
E00000
C00000
ENDCHAR
STARTCHAR germandbls
ENCODING 223
SWIDTH 615 0
DWIDTH 20 0
BBX 16 23 3 0
BITMAP
0FC0
3FE0
7870
E030
E038
C030
C070
C0E0
C1C0
C380
C300
C300
C380
C3E0
C1FC
C03E
C00F
C003
C003
C403
CF0F
C7FE
C1F8
ENDCHAR
STARTCHAR agrave
ENCODING 224
SWIDTH 530 0
DWIDTH 17 0
BBX 13 25 2 0
BITMAP
3800
1800
1C00
0C00
0600
0600
0300
0000
0000
0FC0
7FF0
7070
4038
0038
0038
1FF8
7FF8
F038
E038
E038
E038
E078
70D8
7F98
1F18
ENDCHAR
STARTCHAR aacute
ENCODING 225
SWIDTH 530 0
DWIDTH 17 0
BBX 13 25 2 0
BITMAP
0070
0060
00E0
00C0
0180
0180
0300
0000
0000
0FC0
7FF0
7070
4038
0038
0038
1FF8
7FF8
F038
E038
E038
E038
E078
70D8
7F98
1F18
ENDCHAR
STARTCHAR acircumflex
ENCODING 226
SWIDTH 530 0
DWIDTH 17 0
BBX 13 25 2 0
BITMAP
0300
0780
0780
0CC0
1CC0
1860
3020
0000
0000
0FC0
7FF0
7070
4038
0038
0038
1FF8
7FF8
F038
E038
E038
E038
E078
70D8
7F98
1F18
ENDCHAR
STARTCHAR atilde
ENCODING 227
SWIDTH 530 0
DWIDTH 17 0
BBX 13 24 2 0
BITMAP
1C18
3E18
7330
61F0
60E0
0000
0000
0000
0FC0
7FF0
7070
4038
0038
0038
1FF8
7FF8
F038
E038
E038
E038
E078
70D8
7F98
1F18
ENDCHAR
STARTCHAR adieresis
ENCODING 228
SWIDTH 530 0
DWIDTH 17 0
BBX 13 23 2 0
BITMAP
1860
1CE0
1860
0000
0000
0000
0000
0FC0
7FF0
7070
4038
0038
0038
1FF8
7FF8
F038
E038
E038
E038
E078
70D8
7F98
1F18
ENDCHAR
STARTCHAR aring
ENCODING 229
SWIDTH 530 0
DWIDTH 17 0
BBX 13 25 2 0
BITMAP
0780
0CC0
1860
1860
1860
08C0
0780
0000
0000
0FC0
7FF0
7070
4038
0038
0038
1FF8
7FF8
F038
E038
E038
E038
E078
70D8
7F98
1F18
ENDCHAR
STARTCHAR ae
ENCODING 230
SWIDTH 861 0
DWIDTH 28 0
BBX 25 16 2 0
BITMAP
0FC1F800
7FE3FE00
70770F00
403C0300
001C0380
00180180
1FFFFF80
7FFFFF80
F0180000
E0180000
C03C0000
E03C0000
E06E0100
70E70780
7FC3FF00
1F00FC00
ENDCHAR
STARTCHAR ccedilla
ENCODING 231
SWIDTH 463 0
DWIDTH 15 0
BBX 13 22 2 -6
BITMAP
0FC0
3FF0
7878
7010
E000
E000
C000
C000
C000
C000
E000
E000
7010
7878
3FF0
0FC0
0300
03C0
0060
0060
0FE0
07C0
ENDCHAR
STARTCHAR egrave
ENCODING 232
SWIDTH 532 0
DWIDTH 18 0
BBX 14 25 2 0
BITMAP
1800
1800
1C00
0E00
0600
0700
0300
0000
0000
0FC0
3FF0
7878
7018
E01C
C00C
C00C
FFFC
FFFC
C000
C000
E000
700C
783C
3FF8
0FE0
ENDCHAR
STARTCHAR eacute
ENCODING 233
SWIDTH 532 0
DWIDTH 18 0
BBX 14 25 2 0
BITMAP
0070
0070
00E0
00C0
01C0
0180
0100
0000
0000
0FC0
3FF0
7878
7018
E01C
C00C
C00C
FFFC
FFFC
C000
C000
E000
700C
783C
3FF8
0FE0
ENDCHAR
STARTCHAR ecircumflex
ENCODING 234
SWIDTH 532 0
DWIDTH 18 0
BBX 14 25 2 0
BITMAP
0300
0780
07C0
0CC0
0C60
1860
1830
0000
0000
0FC0
3FF0
7878
7018
E01C
C00C
C00C
FFFC
FFFC
C000
C000
E000
700C
783C
3FF8
0FE0
ENDCHAR
STARTCHAR edieresis
ENCODING 235
SWIDTH 532 0
DWIDTH 18 0
BBX 14 23 2 0
BITMAP
1C60
1C70
1C60
0000
0000
0000
0000
0FC0
3FF0
7878
7018
E01C
C00C
C00C
FFFC
FFFC
C000
C000
E000
700C
783C
3FF8
0FE0
ENDCHAR
STARTCHAR igrave
ENCODING 236
SWIDTH 232 0
DWIDTH 8 0
BBX 6 25 -1 0
BITMAP
E0
E0
70
30
38
18
08
00
00
0C
0C
0C
0C
0C
0C
0C
0C
0C
0C
0C
0C
0C
0C
0C
0C
ENDCHAR
STARTCHAR iacute
ENCODING 237
SWIDTH 232 0
DWIDTH 8 0
BBX 5 25 3 0
BITMAP
18
18
38
30
60
60
C0
00
00
C0
C0
C0
C0
C0
C0
C0
C0
C0
C0
C0
C0
C0
C0
C0
C0
ENDCHAR
STARTCHAR icircumflex
ENCODING 238
SWIDTH 232 0
DWIDTH 8 0
BBX 9 25 -1 0
BITMAP
0C00
1E00
3E00
3300
6300
6180
C080
0000
0000
0C00
0C00
0C00
0C00
0C00
0C00
0C00
0C00
0C00
0C00
0C00
0C00
0C00
0C00
0C00
0C00
ENDCHAR
STARTCHAR idieresis
ENCODING 239
SWIDTH 232 0
DWIDTH 8 0
BBX 9 23 -1 0
BITMAP
6380
F380
6380
0000
0000
0000
0000
0C00
0C00
0C00
0C00
0C00
0C00
0C00
0C00
0C00
0C00
0C00
0C00
0C00
0C00
0C00
0C00
ENDCHAR
STARTCHAR eth
ENCODING 240
SWIDTH 560 0
DWIDTH 18 0
BBX 15 23 2 0
BITMAP
1C38
1FF8
03C0
1FE0
3C70
3038
0018
001C
0FCC
3FEC
787E
F01E
E01E
C00E
C00E
C00E
C00E
C00C
E01C
701C
7878
3FF0
0FC0
ENDCHAR
STARTCHAR ntilde
ENCODING 241
SWIDTH 568 0
DWIDTH 19 0
BBX 13 24 3 0
BITMAP
3C10
7E30
6730
43E0
41E0
0000
0000
0000
C7C0
DFF0
F878
E038
E038
C018
C018
C018
C018
C018
C018
C018
C018
C018
C018
C018
ENDCHAR
STARTCHAR ograve
ENCODING 242
SWIDTH 556 0
DWIDTH 18 0
BBX 15 25 2 0
BITMAP
1800
1800
1C00
0C00
0600
0600
0300
0000
0000
0FC0
3FF0
7878
701C
E01C
E00E
C00E
C00E
C00E
C00E
E00E
E01C
701C
7878
3FF0
0FC0
ENDCHAR
STARTCHAR oacute
ENCODING 243
SWIDTH 556 0
DWIDTH 18 0
BBX 15 25 2 0
BITMAP
0070
0070
00E0
00C0
01C0
0180
0100
0000
0000
0FC0
3FF0
7878
701C
E01C
E00E
C00E
C00E
C00E
C00E
E00E
E01C
701C
7878
3FF0
0FC0
ENDCHAR
STARTCHAR ocircumflex
ENCODING 244
SWIDTH 556 0
DWIDTH 18 0
BBX 15 25 2 0
BITMAP
0300
0780
07C0
0CC0
0C60
1860
1030
0000
0000
0FC0
3FF0
7878
701C
E01C
E00E
C00E
C00E
C00E
C00E
E00E
E01C
701C
7878
3FF0
0FC0
ENDCHAR
STARTCHAR otilde
ENCODING 245
SWIDTH 556 0
DWIDTH 18 0
BBX 15 24 2 0
BITMAP
1C08
3E18
3398
61F0
60E0
0000
0000
0000
0FC0
3FF0
7878
701C
E01C
E00E
C00E
C00E
C00E
C00E
E00E
E01C
701C
7878
3FF0
0FC0
ENDCHAR
STARTCHAR odieresis
ENCODING 246
SWIDTH 556 0
DWIDTH 18 0
BBX 15 23 2 0
BITMAP
1C60
1CF0
1C60
0000
0000
0000
0000
0FC0
3FF0
7878
701C
E01C
E00E
C00E
C00E
C00E
C00E
E00E
E01C
701C
7878
3FF0
0FC0
ENDCHAR
STARTCHAR divide
ENCODING 247
SWIDTH 600 0
DWIDTH 20 0
BBX 16 16 2 1
BITMAP
0180
0380
0180
0000
0000
0000
0000
FFFF
FFFF
0000
0000
0000
0000
0180
0380
0180
ENDCHAR
STARTCHAR oslash
ENCODING 248
SWIDTH 556 0
DWIDTH 18 0
BBX 15 18 2 -1
BITMAP
0018
0FD8
3FF0
7878
707C
E0DC
E0CE
C18E
C38E
C30E
C60E
E60E
EC1C
7C1C
7878
3FF0
3FC0
6000
ENDCHAR
STARTCHAR ugrave
ENCODING 249
SWIDTH 561 0
DWIDTH 19 0
BBX 14 25 2 0
BITMAP
1800
1C00
0C00
0E00
0600
0700
0300
0000
0000
600C
E01C
E01C
E01C
E01C
E01C
E01C
E01C
E01C
E01C
E01C
601C
703C
787C
3FDC
1F8C
ENDCHAR
STARTCHAR uacute
ENCODING 250
SWIDTH 561 0
DWIDTH 19 0
BBX 14 25 2 0
BITMAP
0030
0070
00E0
00C0
01C0
0180
0100
0000
0000
600C
E01C
E01C
E01C
E01C
E01C
E01C
E01C
E01C
E01C
E01C
601C
703C
787C
3FDC
1F8C
ENDCHAR
STARTCHAR ucircumflex
ENCODING 251
SWIDTH 561 0
DWIDTH 19 0
BBX 14 25 2 0
BITMAP
0300
0780
07C0
0CC0
0C60
1860
1830
0000
0000
600C
E01C
E01C
E01C
E01C
E01C
E01C
E01C
E01C
E01C
E01C
601C
703C
787C
3FDC
1F8C
ENDCHAR
STARTCHAR udieresis
ENCODING 252
SWIDTH 561 0
DWIDTH 19 0
BBX 14 23 2 0
BITMAP
1C60
1C70
1C60
0000
0000
0000
0000
600C
E01C
E01C
E01C
E01C
E01C
E01C
E01C
E01C
E01C
E01C
601C
703C
787C
3FDC
1F8C
ENDCHAR
STARTCHAR yacute
ENCODING 253
SWIDTH 514 0
DWIDTH 17 0
BBX 15 31 1 -6
BITMAP
0030
0070
0060
00E0
00C0
0180
0180
0000
0000
C006
E00E
E00E
700C
701C
3018
3838
3830
1C70
1C70
0E60
0EE0
06C0
07C0
0380
0380
0380
0700
0700
0E00
0E00
0C00
ENDCHAR
STARTCHAR thorn
ENCODING 254
SWIDTH 583 0
DWIDTH 19 0
BBX 15 29 3 -6
BITMAP
C000
C000
C000
C000
C000
C000
C000
C7C0
DFF0
F878
F01C
E01C
C00C
C00E
C00E
C00E
C00E
C00C
E01C
F01C
F878
DFF0
C7C0
C000
C000
C000
C000
C000
C000
ENDCHAR
STARTCHAR ydieresis
ENCODING 255
SWIDTH 514 0
DWIDTH 17 0
BBX 15 29 1 -6
BITMAP
1C70
1C70
1C70
0000
0000
0000
0000
C006
E00E
E00E
700C
701C
3018
3838
3830
1C70
1C70
0E60
0EE0
06C0
07C0
0380
0380
0380
0700
0700
0E00
0E00
0C00
ENDCHAR
STARTCHAR Amacron
ENCODING 256
SWIDTH 729 0
DWIDTH 24 0
BBX 22 28 1 0
BITMAP
03FF80
03FF00
000000
000000
000000
003000
007800
007800
00FC00
00CC00
01CE00
018600
018700
038700
030300
070380
060180
0E01C0
0E00C0
1C00E0
1FFFE0
3FFFF0
380070
300038
700038
600018
E0001C
C0000C
ENDCHAR
STARTCHAR amacron
ENCODING 257
SWIDTH 530 0
DWIDTH 17 0
BBX 13 22 2 0
BITMAP
3FF0
3FF0
0000
0000
0000
0000
0FC0
7FF0
7070
4038
0038
0038
1FF8
7FF8
F038
E038
E038
E038
E078
70D8
7F98
1F18
ENDCHAR
STARTCHAR Abreve
ENCODING 258
SWIDTH 729 0
DWIDTH 24 0
BBX 22 31 1 0
BITMAP
020100
020180
030300
038700
01FE00
007C00
000000
000000
003000
007800
007800
00FC00
00CC00
01CE00
018600
018700
038700
030300
070380
060180
0E01C0
0E00C0
1C00E0
1FFFE0
3FFFF0
380070
300038
700038
600018
E0001C
C0000C
ENDCHAR
STARTCHAR abreve
ENCODING 259
SWIDTH 530 0
DWIDTH 17 0
BBX 13 25 2 0
BITMAP
2010
3030
3030
3030
18E0
0FC0
0780
0000
0000
0FC0
7FF0
7070
4038
0038
0038
1FF8
7FF8
F038
E038
E038
E038
E078
70D8
7F98
1F18
ENDCHAR
STARTCHAR Aogonek
ENCODING 260
SWIDTH 729 0
DWIDTH 24 0
BBX 24 29 1 -6
BITMAP
003000
007800
007800
00FC00
00CC00
01CE00
018600
018700
038700
030300
070380
060180
0E01C0
0E00C0
1C00E0
1FFFE0
3FFFF0
380070
300038
700038
60001C
E0001C
C00018
000030
000030
000030
000030
00003F
00001E
ENDCHAR
STARTCHAR aogonek
ENCODING 261
SWIDTH 530 0
DWIDTH 17 0
BBX 14 22 2 -6
BITMAP
0FC0
7FF0
7070
4038
0038
0038
0038
1FF8
7FF8
F038
E038
C038
E078
F0D8
7F98
1F30
0060
0040
00C0
00E0
007C
003C
ENDCHAR
STARTCHAR Cacute
ENCODING 262
SWIDTH 673 0
DWIDTH 22 0
BBX 19 31 2 0
BITMAP
000700
000600
000E00
001C00
001800
003000
000000
000000
01FE00
07FF80
0F07E0
1C00E0
380000
700000
700000
E00000
E00000
E00000
E00000
E00000
E00000
E00000
E00000
E00000
700000
700000
380000
1C00E0
1F03E0
07FF80
01FE00
ENDCHAR
STARTCHAR cacute
ENCODING 263
SWIDTH 463 0
DWIDTH 15 0
BBX 13 25 2 0
BITMAP
0070
0070
00E0
00C0
01C0
0180
0100
0000
0000
0FC0
3FF0
7878
7010
E000
E000
C000
C000
C000
C000
E000
E000
7010
7878
3FF0
0FC0
ENDCHAR
STARTCHAR Ccircumflex
ENCODING 264
SWIDTH 673 0
DWIDTH 22 0
BBX 19 31 2 0
BITMAP
007000
007800
00DC00
01CC00
038600
030300
000000
000000
01FE00
07FF80
0F07E0
1C00E0
380000
700000
700000
E00000
E00000
E00000
E00000
E00000
E00000
E00000
E00000
E00000
700000
700000
380000
1C00E0
1F03E0
07FF80
01FE00
ENDCHAR
STARTCHAR ccircumflex
ENCODING 265
SWIDTH 463 0
DWIDTH 15 0
BBX 13 25 2 0
BITMAP
0300
0780
07C0
0CC0
0C60
1860
1030
0000
0000
0FC0
3FF0
7878
7010
E000
E000
C000
C000
C000
C000
E000
E000
7010
7878
3FF0
0FC0
ENDCHAR
STARTCHAR Cdotaccent
ENCODING 266
SWIDTH 673 0
DWIDTH 22 0
BBX 19 29 2 0
BITMAP
007000
007000
007000
000000
000000
000000
01FE00
07FF80
0F07E0
1C00E0
380000
700000
700000
E00000
E00000
E00000
E00000
E00000
E00000
E00000
E00000
E00000
700000
700000
380000
1C00E0
1F03E0
07FF80
01FE00
ENDCHAR
STARTCHAR cdotaccent
ENCODING 267
SWIDTH 463 0
DWIDTH 15 0
BBX 13 23 2 0
BITMAP
0300
0380
0380
0000
0000
0000
0000
0FC0
3FF0
7878
7010
E000
E000
C000
C000
C000
C000
E000
E000
7010
7878
3FF0
0FC0
ENDCHAR
STARTCHAR Ccaron
ENCODING 268
SWIDTH 673 0
DWIDTH 22 0
BBX 19 30 2 0
BITMAP
030300
038600
01CC00
00DC00
007800
007000
000000
01FE00
07FF80
0F07E0
1C00E0
380000
700000
700000
E00000
E00000
E00000
E00000
E00000
E00000
E00000
E00000
E00000
700000
700000
380000
1C00E0
1F03E0
07FF80
01FE00
ENDCHAR
STARTCHAR ccaron
ENCODING 269
SWIDTH 463 0
DWIDTH 15 0
BBX 13 24 2 0
BITMAP
1030
1860
0C60
0CC0
07C0
0780
0300
0000
0FC0
3FF0
7878
7010
E000
E000
C000
C000
C000
C000
E000
E000
7010
7878
3FF0
0FC0
ENDCHAR
STARTCHAR Dcaron
ENCODING 270
SWIDTH 742 0
DWIDTH 24 0
BBX 20 30 3 0
BITMAP
0C0C00
061800
033800
03B000
01E000
00E000
000000
FFF000
FFFC00
E01F00
E00780
E003C0
E001C0
E000E0
E000E0
E000E0
E00060
E00060
E00070
E00060
E000E0
E000E0
E000E0
E000E0
E001C0
E003C0
E00780
E01F00
FFFC00
FFF000
ENDCHAR
STARTCHAR dcaron
ENCODING 271
SWIDTH 583 0
DWIDTH 19 0
BBX 18 23 2 0
BITMAP
000CC0
000EC0
000EC0
000EC0
000EC0
000EC0
000EC0
0F8E00
3FEE00
787E00
F01E00
E01E00
E00E00
C00E00
C00E00
C00E00
C00E00
E00E00
E01E00
701E00
787E00
3FEE00
0F8C00
ENDCHAR
STARTCHAR Dcroat
ENCODING 272
SWIDTH 742 0
DWIDTH 24 0
BBX 23 23 0 0
BITMAP
1FFE00
1FFF80
1C03E0
1C00F0
1C0078
1C0038
1C001C
1C001C
1C001C
1C000C
FFF00C
FFF00E
1C000C
1C001C
1C001C
1C001C
1C001C
1C0038
1C0078
1C00F0
1C03E0
1FFF80
1FFE00
ENDCHAR
STARTCHAR dcroat
ENCODING 273
SWIDTH 583 0
DWIDTH 19 0
BBX 18 23 2 0
BITMAP
000E00
000E00
000E00
03FFC0
03FFC0
000E00
000E00
0F8E00
3FEE00
787E00
701E00
E01E00
E00E00
C00E00
C00E00
C00E00
C00E00
E00E00
E01E00
701E00
787E00
3FEE00
0F8E00
ENDCHAR
STARTCHAR Emacron
ENCODING 274
SWIDTH 583 0
DWIDTH 19 0
BBX 15 28 3 0
BITMAP
3FF8
3FF8
0000
0000
0000
FFFE
FFFE
E000
E000
E000
E000
E000
E000
E000
E000
FFFC
FFFC
E000
E000
E000
E000
E000
E000
E000
E000
E000
FFFE
FFFE
ENDCHAR
STARTCHAR emacron
ENCODING 275
SWIDTH 532 0
DWIDTH 18 0
BBX 14 22 2 0
BITMAP
3FF0
3FF0
0000
0000
0000
0000
0FC0
3FF0
7878
7018
E01C
C00C
C00C
FFFC
FFFC
C000
C000
E000
700C
783C
3FF8
0FE0
ENDCHAR
STARTCHAR Ebreve
ENCODING 276
SWIDTH 583 0
DWIDTH 19 0
BBX 15 31 3 0
BITMAP
1008
3018
3818
1C70
0FF0
07C0
0000
0000
FFFE
FFFE
E000
E000
E000
E000
E000
E000
E000
E000
FFFC
FFFC
E000
E000
E000
E000
E000
E000
E000
E000
E000
FFFE
FFFE
ENDCHAR
STARTCHAR ebreve
ENCODING 277
SWIDTH 532 0
DWIDTH 18 0
BBX 14 25 2 0
BITMAP
1010
3010
3030
1830
1C60
0FE0
0780
0000
0000
0FC0
3FF0
7878
7018
E01C
C00C
C00C
FFFC
FFFC
C000
C000
E000
700C
783C
3FF8
0FE0
ENDCHAR
STARTCHAR Edotaccent
ENCODING 278
SWIDTH 583 0
DWIDTH 19 0
BBX 15 29 3 0
BITMAP
0380
0380
0380
0000
0000
0000
FFFE
FFFE
E000
E000
E000
E000
E000
E000
E000
E000
FFFC
FFFC
E000
E000
E000
E000
E000
E000
E000
E000
E000
FFFE
FFFE
ENDCHAR
STARTCHAR edotaccent
ENCODING 279
SWIDTH 532 0
DWIDTH 18 0
BBX 14 23 2 0
BITMAP
0380
0380
0380
0000
0000
0000
0000
0FC0
3FF0
7878
7018
E01C
C00C
C00C
FFFC
FFFC
C000
C000
E000
700C
783C
3FF8
0FE0
ENDCHAR
STARTCHAR Eogonek
ENCODING 280
SWIDTH 583 0
DWIDTH 19 0
BBX 15 29 3 -6
BITMAP
FFFE
FFFE
E000
E000
E000
E000
E000
E000
E000
E000
FFFC
FFFC
E000
E000
E000
E000
E000
E000
E000
E000
E000
FFFE
FFFE
0030
0060
0060
0070
003E
001E
ENDCHAR
STARTCHAR eogonek
ENCODING 281
SWIDTH 532 0
DWIDTH 18 0
BBX 14 22 2 -6
BITMAP
0FC0
3FF0
7878
7018
E01C
C00C
C00C
FFFC
FFFC
C000
C000
E000
700C
783C
3FF8
0FE0
0300
0300
0300
0300
03F0
01E0
ENDCHAR
STARTCHAR Ecaron
ENCODING 282
SWIDTH 583 0
DWIDTH 19 0
BBX 15 30 3 0
BITMAP
1810
1C30
0C60
06E0
03C0
0380
0000
FFFE
FFFE
E000
E000
E000
E000
E000
E000
E000
E000
FFFC
FFFC
E000
E000
E000
E000
E000
E000
E000
E000
E000
FFFE
FFFE
ENDCHAR
STARTCHAR ecaron
ENCODING 283
SWIDTH 532 0
DWIDTH 18 0
BBX 14 24 2 0
BITMAP
1830
1860
0C60
0CC0
07C0
0780
0300
0000
0FC0
3FF0
7878
7018
E01C
C00C
C00C
FFFC
FFFC
C000
C000
E000
700C
783C
3FF8
0FE0
ENDCHAR
STARTCHAR Gcircumflex
ENCODING 284
SWIDTH 726 0
DWIDTH 24 0
BBX 19 31 2 0
BITMAP
003000
007800
00DC00
01CC00
018600
030300
000000
000000
01FE00
07FFC0
0F03E0
1C00E0
380000
700000
700000
E00000
E00000
E00000
E00000
E01FE0
E01FE0
E00060
E00060
E00060
700060
700060
380060
1C0060
0F81E0
07FFE0
01FF00
ENDCHAR
STARTCHAR gcircumflex
ENCODING 285
SWIDTH 586 0
DWIDTH 19 0
BBX 15 31 2 -6
BITMAP
0180
03C0
07C0
0660
0C60
0C30
1830
0000
0000
0F8E
3FEE
787E
701E
E01E
E00E
C00E
C00E
C00E
C00E
E00E
E01E
701E
787E
3FEE
0F8E
000E
000C
401C
783C
7FF8
0FE0
ENDCHAR
STARTCHAR Gbreve
ENCODING 286
SWIDTH 726 0
DWIDTH 24 0
BBX 19 31 2 0
BITMAP
020100
060100
030300
038700
01FE00
00F800
000000
000000
01FE00
07FFC0
0F03E0
1C00E0
380000
700000
700000
E00000
E00000
E00000
E00000
E01FE0
E01FE0
E00060
E00060
E00060
700060
700060
380060
1C0060
0F81E0
07FFE0
01FF00
ENDCHAR
STARTCHAR gbreve
ENCODING 287
SWIDTH 586 0
DWIDTH 19 0
BBX 15 31 2 -6
BITMAP
1010
1018
1818
1830
0C70
0FE0
03C0
0000
0000
0F8E
3FEE
787E
701E
E01E
E00E
C00E
C00E
C00E
C00E
E00E
E01E
701E
787E
3FEE
0F8E
000E
000C
401C
783C
7FF8
0FE0
ENDCHAR
STARTCHAR Gdotaccent
ENCODING 288
SWIDTH 726 0
DWIDTH 24 0
BBX 19 29 2 0
BITMAP
003000
007800
003000
000000
000000
000000
01FE00
07FFC0
0F03E0
1C00E0
380000
700000
700000
E00000
E00000
E00000
E00000
E01FE0
E01FE0
E00060
E00060
E00060
700060
700060
380060
1C0060
0F81E0
07FFE0
01FF00
ENDCHAR
STARTCHAR gdotaccent
ENCODING 289
SWIDTH 586 0
DWIDTH 19 0
BBX 15 29 2 -6
BITMAP
0380
0380
0380
0000
0000
0000
0000
0F8E
3FEE
787E
701E
E01E
E00E
C00E
C00E
C00E
C00E
E00E
E01E
701E
787E
3FEE
0F8E
000E
000C
401C
783C
7FF8
0FE0
ENDCHAR
STARTCHAR uni0122
ENCODING 290
SWIDTH 726 0
DWIDTH 24 0
BBX 19 31 2 -8
BITMAP
01FE00
07FFC0
0F03E0
1C00E0
380000
700000
700000
E00000
E00000
E00000
E00000
E01FE0
E01FE0
E00060
E00060
E00060
700060
700060
380060
1C0060
0F81E0
07FFE0
01FF00
000000
000000
003000
007800
003800
001800
001000
003000
ENDCHAR
STARTCHAR uni0123
ENCODING 291
SWIDTH 586 0
DWIDTH 19 0
BBX 15 30 2 -6
BITMAP
0180
0100
0300
0380
0380
0380
0000
0000
0F8E
3FEE
787E
701E
E01E
E00E
C00E
C00E
C00E
C00E
E00E
E01E
701E
787E
3FEE
0F8E
000E
000C
401C
783C
7FF8
0FE0
ENDCHAR
STARTCHAR Hcircumflex
ENCODING 292
SWIDTH 761 0
DWIDTH 25 0
BBX 19 31 3 0
BITMAP
00E000
01F000
01B000
031800
060C00
060C00
000000
000000
C00060
E00060
E00060
E00060
E00060
E00060
E00060
E00060
E00060
E00060
FFFFE0
FFFFE0
E00060
E00060
E00060
E00060
E00060
E00060
E00060
E00060
E00060
E00060
C00060
ENDCHAR
STARTCHAR hcircumflex
ENCODING 293
SWIDTH 568 0
DWIDTH 19 0
BBX 13 31 3 0
BITMAP
0700
0F80
0D80
18C0
3060
3060
0000
0000
C000
C000
C000
C000
C000
C000
C000
C7C0
DFF0
F878
E038
E038
C018
C018
C018
C018
C018
C018
C018
C018
C018
C018
C018
ENDCHAR
STARTCHAR Hbar
ENCODING 294
SWIDTH 798 0
DWIDTH 26 0
BBX 26 23 0 0
BITMAP
0C000E00
1C000E00
1C000E00
1C000E00
FFFFFFC0
FFFFFFC0
1C000E00
1C000E00
1C000E00
1C000E00
1FFFFE00
1FFFFE00
1C000E00
1C000E00
1C000E00
1C000E00
1C000E00
1C000E00
1C000E00
1C000E00
1C000E00
1C000E00
0C000E00
ENDCHAR
STARTCHAR hbar
ENCODING 295
SWIDTH 568 0
DWIDTH 19 0
BBX 17 23 -1 0
BITMAP
0C0000
0C0000
0C0000
FFF800
7FF000
0C0000
0C0000
0C7C00
0DFF00
0F8780
0E0380
0E0380
0C0180
0C0180
0C0180
0C0180
0C0180
0C0180
0C0180
0C0180
0C0180
0C0180
0C0180
ENDCHAR
STARTCHAR Itilde
ENCODING 296
SWIDTH 257 0
DWIDTH 8 0
BBX 14 30 -3 0
BITMAP
3C04
7F0C
679C
C1F8
C0F0
0000
0000
0300
0380
0380
0380
0380
0380
0380
0380
0380
0380
0380
0380
0380
0380
0380
0380
0380
0380
0380
0380
0380
0380
0300
ENDCHAR
STARTCHAR itilde
ENCODING 297
SWIDTH 232 0
DWIDTH 8 0
BBX 12 24 -2 0
BITMAP
3830
7C30
CE60
C3E0
81C0
0000
0000
0000
0600
0600
0600
0600
0600
0600
0600
0600
0600
0600
0600
0600
0600
0600
0600
0600
ENDCHAR
STARTCHAR Imacron
ENCODING 298
SWIDTH 257 0
DWIDTH 8 0
BBX 11 28 -1 0
BITMAP
FFE0
FFE0
0000
0000
0000
0C00
0E00
0E00
0E00
0E00
0E00
0E00
0E00
0E00
0E00
0E00
0E00
0E00
0E00
0E00
0E00
0E00
0E00
0E00
0E00
0E00
0E00
0C00
ENDCHAR
STARTCHAR imacron
ENCODING 299
SWIDTH 232 0
DWIDTH 8 0
BBX 10 22 -1 0
BITMAP
FFC0
FFC0
0000
0000
0000
0000
0C00
0C00
0C00
0C00
0C00
0C00
0C00
0C00
0C00
0C00
0C00
0C00
0C00
0C00
0C00
0C00
ENDCHAR
STARTCHAR Ibreve
ENCODING 300
SWIDTH 257 0
DWIDTH 8 0
BBX 11 31 -1 0
BITMAP
8040
C060
C0C0
E1C0
7F80
1F00
0000
0000
0C00
0E00
0E00
0E00
0E00
0E00
0E00
0E00
0E00
0E00
0E00
0E00
0E00
0E00
0E00
0E00
0E00
0E00
0E00
0E00
0E00
0E00
0C00
ENDCHAR
STARTCHAR ibreve
ENCODING 301
SWIDTH 232 0
DWIDTH 8 0
BBX 10 25 -1 0
BITMAP
8040
C0C0
C0C0
C180
6380
7F00
1E00
0000
0000
0C00
0C00
0C00
0C00
0C00
0C00
0C00
0C00
0C00
0C00
0C00
0C00
0C00
0C00
0C00
0C00
ENDCHAR
STARTCHAR Iogonek
ENCODING 302
SWIDTH 257 0
DWIDTH 8 0
BBX 6 29 1 -6
BITMAP
30
38
38
38
38
38
38
38
38
38
38
38
38
38
38
38
38
38
38
38
38
38
70
60
C0
C0
E0
7C
7C
ENDCHAR
STARTCHAR iogonek
ENCODING 303
SWIDTH 232 0
DWIDTH 8 0
BBX 6 29 1 -6
BITMAP
70
78
70
00
00
00
00
30
30
30
30
30
30
30
30
30
30
30
30
30
30
30
30
60
C0
C0
C0
FC
78
ENDCHAR
STARTCHAR Idotaccent
ENCODING 304
SWIDTH 257 0
DWIDTH 8 0
BBX 3 29 3 0
BITMAP
E0
E0
E0
00
00
00
C0
E0
E0
E0
E0
E0
E0
E0
E0
E0
E0
E0
E0
E0
E0
E0
E0
E0
E0
E0
E0
E0
C0
ENDCHAR
STARTCHAR dotlessi
ENCODING 305
SWIDTH 232 0
DWIDTH 8 0
BBX 2 16 3 0
BITMAP
C0
C0
C0
C0
C0
C0
C0
C0
C0
C0
C0
C0
C0
C0
C0
C0
ENDCHAR
STARTCHAR IJ
ENCODING 306
SWIDTH 580 0
DWIDTH 19 0
BBX 13 23 3 0
BITMAP
C018
E018
E018
E018
E018
E018
E018
E018
E018
E018
E018
E018
E018
E018
E018
E018
E018
E018
E038
E038
E078
E7F0
C7C0
ENDCHAR
STARTCHAR Jcircumflex
ENCODING 308
SWIDTH 324 0
DWIDTH 11 0
BBX 11 31 0 0
BITMAP
0700
0F80
0D80
18C0
3060
3060
0000
0000
0700
0700
0700
0700
0700
0700
0700
0700
0700
0700
0700
0700
0700
0700
0700
0700
0700
0700
0700
0E00
1E00
FC00
F800
ENDCHAR
STARTCHAR jcircumflex
ENCODING 309
SWIDTH 236 0
DWIDTH 8 0
BBX 10 31 -2 -6
BITMAP
0600
0F00
1F00
1980
3180
30C0
6040
0000
0000
0600
0600
0600
0600
0600
0600
0600
0600
0600
0600
0600
0600
0600
0600
0600
0600
0600
0E00
0E00
1E00
FC00
F000
ENDCHAR
STARTCHAR uni0136
ENCODING 310
SWIDTH 625 0
DWIDTH 21 0
BBX 17 31 3 -8
BITMAP
C00300
E00700
E01E00
E03C00
E07800
E0F000
E1E000
E38000
E70000
EE0000
FC0000
FC0000
FE0000
EF0000
E78000
E3C000
E1E000
E07000
E03800
E01E00
E00F00
E00780
C00380
000000
000000
038000
038000
038000
018000
018000
030000
ENDCHAR
STARTCHAR uni0137
ENCODING 311
SWIDTH 500 0
DWIDTH 17 0
BBX 13 31 3 -8
BITMAP
C000
C000
C000
C000
C000
C000
C000
C070
C0F0
C1E0
C3C0
C780
CE00
DC00
F800
FC00
DE00
CF00
C380
C1C0
C0E0
C070
C038
0000
0000
0E00
0E00
0E00
0600
0400
0C00
ENDCHAR
STARTCHAR kgreenlandic
ENCODING 312
SWIDTH 500 0
DWIDTH 17 0
BBX 13 16 3 0
BITMAP
C070
C0F0
C1E0
C3C0
C780
CE00
DC00
F800
FC00
DE00
CF00
C380
C1C0
C0E0
C070
C038
ENDCHAR
STARTCHAR Lacute
ENCODING 313
SWIDTH 543 0
DWIDTH 18 0
BBX 15 31 3 0
BITMAP
0C00
1C00
3800
3000
6000
4000
0000
0000
C000
E000
E000
E000
E000
E000
E000
E000
E000
E000
E000
E000
E000
E000
E000
E000
E000
E000
E000
E000
E000
FFFE
FFFE
ENDCHAR
STARTCHAR lacute
ENCODING 314
SWIDTH 296 0
DWIDTH 10 0
BBX 7 31 3 0
BITMAP
1C
18
38
70
60
C0
00
00
C0
C0
C0
C0
C0
C0
C0
C0
C0
C0
C0
C0
C0
C0
C0
C0
C0
C0
C0
E0
E0
7E
3C
ENDCHAR
STARTCHAR uni013B
ENCODING 315
SWIDTH 543 0
DWIDTH 18 0
BBX 15 31 3 -8
BITMAP
C000
E000
E000
E000
E000
E000
E000
E000
E000
E000
E000
E000
E000
E000
E000
E000
E000
E000
E000
E000
E000
FFFE
FFFE
0000
0000
0300
0780
0380
0180
0300
0300
ENDCHAR
STARTCHAR uni013C
ENCODING 316
SWIDTH 296 0
DWIDTH 10 0
BBX 7 31 3 -8
BITMAP
C0
C0
C0
C0
C0
C0
C0
C0
C0
C0
C0
C0
C0
C0
C0
C0
C0
C0
C0
E0
E0
7E
3C
00
00
30
78
38
18
10
30
ENDCHAR
STARTCHAR Lcaron
ENCODING 317
SWIDTH 543 0
DWIDTH 18 0
BBX 15 23 3 0
BITMAP
C180
E380
E380
E300
E300
E300
E300
E300
E000
E000
E000
E000
E000
E000
E000
E000
E000
E000
E000
E000
E000
FFFE
FFFE
ENDCHAR
STARTCHAR lcaron
ENCODING 318
SWIDTH 296 0
DWIDTH 10 0
BBX 7 23 3 0
BITMAP
CC
CC
CC
C8
C8
C8
C8
C0
C0
C0
C0
C0
C0
C0
C0
C0
C0
C0
C0
E0
E0
7E
3C
ENDCHAR
STARTCHAR Ldot
ENCODING 319
SWIDTH 543 0
DWIDTH 18 0
BBX 15 23 3 0
BITMAP
C000
E000
E000
E000
E000
E000
E000
E000
E070
E0F0
E070
E070
E000
E000
E000
E000
E000
E000
E000
E000
E000
FFFE
FFFE
ENDCHAR
STARTCHAR ldot
ENCODING 320
SWIDTH 327 0
DWIDTH 11 0
BBX 8 23 3 0
BITMAP
C0
C0
C0
C0
C0
C0
C0
C0
C0
C7
CF
C7
C7
C0
C0
C0
C0
C0
C0
E0
E0
7E
3C
ENDCHAR
STARTCHAR Lslash
ENCODING 321
SWIDTH 543 0
DWIDTH 18 0
BBX 19 23 -1 0
BITMAP
0C0000
0E0000
0E0000
0E0000
0E0000
0E0000
0E1800
0E7800
0EF000
0FC000
0F8000
3E0000
7E0000
EE0000
0E0000
0E0000
0E0000
0E0000
0E0000
0E0000
0E0000
0FFFE0
0FFFE0
ENDCHAR
STARTCHAR lslash
ENCODING 322
SWIDTH 296 0
DWIDTH 10 0
BBX 11 23 -1 0
BITMAP
0C00
0C00
0C00
0C00
0C00
0C00
0C00
0C00
0CC0
0FC0
0F80
1E00
7C00
EC00
0C00
0C00
0C00
0C00
0C00
0E00
0E00
07E0
03C0
ENDCHAR
STARTCHAR Nacute
ENCODING 323
SWIDTH 740 0
DWIDTH 24 0
BBX 19 31 3 0
BITMAP
000C00
001C00
003800
003000
006000
004000
000000
000000
C000C0
E000E0
F000E0
F800E0
F800E0
DC00E0
CE00E0
C700E0
C700E0
C380E0
C1C0E0
C0E0E0
C0E0E0
C070E0
C038E0
C01CE0
C00EE0
C00EE0
C007E0
C003E0
C001E0
C001E0
C000C0
ENDCHAR
STARTCHAR nacute
ENCODING 324
SWIDTH 568 0
DWIDTH 19 0
BBX 13 25 3 0
BITMAP
0060
00E0
00C0
01C0
0180
0300
0300
0000
0000
C7C0
DFF0
F878
E038
E038
C018
C018
C018
C018
C018
C018
C018
C018
C018
C018
C018
ENDCHAR
STARTCHAR uni0145
ENCODING 325
SWIDTH 740 0
DWIDTH 24 0
BBX 19 31 3 -8
BITMAP
C000C0
E000E0
F000E0
F800E0
F800E0
DC00E0
CE00E0
C700E0
C700E0
C380E0
C1C0E0
C0E0E0
C0E0E0
C070E0
C038E0
C01CE0
C00EE0
C00EE0
C007E0
C003E0
C001E0
C001E0
C000C0
000000
000000
00C000
01E000
00E000
006000
004000
00C000
ENDCHAR
STARTCHAR uni0146
ENCODING 326
SWIDTH 568 0
DWIDTH 19 0
BBX 13 24 3 -8
BITMAP
C7C0
DFF0
F878
E038
E038
C018
C018
C018
C018
C018
C018
C018
C018
C018
C018
C018
0000
0000
0700
0700
0700
0300
0300
0600
ENDCHAR
STARTCHAR Ncaron
ENCODING 327
SWIDTH 740 0
DWIDTH 24 0
BBX 19 30 3 0
BITMAP
0C0C00
061800
033800
03B000
01E000
00E000
000000
C000C0
E000E0
F000E0
F800E0
F800E0
DC00E0
CE00E0
C700E0
C700E0
C380E0
C1C0E0
C0E0E0
C0E0E0
C070E0
C038E0
C01CE0
C00EE0
C00EE0
C007E0
C003E0
C001E0
C001E0
C000C0
ENDCHAR
STARTCHAR ncaron
ENCODING 328
SWIDTH 568 0
DWIDTH 19 0
BBX 13 24 3 0
BITMAP
3060
30C0
18C0
1D80
0D80
0700
0700
0000
C7C0
DFF0
F878
E038
E038
C018
C018
C018
C018
C018
C018
C018
C018
C018
C018
C018
ENDCHAR
STARTCHAR napostrophe
ENCODING 329
SWIDTH 568 0
DWIDTH 19 0
BBX 17 25 -1 0
BITMAP
600000
F00000
700000
300000
200000
600000
000000
000000
000000
0C7C00
0DFF00
0F8780
0E0380
0E0380
0C0180
0C0180
0C0180
0C0180
0C0180
0C0180
0C0180
0C0180
0C0180
0C0180
0C0180
ENDCHAR
STARTCHAR Eng
ENCODING 330
SWIDTH 740 0
DWIDTH 24 0
BBX 19 29 3 -6
BITMAP
C000C0
E000E0
F000E0
F800E0
F800E0
DC00E0
CE00E0
C700E0
C700E0
C380E0
C1C0E0
C0E0E0
C060E0
C070E0
C038E0
C01CE0
C00EE0
C00EE0
C007E0
C003E0
C001E0
C001E0
C000E0
0000E0
0000C0
0001C0
0003C0
001F80
000F00
ENDCHAR
STARTCHAR eng
ENCODING 331
SWIDTH 568 0
DWIDTH 19 0
BBX 13 22 3 -6
BITMAP
C7C0
DFF0
F878
E038
E038
C018
C018
C018
C018
C018
C018
C018
C018
C018
C018
C018
0018
0018
0038
0078
03F0
03C0
ENDCHAR
STARTCHAR Omacron
ENCODING 332
SWIDTH 767 0
DWIDTH 25 0
BBX 21 28 2 0
BITMAP
07FF00
07FF00
000000
000000
000000
01FC00
07FF00
1F07C0
3C01E0
3800F0
700070
700038
E00038
E00038
E00038
E00038
E00038
E00038
E00038
E00038
E00038
700030
700070
3800E0
1C01E0
0F07C0
07FF00
01FC00
ENDCHAR
STARTCHAR omacron
ENCODING 333
SWIDTH 556 0
DWIDTH 18 0
BBX 15 22 2 0
BITMAP
3FF0
3FF0
0000
0000
0000
0000
0FC0
3FF0
7878
701C
E01C
E00E
C00E
C00E
C00E
C00E
E00E
E01C
701C
7878
3FF0
0FC0
ENDCHAR
STARTCHAR Obreve
ENCODING 334
SWIDTH 767 0
DWIDTH 25 0
BBX 21 31 2 0
BITMAP
040100
060300
060300
038E00
01FE00
00F800
000000
000000
01FC00
07FF00
1F07C0
3C01E0
3800F0
700070
700038
E00038
E00038
E00038
E00038
E00038
E00038
E00038
E00038
E00038
700030
700070
3800E0
1C01E0
0F07C0
07FF00
01FC00
ENDCHAR
STARTCHAR obreve
ENCODING 335
SWIDTH 556 0
DWIDTH 18 0
BBX 15 25 2 0
BITMAP
2010
3030
3030
1830
1C60
0FE0
0780
0000
0000
0FC0
3FF0
7878
701C
E01C
E00E
C00E
C00E
C00E
C00E
E00E
E01C
701C
7878
3FF0
0FC0
ENDCHAR
STARTCHAR Ohungarumlaut
ENCODING 336
SWIDTH 767 0
DWIDTH 25 0
BBX 21 31 2 0
BITMAP
003980
003380
007300
006600
00C400
00CC00
000000
000000
01FC00
07FF00
1F07C0
3C01E0
3800F0
700070
700038
E00038
E00038
E00038
E00038
E00038
E00038
E00038
E00038
E00038
700030
700070
3800E0
1C01E0
0F07C0
07FF00
01FC00
ENDCHAR
STARTCHAR ohungarumlaut
ENCODING 337
SWIDTH 556 0
DWIDTH 18 0
BBX 15 25 2 0
BITMAP
0330
0330
0730
0660
0660
0460
0C40
0000
0000
0FC0
3FF0
7878
701C
E01C
E00E
C00E
C00E
C00E
C00E
E00E
E01C
701C
7878
3FF0
0FC0
ENDCHAR
STARTCHAR OE
ENCODING 338
SWIDTH 1046 0
DWIDTH 35 0
BBX 31 23 2 0
BITMAP
00FFFFFE
07FFFFFE
0F80E000
1C00E000
3800E000
7000E000
7000E000
E000E000
E000E000
E000E000
E000FFFC
E000FFFC
E000E000
E000E000
E000E000
E000E000
7000E000
7000E000
3800E000
1C00E000
0F80E000
07FFFFFE
01FFFFFE
ENDCHAR
STARTCHAR oe
ENCODING 339
SWIDTH 910 0
DWIDTH 30 0
BBX 27 16 2 0
BITMAP
0FC07E00
3FF1FF00
787BC380
701B01C0
E01F00C0
E00E00C0
C00E00E0
C00FFFE0
C00FFFE0
C00E0000
E00E0000
E01E0000
701F0040
787BC1C0
3FF1FFC0
0FC07E00
ENDCHAR
STARTCHAR Racute
ENCODING 340
SWIDTH 669 0
DWIDTH 22 0
BBX 17 31 3 0
BITMAP
001800
003800
007000
006000
00C000
00C000
000000
000000
FFF800
FFFE00
E01F00
E00700
E00380
E00380
E00380
E00380
E00380
E00700
E00F00
FFFE00
FFF800
E07800
E01C00
E01C00
E00E00
E00E00
E00700
E00700
E00380
E00380
C00180
ENDCHAR
STARTCHAR racute
ENCODING 341
SWIDTH 358 0
DWIDTH 12 0
BBX 9 25 3 0
BITMAP
0380
0300
0700
0600
0E00
0C00
0800
0000
0000
C700
DF80
FC00
F000
E000
C000
C000
C000
C000
C000
C000
C000
C000
C000
C000
C000
ENDCHAR
STARTCHAR uni0156
ENCODING 342
SWIDTH 669 0
DWIDTH 22 0
BBX 17 31 3 -8
BITMAP
FFF800
FFFE00
E01F00
E00700
E00380
E00380
E00380
E00380
E00380
E00700
E00F00
FFFE00
FFF800
E07800
E01C00
E01C00
E00E00
E00E00
E00700
E00700
E00380
E00380
C00180
000000
000000
01C000
01C000
01C000
00C000
008000
018000
ENDCHAR
STARTCHAR uni0157
ENCODING 343
SWIDTH 358 0
DWIDTH 12 0
BBX 10 24 2 -8
BITMAP
6380
6FC0
7E00
7800
7000
6000
6000
6000
6000
6000
6000
6000
6000
6000
6000
6000
0000
0000
E000
F000
E000
2000
6000
4000
ENDCHAR
STARTCHAR Rcaron
ENCODING 344
SWIDTH 669 0
DWIDTH 22 0
BBX 17 30 3 0
BITMAP
181800
0C3800
067000
076000
03C000
01C000
000000
FFF800
FFFE00
E01F00
E00700
E00380
E00380
E00380
E00380
E00380
E00700
E00F00
FFFE00
FFF800
E07800
E01C00
E01C00
E00E00
E00E00
E00700
E00700
E00380
E00380
C00180
ENDCHAR
STARTCHAR rcaron
ENCODING 345
SWIDTH 358 0
DWIDTH 12 0
BBX 9 24 3 0
BITMAP
8180
C300
6300
6600
3E00
3C00
1800
0000
C700
DF80
FC00
F000
E000
C000
C000
C000
C000
C000
C000
C000
C000
C000
C000
C000
ENDCHAR
STARTCHAR Sacute
ENCODING 346
SWIDTH 615 0
DWIDTH 20 0
BBX 17 31 2 0
BITMAP
001800
003800
003000
006000
00C000
00C000
000000
000000
07F000
1FFE00
3C1F00
700300
E00000
E00000
E00000
E00000
F00000
780000
3F8000
1FF800
07FE00
003F00
000780
000380
000380
000380
000380
C00700
F81E00
7FFC00
0FF000
ENDCHAR
STARTCHAR sacute
ENCODING 347
SWIDTH 481 0
DWIDTH 16 0
BBX 12 25 2 0
BITMAP
00E0
00E0
01C0
0180
0380
0300
0200
0000
0000
1F80
7FE0
7070
E010
E000
E000
7000
7F00
0FE0
00F0
0070
0030
8070
E0F0
FFE0
3F80
ENDCHAR
STARTCHAR Scircumflex
ENCODING 348
SWIDTH 615 0
DWIDTH 20 0
BBX 17 31 2 0
BITMAP
01C000
03E000
036000
063000
0C3800
081800
000000
000000
07F000
1FFE00
3C1F00
700300
E00000
E00000
E00000
E00000
F00000
780000
3F8000
1FF800
07FE00
003F00
000780
000380
000380
000380
000380
C00700
F81E00
7FFC00
0FF000
ENDCHAR
STARTCHAR scircumflex
ENCODING 349
SWIDTH 481 0
DWIDTH 16 0
BBX 12 25 2 0
BITMAP
0600
0F00
0F80
1980
18C0
30C0
3060
0000
0000
1F80
7FE0
7070
E010
E000
E000
7000
7F00
0FE0
00F0
0070
0030
8070
E0F0
FFE0
3F80
ENDCHAR
STARTCHAR Scedilla
ENCODING 350
SWIDTH 615 0
DWIDTH 20 0
BBX 17 29 2 -6
BITMAP
07F000
1FFE00
3C1F00
700300
E00000
E00000
E00000
E00000
F00000
780000
3F8000
1FF800
07FE00
003F00
000780
000380
000380
000380
000380
C00700
F81E00
7FFC00
0FF000
018000
01E000
003000
003000
03F000
03E000
ENDCHAR
STARTCHAR scedilla
ENCODING 351
SWIDTH 481 0
DWIDTH 16 0
BBX 12 22 2 -6
BITMAP
1F80
7FE0
7070
E010
E000
E000
7000
7F00
0FE0
00F0
0070
0030
8070
E0F0
FFE0
3F80
0400
0780
00C0
00C0
1F80
1F00
ENDCHAR
STARTCHAR Scaron
ENCODING 352
SWIDTH 615 0
DWIDTH 20 0
BBX 17 30 2 0
BITMAP
081800
0C3800
063000
076000
03E000
01C000
000000
07F000
1FFE00
3C1F00
700300
E00000
E00000
E00000
E00000
F00000
780000
3F8000
1FF800
07FE00
003F00
000780
000380
000380
000380
000380
C00700
F81E00
7FFC00
0FF000
ENDCHAR
STARTCHAR scaron
ENCODING 353
SWIDTH 481 0
DWIDTH 16 0
BBX 12 24 2 0
BITMAP
3060
30C0
18C0
1980
0F80
0F00
0600
0000
1F80
7FE0
7070
E010
E000
E000
7000
7F00
0FE0
00F0
0070
0030
8070
E0F0
FFE0
3F80
ENDCHAR
STARTCHAR uni0162
ENCODING 354
SWIDTH 602 0
DWIDTH 20 0
BBX 20 29 0 -6
BITMAP
FFFFF0
FFFFF0
006000
006000
006000
006000
006000
006000
006000
006000
006000
006000
006000
006000
006000
006000
006000
006000
006000
006000
006000
006000
006000
004000
007800
000C00
000C00
01F800
01F000
ENDCHAR
STARTCHAR uni0163
ENCODING 355
SWIDTH 350 0
DWIDTH 12 0
BBX 12 27 0 -6
BITMAP
1C00
1C00
1C00
1C00
1C00
FFE0
FFE0
1C00
1C00
1C00
1C00
1C00
1C00
1C00
1C00
1C00
1C00
0C00
0E00
07F0
03E0
0300
03C0
0060
0060
0FE0
07C0
ENDCHAR
STARTCHAR Tcaron
ENCODING 356
SWIDTH 602 0
DWIDTH 20 0
BBX 20 30 0 0
BITMAP
060600
030C00
039C00
01F800
00F000
006000
000000
FFFFF0
FFFFF0
006000
006000
006000
006000
006000
006000
006000
006000
006000
006000
006000
006000
006000
006000
006000
006000
006000
006000
006000
006000
006000
ENDCHAR
STARTCHAR tcaron
ENCODING 357
SWIDTH 350 0
DWIDTH 12 0
BBX 12 23 0 0
BITMAP
00C0
00C0
1CC0
1CC0
1CC0
1CC0
1C00
FFE0
FFE0
1C00
1C00
1C00
1C00
1C00
1C00
1C00
1C00
1C00
1C00
0C00
0E00
07F0
03E0
ENDCHAR
STARTCHAR Tbar
ENCODING 358
SWIDTH 602 0
DWIDTH 20 0
BBX 20 23 0 0
BITMAP
FFFFF0
FFFFF0
006000
006000
006000
006000
006000
006000
006000
006000
0FFF00
0FFF00
006000
006000
006000
006000
006000
006000
006000
006000
006000
006000
006000
ENDCHAR
STARTCHAR tbar
ENCODING 359
SWIDTH 350 0
DWIDTH 12 0
BBX 12 21 0 0
BITMAP
1C00
1C00
1C00
1C00
1C00
FFE0
FFE0
1C00
1C00
1C00
1C00
7FC0
7FC0
1C00
1C00
1C00
1C00
0C00
0E00
07F0
03E0
ENDCHAR
STARTCHAR Utilde
ENCODING 360
SWIDTH 728 0
DWIDTH 24 0
BBX 18 30 3 0
BITMAP
0F0300
1F8300
19E600
307E00
303C00
000000
000000
C000C0
C000C0
C000C0
C000C0
C000C0
C000C0
C000C0
C000C0
C000C0
C000C0
C000C0
C000C0
C000C0
C000C0
C000C0
E001C0
E001C0
E001C0
700380
700380
3E0F00
1FFE00
07F800
ENDCHAR
STARTCHAR utilde
ENCODING 361
SWIDTH 561 0
DWIDTH 19 0
BBX 14 24 2 0
BITMAP
1C08
3E18
3398
61F0
60E0
0000
0000
0000
600C
E01C
E01C
E01C
E01C
E01C
E01C
E01C
E01C
E01C
E01C
601C
703C
787C
3FDC
1F8C
ENDCHAR
STARTCHAR Umacron
ENCODING 362
SWIDTH 728 0
DWIDTH 24 0
BBX 18 28 3 0
BITMAP
0FFE00
0FFC00
000000
000000
000000
C000C0
C000C0
C000C0
C000C0
C000C0
C000C0
C000C0
C000C0
C000C0
C000C0
C000C0
C000C0
C000C0
C000C0
C000C0
E001C0
E001C0
E001C0
700380
700380
3E0F00
1FFE00
07F800
ENDCHAR
STARTCHAR umacron
ENCODING 363
SWIDTH 561 0
DWIDTH 19 0
BBX 14 22 2 0
BITMAP
3FF0
3FF0
0000
0000
0000
0000
600C
E01C
E01C
E01C
E01C
E01C
E01C
E01C
E01C
E01C
E01C
601C
703C
787C
3FDC
1F8C
ENDCHAR
STARTCHAR Ubreve
ENCODING 364
SWIDTH 728 0
DWIDTH 24 0
BBX 18 31 3 0
BITMAP
080400
080600
0C0C00
0E1C00
07F800
01E000
000000
000000
C000C0
C000C0
C000C0
C000C0
C000C0
C000C0
C000C0
C000C0
C000C0
C000C0
C000C0
C000C0
C000C0
C000C0
C000C0
E001C0
E001C0
E001C0
700380
700380
3E0F00
1FFE00
07F800
ENDCHAR
STARTCHAR ubreve
ENCODING 365
SWIDTH 561 0
DWIDTH 19 0
BBX 14 25 2 0
BITMAP
1010
3010
3030
1830
1C60
0FE0
0780
0000
0000
600C
E01C
E01C
E01C
E01C
E01C
E01C
E01C
E01C
E01C
E01C
601C
703C
787C
3FDC
1F8C
ENDCHAR
STARTCHAR Uring
ENCODING 366
SWIDTH 728 0
DWIDTH 24 0
BBX 18 32 3 0
BITMAP
01E000
033000
061800
061800
061800
031000
01E000
000000
000000
C000C0
C000C0
C000C0
C000C0
C000C0
C000C0
C000C0
C000C0
C000C0
C000C0
C000C0
C000C0
C000C0
C000C0
C000C0
E001C0
E001C0
E001C0
700380
700380
3E0F00
1FFE00
07F800
ENDCHAR
STARTCHAR uring
ENCODING 367
SWIDTH 561 0
DWIDTH 19 0
BBX 14 25 2 0
BITMAP
0780
0CC0
0860
1820
1860
0C60
07C0
0000
0000
600C
E01C
E01C
E01C
E01C
E01C
E01C
E01C
E01C
E01C
E01C
601C
703C
787C
3FDC
1F8C
ENDCHAR
STARTCHAR Uhungarumlaut
ENCODING 368
SWIDTH 728 0
DWIDTH 24 0
BBX 18 31 3 0
BITMAP
006600
00E600
00CC00
018C00
019800
031000
000000
000000
C000C0
C000C0
C000C0
C000C0
C000C0
C000C0
C000C0
C000C0
C000C0
C000C0
C000C0
C000C0
C000C0
C000C0
C000C0
E001C0
E001C0
E001C0
700380
700380
3E0F00
1FFE00
07F800
ENDCHAR
STARTCHAR uhungarumlaut
ENCODING 369
SWIDTH 561 0
DWIDTH 19 0
BBX 14 25 2 0
BITMAP
0338
0330
0330
0660
0660
0460
0C40
0000
0000
600C
E01C
E01C
E01C
E01C
E01C
E01C
E01C
E01C
E01C
E01C
601C
703C
787C
3FDC
1F8C
ENDCHAR
STARTCHAR Uogonek
ENCODING 370
SWIDTH 728 0
DWIDTH 24 0
BBX 18 29 3 -6
BITMAP
C000C0
C000C0
C000C0
C000C0
C000C0
C000C0
C000C0
C000C0
C000C0
C000C0
C000C0
C000C0
C000C0
C000C0
C000C0
E001C0
E001C0
E001C0
700380
700380
3E0F00
1FFE00
07F800
018000
018000
018000
018000
01F800
00F000
ENDCHAR
STARTCHAR uogonek
ENCODING 371
SWIDTH 561 0
DWIDTH 19 0
BBX 15 22 2 -6
BITMAP
600C
E01C
E01C
E01C
E01C
E01C
E01C
E01C
E01C
E01C
E01C
601C
703C
787C
3FDC
1F98
0030
0020
0060
0070
003E
001E
ENDCHAR
STARTCHAR Wcircumflex
ENCODING 372
SWIDTH 1101 0
DWIDTH 36 0
BBX 34 31 1 0
BITMAP
0000E00000
0001E00000
0003B00000
0003380000
0006180000
000C0C0000
0000000000
0000000000
6000C000C0
E000E001C0
7001E001C0
7001E00180
3001F00380
3803B00300
3803380700
1803380700
1C07180600
1C061C0E00
0C0E1C0E00
0E0E0C0C00
0E0C0E1C00
061C0E1C00
071C061800
0318073800
03B8033000
03B0033000
01B003F000
01F001E000
01E001E000
00E001E000
00C000C000
ENDCHAR
STARTCHAR wcircumflex
ENCODING 373
SWIDTH 841 0
DWIDTH 28 0
BBX 25 25 1 0
BITMAP
000C0000
001E0000
003E0000
00330000
00630000
00618000
00C08000
00000000
00000000
E00C0180
E01E0180
601E0380
701E0380
703F0300
38330700
38730700
18638600
1C618E00
1CE18C00
0CC1CC00
0EC0DC00
07C0F800
07807800
07807800
03007000
ENDCHAR
STARTCHAR Ycircumflex
ENCODING 374
SWIDTH 596 0
DWIDTH 20 0
BBX 19 31 0 0
BITMAP
00E000
00F000
01B800
039800
030C00
060600
000000
000000
600060
F000E0
7001C0
3801C0
1C0380
1E0700
0E0E00
070E00
039C00
01F800
01F000
00F000
00E000
00E000
00E000
00E000
00E000
00E000
00E000
00E000
00E000
00E000
006000
ENDCHAR
STARTCHAR ycircumflex
ENCODING 375
SWIDTH 514 0
DWIDTH 17 0
BBX 15 31 1 -6
BITMAP
0380
0380
06C0
06C0
0C60
1830
1830
0000
0000
C006
E00E
E00E
700C
701C
3018
3838
3830
1C70
1C70
0E60
0EE0
06C0
07C0
0380
0380
0380
0700
0700
0E00
0E00
0C00
ENDCHAR
STARTCHAR Ydieresis
ENCODING 376
SWIDTH 596 0
DWIDTH 20 0
BBX 19 29 0 0
BITMAP
031C00
079C00
031C00
000000
000000
000000
600060
F000E0
7001C0
3801C0
1C0380
1E0700
0E0E00
070E00
039C00
01F800
01F000
00F000
00E000
00E000
00E000
00E000
00E000
00E000
00E000
00E000
00E000
00E000
006000
ENDCHAR
STARTCHAR Zacute
ENCODING 377
SWIDTH 589 0
DWIDTH 19 0
BBX 18 31 1 0
BITMAP
000C00
001C00
003800
003000
006000
004000
000000
000000
FFFF80
FFFF80
000380
000700
000F00
000E00
001C00
003800
007800
007000
00E000
01E000
01C000
038000
070000
0F0000
0E0000
1C0000
3C0000
380000
700000
FFFFC0
7FFFC0
ENDCHAR
STARTCHAR zacute
ENCODING 378
SWIDTH 463 0
DWIDTH 15 0
BBX 13 25 2 0
BITMAP
00C0
00C0
01C0
0180
0300
0300
0600
0000
0000
FFF0
FFF0
0060
00E0
01C0
0380
0300
0700
0E00
1C00
1800
3800
7000
E000
FFF8
FFF0
ENDCHAR
STARTCHAR Zdotaccent
ENCODING 379
SWIDTH 589 0
DWIDTH 19 0
BBX 18 29 1 0
BITMAP
00C000
01E000
00C000
000000
000000
000000
FFFF80
FFFF80
000380
000700
000F00
000E00
001C00
003800
007800
007000
00E000
01E000
01C000
038000
070000
0F0000
0E0000
1C0000
3C0000
380000
700000
FFFFC0
7FFFC0
ENDCHAR
STARTCHAR zdotaccent
ENCODING 380
SWIDTH 463 0
DWIDTH 15 0
BBX 13 23 2 0
BITMAP
0600
0F00
0600
0000
0000
0000
0000
FFF0
FFF0
0060
00E0
01C0
0380
0300
0700
0E00
1C00
1800
3800
7000
E000
FFF8
FFF0
ENDCHAR
STARTCHAR Zcaron
ENCODING 381
SWIDTH 589 0
DWIDTH 19 0
BBX 18 30 1 0
BITMAP
0C0C00
061800
033800
03F000
01E000
00C000
000000
FFFF80
FFFF80
000380
000700
000F00
000E00
001C00
003800
007800
007000
00E000
01E000
01C000
038000
070000
0F0000
0E0000
1C0000
3C0000
380000
700000
FFFFC0
7FFFC0
ENDCHAR
STARTCHAR zcaron
ENCODING 382
SWIDTH 463 0
DWIDTH 15 0
BBX 13 24 2 0
BITMAP
6040
30C0
3180
1980
1F00
0F00
0600
0000
FFF0
FFF0
0060
00E0
01C0
0380
0300
0700
0E00
1C00
1800
3800
7000
E000
FFF8
FFF0
ENDCHAR
STARTCHAR uni0181
ENCODING 385
SWIDTH 800 0
DWIDTH 26 0
BBX 24 23 0 0
BITMAP
1FFFF0
7FFFFC
71C01E
E1C00E
C1C007
C1C007
C1C007
01C007
01C00E
01C01C
01FFF8
01FFFC
01C01E
01C007
01C007
01C003
01C003
01C003
01C007
01C007
01C01E
01FFFC
01FFF0
ENDCHAR
STARTCHAR uni018A
ENCODING 394
SWIDTH 867 0
DWIDTH 29 0
BBX 27 23 0 0
BITMAP
1FFFE000
7FFFFC00
71C03E00
E1C00F00
C1C00780
C1C00380
C1C001C0
01C001C0
01C001C0
01C000C0
01C000E0
01C000E0
01C000E0
01C000C0
01C001C0
01C001C0
01C001C0
01C00380
01C00780
01C00F00
01C03E00
01FFF800
01FFE000
ENDCHAR
STARTCHAR uni018F
ENCODING 399
SWIDTH 767 0
DWIDTH 25 0
BBX 21 23 2 0
BITMAP
03FC00
1FFF00
7C07C0
7001E0
0000E0
000070
000030
000038
000038
000038
FFFFF8
FFFFF8
E00038
E00038
E00038
600038
700070
700070
3800F0
3C01E0
1F07C0
07FF80
01FC00
ENDCHAR
STARTCHAR florin
ENCODING 402
SWIDTH 600 0
DWIDTH 20 0
BBX 18 29 1 -6
BITMAP
000780
001FC0
001C00
003800
003000
007000
007000
07FF00
0FFF00
006000
00E000
00E000
00E000
00C000
00C000
01C000
01C000
01C000
018000
038000
038000
038000
030000
030000
070000
070000
0E0000
FC0000
F80000
ENDCHAR
STARTCHAR Ohorn
ENCODING 416
SWIDTH 767 0
DWIDTH 25 0
BBX 21 27 2 0
BITMAP
000018
000018
000018
000038
01FFF0
07FFE0
1F07C0
3C01E0
3800F0
700070
700038
E00038
E00038
E00038
E00038
E00038
E00038
E00038
E00038
E00038
700030
700070
3800E0
1C01E0
0F07C0
07FF00
01FC00
ENDCHAR
STARTCHAR ohorn
ENCODING 417
SWIDTH 556 0
DWIDTH 18 0
BBX 15 21 2 0
BITMAP
0004
0006
000E
000E
001C
0FF8
3FF0
7878
701C
E01C
E00E
C00E
C00E
C00E
C00E
E00E
E01C
701C
7878
3FF0
0FC0
ENDCHAR
STARTCHAR Uhorn
ENCODING 431
SWIDTH 728 0
DWIDTH 24 0
BBX 22 27 3 0
BITMAP
00000C
00000C
00001C
00001C
C000F8
C000F0
C000C0
C000C0
C000C0
C000C0
C000C0
C000C0
C000C0
C000C0
C000C0
C000C0
C000C0
C000C0
C000C0
E001C0
E001C0
E001C0
700380
700380
3E0F00
1FFE00
07F800
ENDCHAR
STARTCHAR uhorn
ENCODING 432
SWIDTH 561 0
DWIDTH 19 0
BBX 18 21 2 0
BITMAP
000080
0001C0
0001C0
0001C0
000380
601F80
E01E00
E01C00
E01C00
E01C00
E01C00
E01C00
E01C00
E01C00
E01C00
E01C00
601C00
703C00
787C00
3FDC00
1F8C00
ENDCHAR
STARTCHAR uni01B3
ENCODING 435
SWIDTH 613 0
DWIDTH 20 0
BBX 22 23 0 0
BITMAP
60003C
F000FC
7001E0
3803C0
1C0380
1E0700
0E0E00
070E00
039C00
01F800
01F000
00F000
00E000
00E000
00E000
00E000
00E000
00E000
00E000
00E000
00E000
00E000
006000
ENDCHAR
STARTCHAR uni01B4
ENCODING 436
SWIDTH 551 0
DWIDTH 18 0
BBX 19 22 1 -6
BITMAP
C003C0
E007E0
E00E00
700C00
701C00
301800
383800
183000
1C7000
1C7000
0E6000
0EE000
06C000
07C000
038000
038000
038000
070000
070000
0E0000
0E0000
0C0000
ENDCHAR
STARTCHAR uni01C4
ENCODING 452
SWIDTH 1316 0
DWIDTH 43 0
BBX 40 30 3 0
BITMAP
0000003030
0000001860
0000000CE0
0000000FC0
0000000780
0000000300
0000000000
FFF003FFFE
FFFC03FFFE
E01F00000E
E00780001C
E003C00038
E001C00038
E000E00070
E000E000E0
E000E001E0
E0006001C0
E000600380
E000700780
E000600700
E000E00E00
E000E01C00
E000E03C00
E000E03800
E001C07000
E003C0F000
E00780E000
E01F01C000
FFFC03FFFF
FFF001FFFF
ENDCHAR
STARTCHAR uni01C5
ENCODING 453
SWIDTH 1206 0
DWIDTH 40 0
BBX 36 24 3 0
BITMAP
00000060C0
FFF0006180
FFFC003180
E01F003B00
E007801B00
E003C00E00
E001C00E00
E000E00000
E000E1FFE0
E000E1FFF0
E0006000E0
E0006001C0
E000700180
E000600380
E000E00700
E000E00E00
E000E00C00
E000E01C00
E001C03800
E003C07000
E007806000
E01F00E000
FFFC01FFF0
FFF001FFF0
ENDCHAR
STARTCHAR uni01C6
ENCODING 454
SWIDTH 1046 0
DWIDTH 35 0
BBX 32 24 2 0
BITMAP
0000040C
000C0618
000E0318
000E0330
000E01F0
000E01E0
000E00C0
000E0000
0F8E1FFE
3FEE1FFE
787E000E
F01E001C
E01E0038
E00E0030
C00E0070
C00E00E0
C00E01C0
C00E0180
E00E0380
E01E0700
701E0E00
787E0C00
3FEE1FFF
0F8C1FFF
ENDCHAR
STARTCHAR uni01C7
ENCODING 455
SWIDTH 907 0
DWIDTH 30 0
BBX 24 23 3 0
BITMAP
C00003
E00007
E00007
E00007
E00007
E00007
E00007
E00007
E00007
E00007
E00007
E00007
E00007
E00007
E00007
E00007
E00007
E00007
E00007
E00007
E0001E
FFFEFE
FFFEF8
ENDCHAR
STARTCHAR uni01C8
ENCODING 456
SWIDTH 779 0
DWIDTH 26 0
BBX 21 29 3 -6
BITMAP
C00070
E00078
E00070
E00000
E00000
E00000
E00000
E00030
E00030
E00030
E00030
E00030
E00030
E00030
E00030
E00030
E00030
E00030
E00030
E00030
E00030
FFFE30
FFFE30
000030
000070
000070
0000F0
0007E0
000780
ENDCHAR
STARTCHAR uni01C9
ENCODING 457
SWIDTH 531 0
DWIDTH 18 0
BBX 12 29 3 -6
BITMAP
C070
C070
C070
C000
C000
C000
C000
C030
C070
C070
C070
C070
C070
C070
C070
C070
C070
C070
C070
E070
E070
7E70
3C70
0070
0070
0070
00E0
07E0
0780
ENDCHAR
STARTCHAR uni01CA
ENCODING 458
SWIDTH 1063 0
DWIDTH 35 0
BBX 29 23 3 0
BITMAP
C000C018
E000E018
F000E018
F800E018
F800E018
DC00E018
CE00E018
C700E018
C700E018
C380E018
C1C0E018
C0E0E018
C0E0E018
C070E018
C038E018
C01CE018
C00EE018
C00EE038
C007E038
C003E038
C001E070
C001E7F0
C000C7C0
ENDCHAR
STARTCHAR uni01CB
ENCODING 459
SWIDTH 975 0
DWIDTH 32 0
BBX 27 29 3 -6
BITMAP
C000C0E0
E000E0E0
F000E0E0
F800E000
F800E000
DC00E000
CE00E000
C700E0C0
C700E0E0
C380E0E0
C1C0E0E0
C0E0E0E0
C0E0E0E0
C070E0E0
C038E0E0
C01CE0E0
C00EE0E0
C00EE0E0
C007E0E0
C003E0E0
C001E0E0
C001E0E0
C000C0E0
000000E0
000000E0
000000C0
000003C0
00000F80
00000F00
ENDCHAR
STARTCHAR uni01CC
ENCODING 460
SWIDTH 804 0
DWIDTH 27 0
BBX 21 29 3 -6
BITMAP
000038
000038
000038
000000
000000
000000
000000
C7C018
DFF038
F87838
E03838
E03838
C01838
C01838
C01838
C01838
C01838
C01838
C01838
C01838
C01838
C01838
C01838
000038
000038
000038
000070
0003F0
0003C0
ENDCHAR
STARTCHAR uni01CD
ENCODING 461
SWIDTH 729 0
DWIDTH 24 0
BBX 22 30 1 0
BITMAP
030300
018600
00CE00
00FC00
007800
003000
000000
003000
007800
007800
00FC00
00CC00
01CE00
018600
018700
038700
030300
070380
060180
0E01C0
0E00C0
1C00E0
1FFFE0
3FFFF0
380070
300038
700038
600018
E0001C
C0000C
ENDCHAR
STARTCHAR uni01CE
ENCODING 462
SWIDTH 530 0
DWIDTH 17 0
BBX 13 24 2 0
BITMAP
3020
1860
1CC0
0CC0
0780
0780
0300
0000
0FC0
7FF0
7070
4038
0038
0038
1FF8
7FF8
F038
E038
E038
E038
E078
70D8
7F98
1F18
ENDCHAR
STARTCHAR uni01D4
ENCODING 468
SWIDTH 561 0
DWIDTH 19 0
BBX 14 24 2 0
BITMAP
1830
1860
0C60
0CC0
07C0
0780
0300
0000
600C
E01C
E01C
E01C
E01C
E01C
E01C
E01C
E01C
E01C
E01C
601C
703C
787C
3FDC
1F8C
ENDCHAR
STARTCHAR uni01E5
ENCODING 485
SWIDTH 586 0
DWIDTH 19 0
BBX 17 22 2 -6
BITMAP
0F8E00
3FEE00
787E00
F01E00
E01E00
C00E00
C00E00
C00E00
C00E00
C00E00
E01E00
F01E00
787E00
3FEE00
0F8E00
000E00
00FF80
00FF80
401C00
783C00
7FF800
0FE000
ENDCHAR
STARTCHAR Gcaron
ENCODING 486
SWIDTH 726 0
DWIDTH 24 0
BBX 19 30 2 0
BITMAP
030300
018600
01CC00
00FC00
007800
003000
000000
01FE00
07FFC0
0F03E0
1C00E0
380000
700000
700000
E00000
E00000
E00000
E00000
E01FE0
E01FE0
E00060
E00060
E00060
700060
700060
380060
1C0060
0F81E0
07FFE0
01FF00
ENDCHAR
STARTCHAR gcaron
ENCODING 487
SWIDTH 586 0
DWIDTH 19 0
BBX 15 30 2 -6
BITMAP
1830
0C30
0C60
0660
07C0
03C0
0180
0000
0F8E
3FEE
787E
701E
E01E
E00E
C00E
C00E
C00E
C00E
E00E
E01E
701E
787E
3FEE
0F8E
000E
000C
401C
783C
7FF8
0FE0
ENDCHAR
STARTCHAR uni01E9
ENCODING 489
SWIDTH 500 0
DWIDTH 17 0
BBX 13 30 3 0
BITMAP
3060
3060
18C0
0D80
0F80
0700
0000
C000
C000
C000
C000
C000
C000
C000
C070
C0F0
C1E0
C3C0
C780
CE00
DC00
F800
FC00
DE00
CF00
C380
C1C0
C0E0
C070
C038
ENDCHAR
STARTCHAR uni01EA
ENCODING 490
SWIDTH 767 0
DWIDTH 25 0
BBX 21 29 2 -6
BITMAP
01FC00
07FF00
1F07C0
3C01E0
3800F0
700070
700038
E00038
E00038
E00038
E00038
E00038
E00038
E00038
E00038
E00038
700030
700070
3800E0
1C01E0
0F07C0
07FF00
01FC00
006000
004000
00C000
00E000
007C00
003C00
ENDCHAR
STARTCHAR uni01EB
ENCODING 491
SWIDTH 556 0
DWIDTH 18 0
BBX 15 22 2 -6
BITMAP
0FC0
3FF0
7878
701C
E01C
E00E
C00E
C00E
C00E
C00E
E00E
E01C
701C
7878
3FF0
0FC0
0300
0600
0600
0700
07E0
03E0
ENDCHAR
STARTCHAR uni01EF
ENCODING 495
SWIDTH 495 0
DWIDTH 16 0
BBX 14 30 1 -6
BITMAP
3060
1860
18C0
0DC0
0D80
0780
0700
0000
FFF8
FFF8
0038
0070
00E0
01C0
0380
0700
0E00
1FE0
1FF0
0078
001C
001C
000C
000C
001C
001C
803C
E078
FFF0
3FC0
ENDCHAR
STARTCHAR Aringacute
ENCODING 506
SWIDTH 729 0
DWIDTH 24 0
BBX 22 34 1 0
BITMAP
000180
000380
007F00
00CC00
018600
018600
018600
00C400
007800
000000
000000
003000
007800
007800
00FC00
00CC00
01CE00
018600
018700
038700
030300
070380
060180
0E01C0
0E00C0
1C00E0
1FFFE0
3FFFF0
380070
300038
700038
600018
E0001C
C0000C
ENDCHAR
STARTCHAR aringacute
ENCODING 507
SWIDTH 530 0
DWIDTH 17 0
BBX 13 27 2 0
BITMAP
0018
0038
07F0
0CC0
1860
1860
1860
08C0
0780
0000
0000
0FC0
7FF0
7070
4038
0038
0038
1FF8
7FF8
F038
E038
E038
E038
E078
70D8
7F98
1F18
ENDCHAR
STARTCHAR AEacute
ENCODING 508
SWIDTH 981 0
DWIDTH 32 0
BBX 31 31 0 0
BITMAP
00001800
00003800
00007000
00006000
0000C000
00008000
00000000
00000000
0007FFFE
0007FFFE
000F8000
001F8000
00198000
00398000
0031C000
0071C000
00E0C000
00C0C000
01C0FFFC
0380FFFC
0380E000
07006000
07006000
0FFFF000
1FFFF000
1C007000
38003000
70003000
70003800
E0003FFE
E0001FFE
ENDCHAR
STARTCHAR aeacute
ENCODING 509
SWIDTH 861 0
DWIDTH 28 0
BBX 25 25 2 0
BITMAP
00030000
00070000
00060000
000E0000
000C0000
001C0000
00180000
00000000
00000000
0FC1F800
7FE3FE00
70770F00
403C0300
001C0380
00180180
1FFFFF80
7FFFFF80
F0180000
E0180000
C03C0000
E03C0000
E06E0100
70E70780
7FC3FF00
1F00FC00
ENDCHAR
STARTCHAR Oslashacute
ENCODING 510
SWIDTH 767 0
DWIDTH 25 0
BBX 21 32 2 -1
BITMAP
000700
000600
000C00
001C00
003800
003000
000040
0000E0
01FCC0
07FFC0
1F07C0
3C03E0
3807F0
700670
700E38
E00C38
E01C38
E01838
E03038
E07038
E06038
E0E038
E0C038
E18038
738030
730070
3F00E0
1E01E0
0F07C0
1FFF00
19FC00
180000
ENDCHAR
STARTCHAR oslashacute
ENCODING 511
SWIDTH 556 0
DWIDTH 18 0
BBX 15 26 2 -1
BITMAP
0070
0070
00E0
00C0
01C0
0180
0100
0000
0018
0FD8
3FF0
7878
707C
E0DC
E0CE
C18E
C38E
C30E
C60E
E60E
EC1C
7C1C
7878
3FF0
3FC0
6000
ENDCHAR
STARTCHAR uni0200
ENCODING 512
SWIDTH 729 0
DWIDTH 24 0
BBX 22 31 1 0
BITMAP
066000
077000
033000
019800
019800
008C00
000000
000000
003000
007800
007800
00FC00
00CC00
01CE00
018600
018700
038700
030300
070380
060180
0E01C0
0E00C0
1C00E0
1FFFE0
3FFFF0
380070
300038
700038
600018
E0001C
C0000C
ENDCHAR
STARTCHAR uni0201
ENCODING 513
SWIDTH 530 0
DWIDTH 17 0
BBX 13 25 2 0
BITMAP
3300
3300
3180
1980
1980
08C0
08C0
0000
0000
0FC0
7FF0
7070
4038
0038
0038
1FF8
7FF8
F038
E038
E038
E038
E078
70D8
7F98
1F18
ENDCHAR
STARTCHAR uni0202
ENCODING 514
SWIDTH 729 0
DWIDTH 24 0
BBX 22 31 1 0
BITMAP
007800
01FE00
018700
030300
030100
020180
000000
000000
003000
007800
007800
00FC00
00CC00
01CE00
018600
018700
038700
030300
070380
060180
0E01C0
0E00C0
1C00E0
1FFFE0
3FFFF0
380070
300038
700038
600018
E0001C
C0000C
ENDCHAR
STARTCHAR uni0203
ENCODING 515
SWIDTH 530 0
DWIDTH 17 0
BBX 13 24 2 0
BITMAP
0780
1FC0
1860
3030
3030
3030
0000
0000
0FC0
7FF0
7070
4038
0038
0038
1FF8
7FF8
F038
E038
E038
E038
E078
70D8
7F98
1F18
ENDCHAR
STARTCHAR uni0204
ENCODING 516
SWIDTH 583 0
DWIDTH 19 0
BBX 15 31 3 0
BITMAP
3300
3300
1980
1980
0CC0
0440
0000
0000
FFFE
FFFE
E000
E000
E000
E000
E000
E000
E000
E000
FFFC
FFFC
E000
E000
E000
E000
E000
E000
E000
E000
E000
FFFE
FFFE
ENDCHAR
STARTCHAR uni0205
ENCODING 517
SWIDTH 532 0
DWIDTH 18 0
BBX 14 25 2 0
BITMAP
3300
3380
1980
1980
1880
0CC0
0CC0
0000
0000
0FC0
3FF0
7878
7018
E01C
C00C
C00C
FFFC
FFFC
C000
C000
E000
700C
783C
3FF8
0FE0
ENDCHAR
STARTCHAR uni0206
ENCODING 518
SWIDTH 583 0
DWIDTH 19 0
BBX 15 31 3 0
BITMAP
07C0
0FE0
1C30
1818
3018
3008
0000
0000
FFFE
FFFE
E000
E000
E000
E000
E000
E000
E000
E000
FFFC
FFFC
E000
E000
E000
E000
E000
E000
E000
E000
E000
FFFE
FFFE
ENDCHAR
STARTCHAR uni0207
ENCODING 519
SWIDTH 532 0
DWIDTH 18 0
BBX 14 24 2 0
BITMAP
07C0
0FE0
1860
1830
3030
3010
0000
0000
0FC0
3FF0
7878
7018
E01C
C00C
C00C
FFFC
FFFC
C000
C000
E000
700C
783C
3FF8
0FE0
ENDCHAR
STARTCHAR uni0208
ENCODING 520
SWIDTH 257 0
DWIDTH 8 0
BBX 9 31 -2 0
BITMAP
CC00
E600
6600
3300
3100
1980
0000
0000
0600
0700
0700
0700
0700
0700
0700
0700
0700
0700
0700
0700
0700
0700
0700
0700
0700
0700
0700
0700
0700
0700
0600
ENDCHAR
STARTCHAR uni0209
ENCODING 521
SWIDTH 232 0
DWIDTH 8 0
BBX 8 25 -1 0
BITMAP
CC
CC
CE
66
66
62
23
00
00
0C
0C
0C
0C
0C
0C
0C
0C
0C
0C
0C
0C
0C
0C
0C
0C
ENDCHAR
STARTCHAR uni020A
ENCODING 522
SWIDTH 257 0
DWIDTH 8 0
BBX 11 31 -1 0
BITMAP
1F00
7F80
61C0
C0C0
C060
8060
0000
0000
0C00
0E00
0E00
0E00
0E00
0E00
0E00
0E00
0E00
0E00
0E00
0E00
0E00
0E00
0E00
0E00
0E00
0E00
0E00
0E00
0E00
0E00
0C00
ENDCHAR
STARTCHAR uni020B
ENCODING 523
SWIDTH 232 0
DWIDTH 8 0
BBX 10 24 -1 0
BITMAP
3E00
7F00
6180
C180
C0C0
C0C0
0000
0000
0C00
0C00
0C00
0C00
0C00
0C00
0C00
0C00
0C00
0C00
0C00
0C00
0C00
0C00
0C00
0C00
ENDCHAR
STARTCHAR uni020C
ENCODING 524
SWIDTH 767 0
DWIDTH 25 0
BBX 21 31 2 0
BITMAP
0E6000
066000
073000
033000
019800
008800
000000
000000
01FC00
07FF00
1F07C0
3C01E0
3800F0
700070
700038
E00038
E00038
E00038
E00038
E00038
E00038
E00038
E00038
E00038
700030
700070
3800E0
1C01E0
0F07C0
07FF00
01FC00
ENDCHAR
STARTCHAR uni020D
ENCODING 525
SWIDTH 556 0
DWIDTH 18 0
BBX 15 25 2 0
BITMAP
3300
3380
1980
1980
1880
0CC0
0CC0
0000
0000
0FC0
3FF0
7878
701C
E01C
E00E
C00E
C00E
C00E
C00E
E00E
E01C
701C
7878
3FF0
0FC0
ENDCHAR
STARTCHAR uni020E
ENCODING 526
SWIDTH 767 0
DWIDTH 25 0
BBX 21 31 2 0
BITMAP
00F800
01FC00
038600
030300
060300
060100
000000
000000
01FC00
07FF00
1F07C0
3C01E0
3800F0
700070
700038
E00038
E00038
E00038
E00038
E00038
E00038
E00038
E00038
E00038
700030
700070
3800E0
1C01E0
0F07C0
07FF00
01FC00
ENDCHAR
STARTCHAR uni020F
ENCODING 527
SWIDTH 556 0
DWIDTH 18 0
BBX 15 24 2 0
BITMAP
0780
0FE0
1860
1030
3030
3030
0000
0000
0FC0
3FF0
7878
701C
E01C
E00E
C00E
C00E
C00E
C00E
E00E
E01C
701C
7878
3FF0
0FC0
ENDCHAR
STARTCHAR uni0210
ENCODING 528
SWIDTH 669 0
DWIDTH 22 0
BBX 17 31 3 0
BITMAP
338000
398000
19C000
0CC000
0C6000
066000
000000
000000
FFF800
FFFE00
E01F00
E00700
E00380
E00380
E00380
E00380
E00380
E00700
E00F00
FFFE00
FFF800
E07800
E01C00
E01C00
E00E00
E00E00
E00700
E00700
E00380
E00380
C00180
ENDCHAR
STARTCHAR uni0211
ENCODING 529
SWIDTH 358 0
DWIDTH 12 0
BBX 10 25 2 0
BITMAP
CC00
CE00
6600
6600
6200
2300
3300
0000
0000
6380
6FC0
7E00
7800
7000
6000
6000
6000
6000
6000
6000
6000
6000
6000
6000
6000
ENDCHAR
STARTCHAR uni0212
ENCODING 530
SWIDTH 669 0
DWIDTH 22 0
BBX 17 31 3 0
BITMAP
03E000
0FF000
0C3800
181800
180C00
100C00
000000
000000
FFF800
FFFE00
E01F00
E00700
E00380
E00380
E00380
E00380
E00380
E00700
E00F00
FFFE00
FFF800
E07800
E01C00
E01C00
E00E00
E00E00
E00700
E00700
E00380
E00380
C00180
ENDCHAR
STARTCHAR uni0213
ENCODING 531
SWIDTH 358 0
DWIDTH 12 0
BBX 10 24 2 0
BITMAP
1E00
3F80
6180
C0C0
C0C0
C0C0
0000
0000
6380
6FC0
7E00
7800
7000
6000
6000
6000
6000
6000
6000
6000
6000
6000
6000
6000
ENDCHAR
STARTCHAR uni0214
ENCODING 532
SWIDTH 728 0
DWIDTH 24 0
BBX 18 31 3 0
BITMAP
198000
1DC000
0CC000
066000
066000
023000
000000
000000
C000C0
C000C0
C000C0
C000C0
C000C0
C000C0
C000C0
C000C0
C000C0
C000C0
C000C0
C000C0
C000C0
C000C0
C000C0
E001C0
E001C0
E001C0
700380
700380
3E0F00
1FFE00
07F800
ENDCHAR
STARTCHAR uni0215
ENCODING 533
SWIDTH 561 0
DWIDTH 19 0
BBX 14 25 2 0
BITMAP
3300
3B80
1980
1980
08C0
0CC0
0C40
0000
0000
600C
E01C
E01C
E01C
E01C
E01C
E01C
E01C
E01C
E01C
E01C
601C
703C
787C
3FDC
1F8C
ENDCHAR
STARTCHAR uni0216
ENCODING 534
SWIDTH 728 0
DWIDTH 24 0
BBX 18 31 3 0
BITMAP
01E000
07F800
0E1C00
0C0C00
080400
080600
000000
000000
C000C0
C000C0
C000C0
C000C0
C000C0
C000C0
C000C0
C000C0
C000C0
C000C0
C000C0
C000C0
C000C0
C000C0
C000C0
E001C0
E001C0
E001C0
700380
700380
3E0F00
1FFE00
07F800
ENDCHAR
STARTCHAR uni0217
ENCODING 535
SWIDTH 561 0
DWIDTH 19 0
BBX 14 24 2 0
BITMAP
07C0
0FE0
1C60
1830
3030
3010
0000
0000
600C
E01C
E01C
E01C
E01C
E01C
E01C
E01C
E01C
E01C
E01C
601C
703C
787C
3FDC
1F8C
ENDCHAR
STARTCHAR uni0218
ENCODING 536
SWIDTH 615 0
DWIDTH 20 0
BBX 17 31 2 -8
BITMAP
07F000
1FFE00
3C1F00
700300
E00000
E00000
E00000
E00000
F00000
780000
3F8000
1FF800
07FE00
003F00
000780
000380
000380
000380
000380
C00700
F81E00
7FFC00
0FF000
000000
000000
01C000
01C000
01C000
00C000
00C000
018000
ENDCHAR
STARTCHAR uni0219
ENCODING 537
SWIDTH 481 0
DWIDTH 16 0
BBX 12 24 2 -8
BITMAP
1F80
7FE0
7070
E010
E000
E000
7000
7F00
0FE0
00F0
0070
0030
8070
E0F0
FFE0
3F80
0000
0000
0600
0F00
0700
0200
0600
0400
ENDCHAR
STARTCHAR uni021A
ENCODING 538
SWIDTH 602 0
DWIDTH 20 0
BBX 20 31 0 -8
BITMAP
FFFFF0
FFFFF0
006000
006000
006000
006000
006000
006000
006000
006000
006000
006000
006000
006000
006000
006000
006000
006000
006000
006000
006000
006000
006000
000000
000000
006000
00F000
007000
002000
006000
004000
ENDCHAR
STARTCHAR uni021B
ENCODING 539
SWIDTH 350 0
DWIDTH 12 0
BBX 12 29 0 -8
BITMAP
1C00
1C00
1C00
1C00
1C00
FFE0
FFE0
1C00
1C00
1C00
1C00
1C00
1C00
1C00
1C00
1C00
1C00
0C00
0E00
07F0
03E0
0000
0000
0300
0780
0380
0180
0300
0300
ENDCHAR
STARTCHAR uni021F
ENCODING 543
SWIDTH 568 0
DWIDTH 19 0
BBX 13 30 3 0
BITMAP
3060
3060
18C0
0D80
0F80
0700
0000
C000
C000
C000
C000
C000
C000
C000
C7C0
DFF0
F878
E038
E038
C018
C018
C018
C018
C018
C018
C018
C018
C018
C018
C018
ENDCHAR
STARTCHAR uni0226
ENCODING 550
SWIDTH 729 0
DWIDTH 24 0
BBX 22 29 1 0
BITMAP
003000
007800
003000
000000
000000
000000
003000
007800
007800
00FC00
00CC00
01CE00
018600
018700
038700
030300
070380
060180
0E01C0
0E00C0
1C00E0
1FFFE0
3FFFF0
380070
300038
700038
600018
E0001C
C0000C
ENDCHAR
STARTCHAR uni0227
ENCODING 551
SWIDTH 530 0
DWIDTH 17 0
BBX 13 23 2 0
BITMAP
0300
0780
0300
0000
0000
0000
0000
0FC0
7FF0
7070
4038
0038
0038
1FF8
7FF8
F038
E038
E038
E038
E078
70D8
7F98
1F18
ENDCHAR
STARTCHAR uni0228
ENCODING 552
SWIDTH 583 0
DWIDTH 19 0
BBX 15 29 3 -6
BITMAP
FFFE
FFFE
E000
E000
E000
E000
E000
E000
E000
E000
FFFC
FFFC
E000
E000
E000
E000
E000
E000
E000
E000
E000
FFFE
FFFE
0100
03C0
0060
0020
07E0
07C0
ENDCHAR
STARTCHAR uni022A
ENCODING 554
SWIDTH 767 0
DWIDTH 25 0
BBX 21 32 2 0
BITMAP
03FF00
03FF00
000000
000000
038E00
038E00
000000
000000
000000
01FC00
07FF00
1F07C0
3C01E0
3800F0
700070
700038
E00038
E00038
E00038
E00038
E00038
E00038
E00038
E00038
E00038
700030
700070
3800E0
1C01E0
0F07C0
07FF00
01FC00
ENDCHAR
STARTCHAR uni022B
ENCODING 555
SWIDTH 556 0
DWIDTH 18 0
BBX 15 25 2 0
BITMAP
3FF0
3FF0
0000
0000
1CF0
1C60
0000
0000
0000
0FC0
3FF0
7878
701C
E01C
E00E
C00E
C00E
C00E
C00E
E00E
E01C
701C
7878
3FF0
0FC0
ENDCHAR
STARTCHAR uni022C
ENCODING 556
SWIDTH 767 0
DWIDTH 25 0
BBX 21 32 2 0
BITMAP
03FF00
03FF00
000000
000000
01E300
023E00
021E00
000000
000000
01FC00
07FF00
1F07C0
3C01E0
3800F0
700070
700038
E00038
E00038
E00038
E00038
E00038
E00038
E00038
E00038
E00038
700030
700070
3800E0
1C01E0
0F07C0
07FF00
01FC00
ENDCHAR
STARTCHAR uni022D
ENCODING 557
SWIDTH 556 0
DWIDTH 18 0
BBX 15 25 2 0
BITMAP
3FF0
3FF0
0000
1E10
1F30
33F0
20E0
0000
0000
0FC0
3FF0
7878
701C
E01C
E00E
C00E
C00E
C00E
C00E
E00E
E01C
701C
7878
3FF0
0FC0
ENDCHAR
STARTCHAR uni0230
ENCODING 560
SWIDTH 767 0
DWIDTH 25 0
BBX 21 32 2 0
BITMAP
03FF00
03FF00
000000
000000
007000
007000
000000
000000
000000
01FC00
07FF00
1F07C0
3C01E0
3800F0
700070
700038
E00038
E00038
E00038
E00038
E00038
E00038
E00038
E00038
E00038
700030
700070
3800E0
1C01E0
0F07C0
07FF00
01FC00
ENDCHAR
STARTCHAR uni0231
ENCODING 561
SWIDTH 556 0
DWIDTH 18 0
BBX 15 25 2 0
BITMAP
3FF0
3FF0
0000
0000
0380
0380
0000
0000
0000
0FC0
3FF0
7878
701C
E01C
E00E
C00E
C00E
C00E
C00E
E00E
E01C
701C
7878
3FF0
0FC0
ENDCHAR
STARTCHAR uni0232
ENCODING 562
SWIDTH 596 0
DWIDTH 20 0
BBX 19 28 0 0
BITMAP
0FFE00
0FFE00
000000
000000
000000
600060
F000E0
7001C0
3801C0
1C0380
1E0700
0E0E00
070E00
039C00
01F800
01F000
00F000
00E000
00E000
00E000
00E000
00E000
00E000
00E000
00E000
00E000
00E000
006000
ENDCHAR
STARTCHAR uni0233
ENCODING 563
SWIDTH 514 0
DWIDTH 17 0
BBX 15 28 1 -6
BITMAP
1FF8
1FF0
0000
0000
0000
0000
C006
E00E
E00E
700C
701C
3018
3838
3830
1C70
1C70
0E60
0EE0
06C0
07C0
0380
0380
0380
0700
0700
0E00
0E00
0C00
ENDCHAR
STARTCHAR uni0237
ENCODING 567
SWIDTH 236 0
DWIDTH 8 0
BBX 7 22 -2 -6
BITMAP
06
06
06
06
06
06
06
06
06
06
06
06
06
06
06
06
06
0E
0E
1E
FC
F0
ENDCHAR
STARTCHAR uni0253
ENCODING 595
SWIDTH 583 0
DWIDTH 19 0
BBX 15 23 3 0
BITMAP
3E00
7E00
F000
E000
C000
C000
C000
C7C0
DFF0
F878
F01C
E01C
C00C
C00E
C00E
C00E
C00E
C00C
E01C
F01C
F878
DFF0
C7C0
ENDCHAR
STARTCHAR uni0257
ENCODING 599
SWIDTH 583 0
DWIDTH 19 0
BBX 20 23 2 0
BITMAP
0001E0
0007F0
000700
000E00
000E00
000E00
000E00
0F8E00
3FEE00
787E00
F01E00
E01E00
E00E00
C00E00
C00E00
C00E00
C00E00
E00E00
E01E00
701E00
787E00
3FEE00
0F8C00
ENDCHAR
STARTCHAR uni0259
ENCODING 601
SWIDTH 532 0
DWIDTH 18 0
BBX 15 16 1 0
BITMAP
0FC0
7FF0
7078
401C
000C
000E
000E
FFFE
FFFE
E00E
600E
600C
701C
3838
1FF0
07C0
ENDCHAR
STARTCHAR uni0292
ENCODING 658
SWIDTH 495 0
DWIDTH 16 0
BBX 14 22 1 -6
BITMAP
FFF8
FFF8
0038
0070
00E0
01C0
0380
0700
0E00
1FE0
1FF0
0078
001C
001C
000C
000C
001C
001C
803C
E078
FFF0
3FC0
ENDCHAR
STARTCHAR uni02B9
ENCODING 697
SWIDTH 221 0
DWIDTH 7 0
BBX 3 9 2 14
BITMAP
E0
E0
E0
E0
E0
60
60
60
60
ENDCHAR
STARTCHAR uni02BA
ENCODING 698
SWIDTH 392 0
DWIDTH 13 0
BBX 9 9 2 14
BITMAP
E300
E380
E380
E380
E380
6300
6300
6300
6300
ENDCHAR
STARTCHAR uni02BB
ENCODING 699
SWIDTH 500 0
DWIDTH 17 0
BBX 3 6 7 18
BITMAP
40
C0
80
E0
E0
E0
ENDCHAR
STARTCHAR uni02BC
ENCODING 700
SWIDTH 323 0
DWIDTH 11 0
BBX 3 6 4 19
BITMAP
E0
E0
E0
60
40
C0
ENDCHAR
STARTCHAR uni02BE
ENCODING 702
SWIDTH 500 0
DWIDTH 17 0
BBX 4 7 8 18
BITMAP
C0
E0
20
30
20
E0
80
ENDCHAR
STARTCHAR uni02BF
ENCODING 703
SWIDTH 500 0
DWIDTH 17 0
BBX 3 7 5 18
BITMAP
20
60
C0
C0
C0
60
20
ENDCHAR
STARTCHAR circumflex
ENCODING 710
SWIDTH 500 0
DWIDTH 17 0
BBX 9 7 4 18
BITMAP
1800
3C00
3E00
6600
6300
C300
C180
ENDCHAR
STARTCHAR caron
ENCODING 711
SWIDTH 500 0
DWIDTH 17 0
BBX 9 7 4 17
BITMAP
C180
C300
6300
6600
3E00
3C00
1800
ENDCHAR
STARTCHAR uni02C8
ENCODING 712
SWIDTH 500 0
DWIDTH 17 0
BBX 2 7 7 19
BITMAP
C0
C0
C0
C0
C0
C0
C0
ENDCHAR
STARTCHAR uni02C9
ENCODING 713
SWIDTH 500 0
DWIDTH 17 0
BBX 10 2 3 20
BITMAP
FFC0
FFC0
ENDCHAR
STARTCHAR uni02CA
ENCODING 714
SWIDTH 500 0
DWIDTH 17 0
BBX 5 7 8 18
BITMAP
18
38
70
60
E0
C0
80
ENDCHAR
STARTCHAR uni02CB
ENCODING 715
SWIDTH 500 0
DWIDTH 17 0
BBX 5 7 4 18
BITMAP
C0
E0
E0
70
30
38
18
ENDCHAR
STARTCHAR uni02CC
ENCODING 716
SWIDTH 500 0
DWIDTH 17 0
BBX 2 7 7 -9
BITMAP
C0
C0
C0
C0
C0
C0
C0
ENDCHAR
STARTCHAR breve
ENCODING 728
SWIDTH 500 0
DWIDTH 17 0
BBX 10 7 3 18
BITMAP
4040
C040
C0C0
60C0
7180
3F80
1E00
ENDCHAR
STARTCHAR dotaccent
ENCODING 729
SWIDTH 500 0
DWIDTH 17 0
BBX 3 3 7 20
BITMAP
E0
E0
E0
ENDCHAR
STARTCHAR ring
ENCODING 730
SWIDTH 500 0
DWIDTH 17 0
BBX 8 7 4 18
BITMAP
3C
66
C3
C1
C3
63
3E
ENDCHAR
STARTCHAR ogonek
ENCODING 731
SWIDTH 500 0
DWIDTH 17 0
BBX 6 8 4 -6
BITMAP
10
70
60
C0
C0
E0
7C
3C
ENDCHAR
STARTCHAR tilde
ENCODING 732
SWIDTH 500 0
DWIDTH 17 0
BBX 12 5 2 19
BITMAP
3810
7C30
6730
C3E0
C1C0
ENDCHAR
STARTCHAR hungarumlaut
ENCODING 733
SWIDTH 500 0
DWIDTH 17 0
BBX 8 7 6 18
BITMAP
67
66
66
CC
CC
8C
88
ENDCHAR
STARTCHAR gravecomb
ENCODING 768
SWIDTH 0 0
DWIDTH 0 0
BBX 6 7 -5 18
BITMAP
E0
60
70
30
18
18
0C
ENDCHAR
STARTCHAR acutecomb
ENCODING 769
SWIDTH 0 0
DWIDTH 0 0
BBX 6 7 -1 18
BITMAP
1C
18
38
30
60
60
C0
ENDCHAR
STARTCHAR uni0302
ENCODING 770
SWIDTH 0 0
DWIDTH 0 0
BBX 9 7 -5 18
BITMAP
0C00
1E00
1E00
3300
7380
6180
C080
ENDCHAR
STARTCHAR tildecomb
ENCODING 771
SWIDTH 0 0
DWIDTH 0 0
BBX 12 5 -6 19
BITMAP
3830
7C30
6660
C3E0
C1C0
ENDCHAR
STARTCHAR uni0304
ENCODING 772
SWIDTH 0 0
DWIDTH 0 0
BBX 10 2 -5 20
BITMAP
FFC0
FFC0
ENDCHAR
STARTCHAR uni0306
ENCODING 774
SWIDTH 0 0
DWIDTH 0 0
BBX 10 7 -5 18
BITMAP
8040
C0C0
C0C0
C0C0
7180
3F00
1E00
ENDCHAR
STARTCHAR uni0307
ENCODING 775
SWIDTH 0 0
DWIDTH 0 0
BBX 4 3 -2 20
BITMAP
60
F0
60
ENDCHAR
STARTCHAR uni0308
ENCODING 776
SWIDTH 0 0
DWIDTH 0 0
BBX 8 3 -4 20
BITMAP
C3
E7
C3
ENDCHAR
STARTCHAR hookabovecomb
ENCODING 777
SWIDTH 0 0
DWIDTH 0 0
BBX 6 7 -3 18
BITMAP
78
FC
0C
0C
18
30
30
ENDCHAR
STARTCHAR uni030A
ENCODING 778
SWIDTH 0 0
DWIDTH 0 0
BBX 8 7 -4 18
BITMAP
3C
66
C3
C3
C3
66
3C
ENDCHAR
STARTCHAR uni030B
ENCODING 779
SWIDTH 0 0
DWIDTH 0 0
BBX 8 7 -3 18
BITMAP
33
33
67
66
66
C4
CC
ENDCHAR
STARTCHAR uni030C
ENCODING 780
SWIDTH 0 0
DWIDTH 0 0
BBX 9 7 -5 17
BITMAP
C080
6180
7380
3300
1E00
1E00
0C00
ENDCHAR
STARTCHAR uni030F
ENCODING 783
SWIDTH 0 0
DWIDTH 0 0
BBX 8 7 -5 18
BITMAP
CC
CC
E6
66
66
23
33
ENDCHAR
STARTCHAR uni0311
ENCODING 785
SWIDTH 0 0
DWIDTH 0 0
BBX 10 6 -5 18
BITMAP
1E00
7F80
6180
C0C0
C0C0
C0C0
ENDCHAR
STARTCHAR uni0312
ENCODING 786
SWIDTH 0 0
DWIDTH 0 0
BBX 4 6 -2 18
BITMAP
60
60
40
E0
F0
60
ENDCHAR
STARTCHAR uni031B
ENCODING 795
SWIDTH 0 0
DWIDTH 0 0
BBX 6 7 0 14
BITMAP
08
0C
0C
1C
38
F0
40
ENDCHAR
STARTCHAR dotbelowcomb
ENCODING 803
SWIDTH 0 0
DWIDTH 0 0
BBX 4 3 -2 -6
BITMAP
60
F0
60
ENDCHAR
STARTCHAR uni0324
ENCODING 804
SWIDTH 0 0
DWIDTH 0 0
BBX 8 3 -4 -6
BITMAP
C3
E7
C3
ENDCHAR
STARTCHAR uni0326
ENCODING 806
SWIDTH 0 0
DWIDTH 0 0
BBX 4 6 -2 -8
BITMAP
60
F0
70
20
60
60
ENDCHAR
STARTCHAR uni0327
ENCODING 807
SWIDTH 0 0
DWIDTH 0 0
BBX 7 7 -3 -6
BITMAP
30
30
3C
06
06
FC
78
ENDCHAR
STARTCHAR uni0328
ENCODING 808
SWIDTH 0 0
DWIDTH 0 0
BBX 6 8 -4 -6
BITMAP
20
70
C0
C0
C0
E0
FC
78
ENDCHAR
STARTCHAR uni032E
ENCODING 814
SWIDTH 0 0
DWIDTH 0 0
BBX 10 6 -5 -7
BITMAP
8040
C0C0
C0C0
6180
7F80
1E00
ENDCHAR
STARTCHAR uni0331
ENCODING 817
SWIDTH 0 0
DWIDTH 0 0
BBX 10 2 -5 -5
BITMAP
FFC0
FFC0
ENDCHAR
STARTCHAR uni0335
ENCODING 821
SWIDTH 0 0
DWIDTH 0 0
BBX 12 2 -6 17
BITMAP
FFF0
FFF0
ENDCHAR
STARTCHAR uni0337
ENCODING 823
SWIDTH 0 0
DWIDTH 0 0
BBX 10 6 -5 9
BITMAP
01C0
03C0
0F00
3E00
7800
E000
ENDCHAR
STARTCHAR uni0338
ENCODING 824
SWIDTH 0 0
DWIDTH 0 0
BBX 12 19 -6 -1
BITMAP
0020
0030
0060
0060
00C0
01C0
0180
0300
0300
0600
0600
0C00
1C00
1800
3000
3000
6000
6000
C000
ENDCHAR
STARTCHAR uni0394
ENCODING 916
SWIDTH 730 0
DWIDTH 24 0
BBX 21 24 2 0
BITMAP
006000
00F000
00F000
01F800
01F800
019C00
039C00
038C00
070E00
070E00
0E0700
0E0700
0C0300
1C0380
1C0180
3801C0
3801C0
7000E0
7000E0
600060
E00070
E00030
FFFFF8
FFFFF0
ENDCHAR
STARTCHAR Sigma
ENCODING 931
SWIDTH 600 0
DWIDTH 20 0
BBX 18 30 1 -6
BITMAP
7FFF80
FFFFC0
700000
380000
3C0000
1C0000
0E0000
0F0000
070000
038000
03C000
01C000
00E000
00F000
007000
007000
00F000
00E000
01C000
03C000
038000
070000
0F0000
0E0000
1C0000
3C0000
380000
700000
7FFFC0
7FFF80
ENDCHAR
STARTCHAR uni03A9
ENCODING 937
SWIDTH 778 0
DWIDTH 26 0
BBX 24 24 1 0
BITMAP
00FF00
03FFC0
0F83E0
1E0070
1C0038
38001C
70001C
70000C
70000E
70000E
70000E
70000E
70000E
70000E
70001C
38001C
38001C
1C0038
1C0070
0E00F0
0701C0
03C380
FFC3FF
FFC3FE
ENDCHAR
STARTCHAR uni03BC
ENCODING 956
SWIDTH 561 0
DWIDTH 19 0
BBX 14 22 2 -6
BITMAP
600C
E01C
E01C
E01C
E01C
E01C
E01C
E01C
E01C
E01C
E01C
E01C
F03C
F87C
FFDC
EF8C
E000
E000
E000
E000
E000
6000
ENDCHAR
STARTCHAR pi
ENCODING 960
SWIDTH 588 0
DWIDTH 19 0
BBX 19 16 0 0
BITMAP
FFFFC0
FFFFC0
1C1C00
1C1C00
1C1C00
1C1C00
1C1C00
1C1C00
1C1C00
181C00
381C00
380C00
380E00
380F00
7007E0
3003E0
ENDCHAR
STARTCHAR uni0400
ENCODING 1024
SWIDTH 583 0
DWIDTH 19 0
BBX 15 31 3 0
BITMAP
1800
1C00
0C00
0600
0300
0300
0000
0000
FFFE
FFFE
E000
E000
E000
E000
E000
E000
E000
E000
FFFC
FFFC
E000
E000
E000
E000
E000
E000
E000
E000
E000
FFFE
FFFE
ENDCHAR
STARTCHAR uni0401
ENCODING 1025
SWIDTH 583 0
DWIDTH 19 0
BBX 15 29 3 0
BITMAP
0C70
1C70
0C70
0000
0000
0000
FFFE
FFFE
E000
E000
E000
E000
E000
E000
E000
E000
FFFC
FFFC
E000
E000
E000
E000
E000
E000
E000
E000
E000
FFFE
FFFE
ENDCHAR
STARTCHAR uni0402
ENCODING 1026
SWIDTH 842 0
DWIDTH 28 0
BBX 26 29 0 -6
BITMAP
FFFFF000
FFFFF000
00600000
00600000
00600000
00600000
00600000
00600000
00600000
006FF800
007FFE00
00781F00
00600780
00600380
00600180
006001C0
006001C0
006001C0
006001C0
006001C0
006001C0
006001C0
006001C0
000001C0
00000180
00000380
00000780
0001FF00
0000FC00
ENDCHAR
STARTCHAR uni0403
ENCODING 1027
SWIDTH 542 0
DWIDTH 18 0
BBX 15 31 3 0
BITMAP
0060
00E0
01C0
0180
0300
0200
0000
0000
FFFE
FFFE
E000
E000
E000
E000
E000
E000
E000
E000
E000
E000
E000
E000
E000
E000
E000
E000
E000
E000
E000
E000
C000
ENDCHAR
STARTCHAR uni0404
ENCODING 1028
SWIDTH 673 0
DWIDTH 22 0
BBX 19 23 2 0
BITMAP
01FE00
07FF80
0F03E0
1C00E0
380000
700000
700000
E00000
E00000
E00000
FFFE00
FFFE00
E00000
E00000
E00000
E00000
700000
700000
380000
1C00E0
1F03E0
07FF80
01FE00
ENDCHAR
STARTCHAR uni0405
ENCODING 1029
SWIDTH 615 0
DWIDTH 20 0
BBX 17 23 2 0
BITMAP
07F000
1FFE00
3C1F00
700300
E00000
E00000
E00000
E00000
F00000
780000
3F8000
1FF800
07FE00
003F00
000780
000380
000380
000380
000380
C00700
F81E00
7FFC00
0FF000
ENDCHAR
STARTCHAR uni0406
ENCODING 1030
SWIDTH 257 0
DWIDTH 8 0
BBX 3 23 3 0
BITMAP
C0
E0
E0
E0
E0
E0
E0
E0
E0
E0
E0
E0
E0
E0
E0
E0
E0
E0
E0
E0
E0
E0
C0
ENDCHAR
STARTCHAR uni0407
ENCODING 1031
SWIDTH 257 0
DWIDTH 8 0
BBX 9 29 0 0
BITMAP
E300
E380
E300
0000
0000
0000
1800
1C00
1C00
1C00
1C00
1C00
1C00
1C00
1C00
1C00
1C00
1C00
1C00
1C00
1C00
1C00
1C00
1C00
1C00
1C00
1C00
1C00
1800
ENDCHAR
STARTCHAR uni0408
ENCODING 1032
SWIDTH 324 0
DWIDTH 11 0
BBX 8 23 0 0
BITMAP
07
07
07
07
07
07
07
07
07
07
07
07
07
07
07
07
07
07
07
0E
1E
FC
F8
ENDCHAR
STARTCHAR uni0409
ENCODING 1033
SWIDTH 1129 0
DWIDTH 37 0
BBX 35 23 1 0
BITMAP
07FFF00000
07FFF00000
0700700000
0700700000
0700700000
0700700000
0700700000
0700700000
0700700000
0700700000
07007FFE00
07007FFF80
06007007C0
06007001C0
0E007000C0
0E007000E0
0E007000E0
1C007000E0
1C007000C0
38007001C0
78007007C0
F0007FFF80
E0003FFE00
ENDCHAR
STARTCHAR uni040A
ENCODING 1034
SWIDTH 1165 0
DWIDTH 38 0
BBX 34 23 3 0
BITMAP
C000600000
E000600000
E000600000
E000600000
E000600000
E000600000
E000600000
E000600000
E000600000
E000600000
FFFFFFFC00
FFFFFFFF00
E000600780
E000600380
E0006001C0
E0006001C0
E0006001C0
E0006001C0
E0006001C0
E000600380
E000600780
E0007FFF00
C0007FFC00
ENDCHAR
STARTCHAR uni040B
ENCODING 1035
SWIDTH 849 0
DWIDTH 28 0
BBX 26 23 0 0
BITMAP
FFFFF000
FFFFF000
00600000
00600000
00600000
00600000
00600000
00600000
00600000
006FF800
007FFE00
00780F00
00600780
00600380
006001C0
006001C0
006001C0
006001C0
006001C0
006001C0
006001C0
006001C0
006000C0
ENDCHAR
STARTCHAR uni040C
ENCODING 1036
SWIDTH 641 0
DWIDTH 21 0
BBX 17 31 3 0
BITMAP
003800
003000
007000
00E000
00C000
008000
000000
000200
C00700
E00E00
E00E00
E01C00
E03800
E03800
E07000
E0E000
E0E000
E1C000
FFC000
FFE000
E0F800
E03800
E01C00
E01C00
E00E00
E00E00
E00700
E00700
E00380
E00380
C00180
ENDCHAR
STARTCHAR uni040D
ENCODING 1037
SWIDTH 740 0
DWIDTH 24 0
BBX 19 31 3 0
BITMAP
0E0000
060000
070000
038000
018000
00C000
000000
000000
C000C0
C001E0
C001E0
C003E0
C007E0
C00EE0
C00EE0
C01CE0
C038E0
C070E0
C060E0
C0E0E0
C1C0E0
C380E0
C700E0
C700E0
CE00E0
DC00E0
F800E0
F800E0
F000E0
E000E0
C000C0
ENDCHAR
STARTCHAR uni040E
ENCODING 1038
SWIDTH 644 0
DWIDTH 21 0
BBX 20 30 1 0
BITMAP
080300
0C0600
070E00
03FC00
01F000
000000
000000
C00070
E00070
E000E0
7000E0
3801C0
3801C0
1C0380
0E0380
0E0700
070600
030E00
038C00
01DC00
01D800
00F800
007000
007000
00E000
00E000
01C000
01C000
038000
030000
ENDCHAR
STARTCHAR uni040F
ENCODING 1039
SWIDTH 755 0
DWIDTH 25 0
BBX 19 28 3 -5
BITMAP
C00060
E000E0
E000E0
E000E0
E000E0
E000E0
E000E0
E000E0
E000E0
E000E0
E000E0
E000E0
E000E0
E000E0
E000E0
E000E0
E000E0
E000E0
E000E0
E000E0
E000E0
FFFFE0
FFFFE0
00E000
00E000
00E000
00E000
00E000
ENDCHAR
STARTCHAR uni0410
ENCODING 1040
SWIDTH 729 0
DWIDTH 24 0
BBX 22 23 1 0
BITMAP
003000
007800
007800
00FC00
00CC00
01CE00
018600
018700
038700
030300
070380
060180
0E01C0
0E00C0
1C00E0
1FFFE0
3FFFF0
380070
300038
700038
600018
E0001C
C0000C
ENDCHAR
STARTCHAR uni0411
ENCODING 1041
SWIDTH 660 0
DWIDTH 22 0
BBX 17 23 3 0
BITMAP
FFFE00
FFFE00
E00000
E00000
E00000
E00000
E00000
E00000
E00000
E00000
FFF800
FFFE00
E00F00
E00380
E00380
E00180
E00180
E00380
E00380
E00380
E00F00
FFFE00
FFF800
ENDCHAR
STARTCHAR uni0412
ENCODING 1042
SWIDTH 676 0
DWIDTH 22 0
BBX 17 23 3 0
BITMAP
FFF800
FFFE00
E01F00
E00700
E00380
E00380
E00380
E00300
E00700
E00E00
FFFC00
FFFE00
E00F00
E00380
E00380
E00180
E00180
E00380
E00380
E00380
E00F00
FFFE00
FFF800
ENDCHAR
STARTCHAR uni0413
ENCODING 1043
SWIDTH 542 0
DWIDTH 18 0
BBX 15 23 3 0
BITMAP
FFFE
FFFE
E000
E000
E000
E000
E000
E000
E000
E000
E000
E000
E000
E000
E000
E000
E000
E000
E000
E000
E000
E000
C000
ENDCHAR
STARTCHAR uni0414
ENCODING 1044
SWIDTH 778 0
DWIDTH 26 0
BBX 24 29 1 -6
BITMAP
07FFF0
07FFF8
070038
070038
070038
070038
070038
070038
070038
070038
070038
070038
060038
060038
0E0038
0E0038
0E0038
0C0038
1C0038
180038
380038
FFFFFF
FFFFFF
C00007
C00007
C00007
C00007
C00007
C00003
ENDCHAR
STARTCHAR uni0415
ENCODING 1045
SWIDTH 583 0
DWIDTH 19 0
BBX 15 23 3 0
BITMAP
FFFE
FFFE
E000
E000
E000
E000
E000
E000
E000
E000
FFFC
FFFC
E000
E000
E000
E000
E000
E000
E000
E000
E000
FFFE
FFFE
ENDCHAR
STARTCHAR uni0416
ENCODING 1046
SWIDTH 968 0
DWIDTH 32 0
BBX 30 24 1 0
BITMAP
20000010
70030030
38030070
1C0300E0
1C0300E0
0E0301C0
07030380
07030380
03830700
01C30E00
01C30E00
01FFFC00
03FFFF00
07830780
0E0301C0
1C0300E0
1C0300E0
38030070
38030070
70030038
70030038
E003001C
E003001C
C003000C
ENDCHAR
STARTCHAR uni0417
ENCODING 1047
SWIDTH 640 0
DWIDTH 21 0
BBX 18 23 1 0
BITMAP
07F800
1FFE00
7C0F00
700380
000380
0001C0
000180
000180
000380
000700
0FFE00
0FFE00
000780
000380
0001C0
0001C0
0001C0
0001C0
0001C0
E00380
7C0F80
3FFF00
07F800
ENDCHAR
STARTCHAR uni0418
ENCODING 1048
SWIDTH 740 0
DWIDTH 24 0
BBX 19 23 3 0
BITMAP
C000C0
C001E0
C001E0
C003E0
C007E0
C00EE0
C00EE0
C01CE0
C038E0
C070E0
C060E0
C0E0E0
C1C0E0
C380E0
C700E0
C700E0
CE00E0
DC00E0
F800E0
F800E0
F000E0
E000E0
C000C0
ENDCHAR
STARTCHAR uni0419
ENCODING 1049
SWIDTH 740 0
DWIDTH 24 0
BBX 19 30 3 0
BITMAP
180600
1C0600
0E1C00
07F800
01F000
000000
000000
C000C0
C001E0
C001E0
C003E0
C007E0
C00EE0
C00EE0
C01CE0
C038E0
C070E0
C060E0
C0E0E0
C1C0E0
C380E0
C700E0
C700E0
CE00E0
DC00E0
F800E0
F800E0
F000E0
E000E0
C000C0
ENDCHAR
STARTCHAR uni041A
ENCODING 1050
SWIDTH 641 0
DWIDTH 21 0
BBX 17 24 3 0
BITMAP
000200
C00700
E00E00
E00E00
E01C00
E03800
E03800
E07000
E0E000
E0E000
E1C000
FFC000
FFE000
E0F800
E03800
E01C00
E01C00
E00E00
E00E00
E00700
E00700
E00380
E00380
C00180
ENDCHAR
STARTCHAR uni041B
ENCODING 1051
SWIDTH 741 0
DWIDTH 24 0
BBX 21 23 1 0
BITMAP
07FFF0
07FFF8
070038
070038
070038
070038
070038
070038
070038
070038
070038
070038
060038
060038
0E0038
0E0038
0E0038
1C0038
1C0038
380038
780038
F00038
E00030
ENDCHAR
STARTCHAR uni041C
ENCODING 1052
SWIDTH 855 0
DWIDTH 28 0
BBX 22 23 3 0
BITMAP
C0000C
E0001C
E0001C
F0003C
F8003C
D8007C
DC006C
CC00EC
CE00CC
C6018C
C7038C
C3030C
C3870C
C1C60C
C0CE0C
C0EC0C
C07C0C
C0780C
C0300C
C0100C
C0000C
C0000C
C0000C
ENDCHAR
STARTCHAR uni041D
ENCODING 1053
SWIDTH 761 0
DWIDTH 25 0
BBX 19 23 3 0
BITMAP
C00060
E00060
E00060
E00060
E00060
E00060
E00060
E00060
E00060
E00060
FFFFE0
FFFFE0
E00060
E00060
E00060
E00060
E00060
E00060
E00060
E00060
E00060
E00060
C00060
ENDCHAR
STARTCHAR uni041E
ENCODING 1054
SWIDTH 767 0
DWIDTH 25 0
BBX 21 23 2 0
BITMAP
01FC00
07FF00
1F07C0
3C01E0
3800F0
700070
700038
E00038
E00038
E00038
E00038
E00038
E00038
E00038
E00038
E00038
700030
700070
3800E0
1C01E0
0F07C0
07FF00
01FC00
ENDCHAR
STARTCHAR uni041F
ENCODING 1055
SWIDTH 755 0
DWIDTH 25 0
BBX 19 23 3 0
BITMAP
FFFFE0
FFFFE0
E000E0
E000E0
E000E0
E000E0
E000E0
E000E0
E000E0
E000E0
E000E0
E000E0
E000E0
E000E0
E000E0
E000E0
E000E0
E000E0
E000E0
E000E0
E000E0
E000E0
C00060
ENDCHAR
STARTCHAR uni0420
ENCODING 1056
SWIDTH 633 0
DWIDTH 21 0
BBX 17 23 3 0
BITMAP
FFF800
FFFC00
E01E00
E00700
E00300
E00380
E00380
E00380
E00380
E00300
E00700
E01E00
FFFC00
FFF000
E00000
E00000
E00000
E00000
E00000
E00000
E00000
E00000
C00000
ENDCHAR
STARTCHAR uni0421
ENCODING 1057
SWIDTH 673 0
DWIDTH 22 0
BBX 19 23 2 0
BITMAP
01FE00
07FF80
0F07E0
1C00E0
380000
700000
700000
E00000
E00000
E00000
E00000
E00000
E00000
E00000
E00000
E00000
700000
700000
380000
1C00E0
1F03E0
07FF80
01FE00
ENDCHAR
STARTCHAR uni0422
ENCODING 1058
SWIDTH 602 0
DWIDTH 20 0
BBX 20 23 0 0
BITMAP
FFFFF0
FFFFF0
006000
006000
006000
006000
006000
006000
006000
006000
006000
006000
006000
006000
006000
006000
006000
006000
006000
006000
006000
006000
006000
ENDCHAR
STARTCHAR uni0423
ENCODING 1059
SWIDTH 644 0
DWIDTH 21 0
BBX 20 23 1 0
BITMAP
C00070
E00070
E000E0
7000E0
3801C0
3801C0
1C0380
0E0380
0E0700
070600
030E00
038C00
01DC00
01D800
00F800
007000
007000
00E000
00E000
01C000
01C000
038000
030000
ENDCHAR
STARTCHAR uni0424
ENCODING 1060
SWIDTH 845 0
DWIDTH 28 0
BBX 24 24 2 0
BITMAP
001800
001800
001800
03FFC0
0FFFF0
1E1878
38181C
70180E
70180E
E01807
E01807
E01807
E01807
E01807
E01807
E01806
70180E
70181E
3C183C
1F18F8
0FFFF0
01FF80
001800
001800
ENDCHAR
STARTCHAR uni0425
ENCODING 1061
SWIDTH 650 0
DWIDTH 21 0
BBX 19 23 1 0
BITMAP
6000E0
7000E0
7801C0
380380
1C0700
0E0700
070E00
071C00
03B800
01F800
00F000
00E000
01F000
03F800
039C00
071E00
0E0E00
1E0700
1C0380
3803C0
7001C0
F000E0
E00060
ENDCHAR
STARTCHAR uni0426
ENCODING 1062
SWIDTH 791 0
DWIDTH 26 0
BBX 22 28 3 -5
BITMAP
C00060
E000E0
E000E0
E000E0
E000E0
E000E0
E000E0
E000E0
E000E0
E000E0
E000E0
E000E0
E000E0
E000E0
E000E0
E000E0
E000E0
E000E0
E000E0
E000E0
E000E0
FFFFFC
FFFFFC
00000C
00000C
00000C
00000C
00000C
ENDCHAR
STARTCHAR uni0427
ENCODING 1063
SWIDTH 675 0
DWIDTH 22 0
BBX 17 23 2 0
BITMAP
C00180
E00180
E00180
E00180
E00180
E00180
E00180
E00180
E00180
700180
780180
3C0780
1FFF80
07FD80
000180
000180
000180
000180
000180
000180
000180
000180
000180
ENDCHAR
STARTCHAR uni0428
ENCODING 1064
SWIDTH 1053 0
DWIDTH 35 0
BBX 29 23 3 0
BITMAP
C0060038
E0070038
E0070038
E0070038
E0070038
E0070038
E0070038
E0070038
E0070038
E0070038
E0070038
E0070038
E0070038
E0070038
E0070038
E0070038
E0070038
E0070038
E0070038
E0070038
E0070038
FFFFFFF8
FFFFFFF8
ENDCHAR
STARTCHAR uni0429
ENCODING 1065
SWIDTH 1088 0
DWIDTH 36 0
BBX 32 28 3 -5
BITMAP
C0060038
E0070038
E0070038
E0070038
E0070038
E0070038
E0070038
E0070038
E0070038
E0070038
E0070038
E0070038
E0070038
E0070038
E0070038
E0070038
E0070038
E0070038
E0070038
E0070038
E0070038
FFFFFFFF
FFFFFFFF
00000003
00000003
00000003
00000003
00000003
ENDCHAR
STARTCHAR uni042A
ENCODING 1066
SWIDTH 791 0
DWIDTH 26 0
BBX 25 23 0 0
BITMAP
FFC00000
FFC00000
01C00000
01C00000
01C00000
01C00000
01C00000
01C00000
01C00000
01C00000
01FFF000
01FFFC00
01C01E00
01C00700
01C00700
01C00300
01C00380
01C00300
01C00700
01C00700
01C01E00
01FFFC00
01FFF000
ENDCHAR
STARTCHAR uni042B
ENCODING 1067
SWIDTH 854 0
DWIDTH 28 0
BBX 22 23 3 0
BITMAP
C0000C
E0000C
E0000C
E0000C
E0000C
E0000C
E0000C
E0000C
E0000C
E0000C
FFF00C
FFFC0C
E01E0C
E0070C
E0070C
E0030C
E0030C
E0070C
E0070C
E0070C
E01E0C
FFFC0C
FFF00C
ENDCHAR
STARTCHAR uni042C
ENCODING 1068
SWIDTH 660 0
DWIDTH 22 0
BBX 17 23 3 0
BITMAP
C00000
E00000
E00000
E00000
E00000
E00000
E00000
E00000
E00000
E00000
FFF800
FFFE00
E00F00
E00380
E00380
E00180
E00180
E00380
E00380
E00380
E00F00
FFFE00
FFF800
ENDCHAR
STARTCHAR uni042D
ENCODING 1069
SWIDTH 673 0
DWIDTH 22 0
BBX 19 23 1 0
BITMAP
07F000
3FFC00
7C1F00
E00780
000380
0001C0
0001C0
0000E0
0000E0
0000E0
07FFE0
0FFFE0
0000E0
0000E0
0000E0
0000E0
0001C0
0001C0
000380
E00780
7C1F00
3FFC00
0FF000
ENDCHAR
STARTCHAR uni042E
ENCODING 1070
SWIDTH 1014 0
DWIDTH 33 0
BBX 28 23 3 0
BITMAP
C001FC00
E00FFF00
E01F0F80
E03C01C0
E07800E0
E07000E0
E0E00070
E0E00070
E0E00070
E0E00070
FFE00030
FFE00030
E0E00030
E0E00070
E0E00070
E0E00070
E0600070
E07000E0
E03800E0
E03C01C0
E01F0780
E00FFF00
C001F800
ENDCHAR
STARTCHAR uni042F
ENCODING 1071
SWIDTH 670 0
DWIDTH 22 0
BBX 17 23 2 0
BITMAP
07FF80
1FFF80
3C0180
700180
600180
E00180
E00180
E00180
600180
700180
380180
1FFF80
0FFF80
078180
0E0180
1C0180
1C0180
380180
380180
700180
700180
E00180
E00180
ENDCHAR
STARTCHAR uni0430
ENCODING 1072
SWIDTH 539 0
DWIDTH 18 0
BBX 13 16 2 0
BITMAP
0FC0
7FF0
7870
4038
0018
0018
1FF8
7FF8
F018
E018
E038
E038
E078
70D8
3FD8
1F18
ENDCHAR
STARTCHAR uni0431
ENCODING 1073
SWIDTH 566 0
DWIDTH 19 0
BBX 15 23 2 0
BITMAP
007C
03F8
0FE0
1E00
3800
7000
E000
E7E0
CFF0
D878
F01C
E00C
E00E
C00E
C00E
C00E
E00E
E00E
E00C
701C
3878
1FF0
0FC0
ENDCHAR
STARTCHAR uni0432
ENCODING 1074
SWIDTH 547 0
DWIDTH 18 0
BBX 14 16 3 0
BITMAP
FFE0
FFF0
C078
C038
C038
C038
C070
FFE0
FFF0
C038
C018
C01C
C018
C038
FFF0
FFE0
ENDCHAR
STARTCHAR uni0433
ENCODING 1075
SWIDTH 435 0
DWIDTH 14 0
BBX 11 16 3 0
BITMAP
FFE0
FFE0
C000
C000
C000
C000
C000
C000
C000
C000
C000
C000
C000
C000
C000
C000
ENDCHAR
STARTCHAR uni0434
ENCODING 1076
SWIDTH 592 0
DWIDTH 20 0
BBX 18 21 1 -5
BITMAP
0FFE00
0FFE00
0C0600
0C0600
0C0600
0C0600
0C0600
0C0600
1C0600
1C0600
180600
180600
380600
300600
FFFF80
FFFFC0
C001C0
C001C0
C001C0
C001C0
C00080
ENDCHAR
STARTCHAR uni0435
ENCODING 1077
SWIDTH 542 0
DWIDTH 18 0
BBX 14 16 2 0
BITMAP
0FC0
1FF0
3878
7018
E01C
E00C
C00C
FFFC
FFFC
C000
E000
E000
700C
383C
1FF8
07E0
ENDCHAR
STARTCHAR uni0436
ENCODING 1078
SWIDTH 785 0
DWIDTH 26 0
BBX 24 16 1 0
BITMAP
601806
70180E
38181C
38183C
1C1838
0E1870
0718E0
07FFE0
0FFFF0
1C1878
381838
38181C
70180E
70180E
E01807
C01803
ENDCHAR
STARTCHAR uni0437
ENCODING 1079
SWIDTH 497 0
DWIDTH 16 0
BBX 14 16 1 0
BITMAP
1FE0
7FF0
F078
4018
0018
0018
0078
0FE0
0FF0
0038
001C
001C
401C
F038
7FF0
1FE0
ENDCHAR
STARTCHAR uni0438
ENCODING 1080
SWIDTH 584 0
DWIDTH 19 0
BBX 14 16 3 0
BITMAP
C018
C03C
C03C
C07C
C0FC
C1DC
C39C
C31C
C71C
CE1C
DC1C
D81C
F01C
F01C
E01C
C018
ENDCHAR
STARTCHAR uni0439
ENCODING 1081
SWIDTH 584 0
DWIDTH 19 0
BBX 14 23 3 0
BITMAP
6030
7030
38E0
1FC0
0F80
0000
0000
C018
C03C
C03C
C07C
C0FC
C1DC
C39C
C31C
C71C
CE1C
DC1C
D81C
F01C
F01C
E01C
C018
ENDCHAR
STARTCHAR uni043A
ENCODING 1082
SWIDTH 526 0
DWIDTH 17 0
BBX 14 16 3 0
BITMAP
C030
C030
C070
C0E0
C1C0
C380
C380
FF00
FFC0
C1C0
C0E0
C070
C070
C038
C038
C01C
ENDCHAR
STARTCHAR uni043B
ENCODING 1083
SWIDTH 574 0
DWIDTH 19 0
BBX 15 16 1 0
BITMAP
0FFE
0FFE
0C06
0C06
0C06
0C06
0C06
1C06
1C06
1C06
1C06
1806
3806
7006
F006
E006
ENDCHAR
STARTCHAR uni043C
ENCODING 1084
SWIDTH 659 0
DWIDTH 22 0
BBX 16 16 3 0
BITMAP
C003
E007
E007
F00F
F01F
D81B
D83B
CC33
CE63
C663
C3C3
C3C3
C183
C003
C003
C003
ENDCHAR
STARTCHAR uni043D
ENCODING 1085
SWIDTH 587 0
DWIDTH 19 0
BBX 14 16 3 0
BITMAP
C018
C01C
C01C
C01C
C01C
C01C
C01C
FFFC
FFFC
C01C
C01C
C01C
C01C
C01C
C01C
C018
ENDCHAR
STARTCHAR uni043E
ENCODING 1086
SWIDTH 566 0
DWIDTH 19 0
BBX 15 16 2 0
BITMAP
0FC0
3FF0
7878
701C
E00C
E00E
C00E
C00E
C00E
C00E
E00E
E00C
701C
7878
3FF0
0FC0
ENDCHAR
STARTCHAR uni043F
ENCODING 1087
SWIDTH 584 0
DWIDTH 19 0
BBX 14 16 3 0
BITMAP
FFF8
FFFC
C01C
C01C
C01C
C01C
C01C
C01C
C01C
C01C
C01C
C01C
C01C
C01C
C01C
C018
ENDCHAR
STARTCHAR uni0440
ENCODING 1088
SWIDTH 593 0
DWIDTH 20 0
BBX 15 22 3 -6
BITMAP
C7E0
CFF0
D878
F01C
E01C
E00E
C00E
C00E
C00E
C00E
E00E
E01C
F01C
D878
DFF0
C7E0
C000
C000
C000
C000
C000
C000
ENDCHAR
STARTCHAR uni0441
ENCODING 1089
SWIDTH 473 0
DWIDTH 16 0
BBX 13 16 2 0
BITMAP
0FC0
3FF0
7838
7010
E000
E000
E000
C000
C000
E000
E000
E000
7010
7C38
1FF0
0FC0
ENDCHAR
STARTCHAR uni0442
ENCODING 1090
SWIDTH 444 0
DWIDTH 15 0
BBX 15 16 0 0
BITMAP
FFFE
FFFE
0380
0380
0380
0380
0380
0380
0380
0380
0380
0380
0380
0380
0380
0300
ENDCHAR
STARTCHAR uni0443
ENCODING 1091
SWIDTH 524 0
DWIDTH 17 0
BBX 15 22 1 -6
BITMAP
C006
E006
E00E
700C
701C
381C
3838
1838
1C30
0C70
0E60
0EE0
07C0
07C0
03C0
0380
0380
0700
0700
0600
0E00
0C00
ENDCHAR
STARTCHAR uni0444
ENCODING 1092
SWIDTH 795 0
DWIDTH 26 0
BBX 23 29 2 -6
BITMAP
003000
003000
003000
003000
003000
003000
003000
1F31E0
3FB7F0
78F638
E07C1C
E0781C
E0380C
C0300C
C0300E
C0300E
C0300C
E0380C
E0781C
60781C
78F638
3FB7F0
1F31E0
003000
003000
003000
003000
003000
003000
ENDCHAR
STARTCHAR uni0445
ENCODING 1093
SWIDTH 535 0
DWIDTH 18 0
BBX 14 16 2 0
BITMAP
C01C
E01C
7038
3870
1CE0
1DC0
0FC0
0780
0780
0FC0
1DE0
38E0
7870
7038
E01C
C00C
ENDCHAR
STARTCHAR uni0446
ENCODING 1094
SWIDTH 598 0
DWIDTH 20 0
BBX 16 20 3 -4
BITMAP
C018
C018
C018
C018
C018
C018
C018
C018
C018
C018
C018
C018
C018
C018
FFFF
FFFF
0007
0007
0007
0003
ENDCHAR
STARTCHAR uni0447
ENCODING 1095
SWIDTH 552 0
DWIDTH 18 0
BBX 14 16 2 0
BITMAP
C018
E01C
E01C
E01C
E01C
E01C
E01C
703C
7FFC
1FDC
001C
001C
001C
001C
001C
0018
ENDCHAR
STARTCHAR uni0448
ENCODING 1096
SWIDTH 799 0
DWIDTH 26 0
BBX 21 16 3 0
BITMAP
C06038
C06038
C06038
C06038
C06038
C06038
C06038
C06038
C06038
C06038
C06038
C06038
C06038
C06038
FFFFF8
FFFFF0
ENDCHAR
STARTCHAR uni0449
ENCODING 1097
SWIDTH 824 0
DWIDTH 27 0
BBX 23 20 3 -4
BITMAP
C06038
C06038
C06038
C06038
C06038
C06038
C06038
C06038
C06038
C06038
C06038
C06038
C06038
C06038
FFFFFE
FFFFFE
000006
000006
000006
000006
ENDCHAR
STARTCHAR uni044A
ENCODING 1098
SWIDTH 614 0
DWIDTH 20 0
BBX 19 16 0 0
BITMAP
FF0000
FF0000
070000
070000
070000
070000
07FF00
07FFC0
0701C0
0700E0
0700E0
0700E0
0700E0
0701C0
07FF80
07FF00
ENDCHAR
STARTCHAR uni044B
ENCODING 1099
SWIDTH 730 0
DWIDTH 24 0
BBX 18 16 3 0
BITMAP
C000C0
C000C0
C000C0
C000C0
C000C0
C000C0
FFC0C0
FFF0C0
C038C0
C018C0
C018C0
C018C0
C038C0
C038C0
FFF0C0
FFC0C0
ENDCHAR
STARTCHAR uni044C
ENCODING 1100
SWIDTH 537 0
DWIDTH 18 0
BBX 13 16 3 0
BITMAP
C000
C000
C000
C000
C000
C000
FFC0
FFF0
C038
C018
C018
C018
C038
C038
FFF0
FFC0
ENDCHAR
STARTCHAR uni044D
ENCODING 1101
SWIDTH 490 0
DWIDTH 16 0
BBX 13 16 1 0
BITMAP
1F80
7FE0
E0F0
8070
0038
0018
0018
1FF8
1FF8
0018
0018
0038
8070
E0F0
FFE0
1F80
ENDCHAR
STARTCHAR uni044E
ENCODING 1102
SWIDTH 769 0
DWIDTH 25 0
BBX 21 16 3 0
BITMAP
C03F00
C0FFC0
C1E1E0
C1C070
C38070
C30030
C30038
FF0038
FF0038
C70038
C30030
C38070
C3C0F0
C1E1E0
C0FFC0
C03F00
ENDCHAR
STARTCHAR uni044F
ENCODING 1103
SWIDTH 539 0
DWIDTH 18 0
BBX 13 16 2 0
BITMAP
1FF8
7FF8
7018
E018
E018
E018
E018
7018
3FF8
0FF8
1C18
3818
7018
7018
E018
E018
ENDCHAR
STARTCHAR uni0450
ENCODING 1104
SWIDTH 542 0
DWIDTH 18 0
BBX 14 25 2 0
BITMAP
1800
1C00
0C00
0E00
0600
0300
0300
0000
0000
0FC0
1FF0
3878
7018
E01C
E00C
C00C
FFFC
FFFC
C000
E000
E000
700C
383C
1FF8
07E0
ENDCHAR
STARTCHAR uni0451
ENCODING 1105
SWIDTH 542 0
DWIDTH 18 0
BBX 14 23 2 0
BITMAP
1C70
1C70
1C70
0000
0000
0000
0000
0FC0
1FF0
3878
7018
E01C
E00C
C00C
FFFC
FFFC
C000
E000
E000
700C
383C
1FF8
07E0
ENDCHAR
STARTCHAR uni0452
ENCODING 1106
SWIDTH 578 0
DWIDTH 19 0
BBX 18 29 -1 -6
BITMAP
0C0000
0C0000
0C0000
FFF800
7FF800
0C0000
0C0000
0C7E00
0DFF00
0D8780
0F0380
0E0180
0E0180
0C01C0
0C01C0
0C01C0
0C01C0
0C01C0
0C01C0
0C01C0
0C01C0
0C01C0
0C0180
000180
000380
000380
000700
001E00
001C00
ENDCHAR
STARTCHAR uni0453
ENCODING 1107
SWIDTH 435 0
DWIDTH 14 0
BBX 11 25 3 0
BITMAP
0180
0180
0380
0700
0600
0E00
0C00
0000
0000
FFE0
FFE0
C000
C000
C000
C000
C000
C000
C000
C000
C000
C000
C000
C000
C000
C000
ENDCHAR
STARTCHAR uni0454
ENCODING 1108
SWIDTH 491 0
DWIDTH 16 0
BBX 13 16 2 0
BITMAP
0FE0
1FF8
7838
7008
E000
E000
C000
FFE0
FFC0
C000
E000
E000
7008
3838
1FF8
0FE0
ENDCHAR
STARTCHAR uni0455
ENCODING 1109
SWIDTH 491 0
DWIDTH 16 0
BBX 13 16 2 0
BITMAP
1FC0
3FE0
7070
E010
E000
E000
7000
3F00
0FE0
00F0
0030
0038
8030
F0F0
7FE0
1F80
ENDCHAR
STARTCHAR uni0456
ENCODING 1110
SWIDTH 242 0
DWIDTH 8 0
BBX 4 23 2 0
BITMAP
60
F0
60
00
00
00
00
60
60
60
60
60
60
60
60
60
60
60
60
60
60
60
60
ENDCHAR
STARTCHAR uni0457
ENCODING 1111
SWIDTH 242 0
DWIDTH 8 0
BBX 8 23 0 0
BITMAP
C3
E7
C3
00
00
00
00
18
18
18
18
18
18
18
18
18
18
18
18
18
18
18
18
ENDCHAR
STARTCHAR uni0458
ENCODING 1112
SWIDTH 245 0
DWIDTH 8 0
BBX 8 29 -2 -6
BITMAP
07
0F
07
00
00
00
00
06
06
06
06
06
06
06
06
06
06
06
06
06
06
06
06
06
06
0E
1E
FC
F0
ENDCHAR
STARTCHAR uni0459
ENCODING 1113
SWIDTH 869 0
DWIDTH 29 0
BBX 26 16 1 0
BITMAP
0FFE0000
0FFE0000
0C060000
0C060000
0C060000
0C060000
0C07FF00
1C07FF80
1C0603C0
1C0601C0
1C0600C0
180600C0
380601C0
700603C0
F007FF80
E007FE00
ENDCHAR
STARTCHAR uni045A
ENCODING 1114
SWIDTH 882 0
DWIDTH 29 0
BBX 25 16 3 0
BITMAP
C0180000
C01C0000
C01C0000
C01C0000
C01C0000
C01C0000
C01FFC00
FFFFFF00
FFFC0700
C01C0380
C01C0380
C01C0380
C01C0380
C01C0700
C01FFE00
C01FFC00
ENDCHAR
STARTCHAR uni045B
ENCODING 1115
SWIDTH 578 0
DWIDTH 19 0
BBX 17 23 0 0
BITMAP
180000
180000
180000
FFF000
FFF000
180000
180000
18FC00
1BFE00
1B0F00
1E0700
1C0300
1C0300
180380
180380
180380
180380
180380
180380
180380
180380
180380
180300
ENDCHAR
STARTCHAR uni045C
ENCODING 1116
SWIDTH 526 0
DWIDTH 17 0
BBX 14 25 3 0
BITMAP
0060
00E0
00C0
01C0
0180
0300
0300
0000
0000
C030
C030
C070
C0E0
C1C0
C380
C380
FF00
FFC0
C1C0
C0E0
C070
C070
C038
C038
C01C
ENDCHAR
STARTCHAR uni045D
ENCODING 1117
SWIDTH 584 0
DWIDTH 19 0
BBX 14 25 3 0
BITMAP
3000
3800
1800
0C00
0C00
0600
0600
0000
0000
C018
C03C
C03C
C07C
C0FC
C1DC
C39C
C31C
C71C
CE1C
DC1C
D81C
F01C
F01C
E01C
C018
ENDCHAR
STARTCHAR uni045E
ENCODING 1118
SWIDTH 524 0
DWIDTH 17 0
BBX 15 29 1 -6
BITMAP
3018
3818
1C70
0FE0
07C0
0000
0000
C006
E006
E00E
700C
701C
381C
3838
1838
1C30
0C70
0E60
0EE0
07C0
07C0
03C0
0380
0380
0700
0700
0600
0E00
0C00
ENDCHAR
STARTCHAR uni045F
ENCODING 1119
SWIDTH 584 0
DWIDTH 19 0
BBX 14 20 3 -4
BITMAP
C018
C01C
C01C
C01C
C01C
C01C
C01C
C01C
C01C
C01C
C01C
C01C
C01C
C01C
FFFC
FFF8
0700
0700
0700
0700
ENDCHAR
STARTCHAR uni0462
ENCODING 1122
SWIDTH 724 0
DWIDTH 24 0
BBX 23 23 -1 0
BITMAP
030000
038000
038000
038000
FFFF80
FFFF80
038000
038000
038000
038000
03FFE0
03FFF8
03803C
03800E
03800E
038006
038006
038006
03800E
03800E
03803C
03FFF8
03FFE0
ENDCHAR
STARTCHAR uni0463
ENCODING 1123
SWIDTH 615 0
DWIDTH 20 0
BBX 19 23 0 0
BITMAP
070000
070000
070000
070000
070000
070000
070000
FFF800
FFF800
070000
070000
070000
070000
07FF00
07FFC0
0701C0
0700E0
0700E0
0700E0
0700E0
0701C0
07FF80
07FF00
ENDCHAR
STARTCHAR uni046A
ENCODING 1130
SWIDTH 955 0
DWIDTH 32 0
BBX 30 23 1 0
BITMAP
0FFFFF80
0FFFFF80
07000700
03800600
01C00C00
00E01C00
00603800
00307000
0018E000
000CC000
00FFFC00
03FFFF00
07870780
0E0703C0
1C0701C0
1C0700E0
380700E0
38070070
70070070
70070038
E0070038
E007001C
C0030018
ENDCHAR
STARTCHAR uni046B
ENCODING 1131
SWIDTH 785 0
DWIDTH 26 0
BBX 24 16 1 0
BITMAP
0FFFF0
07FFE0
0700C0
0381C0
01C380
00E700
006E00
07FFE0
0FFFF0
1C1878
38183C
38181C
70180E
60180E
E01807
C01803
ENDCHAR
STARTCHAR uni0472
ENCODING 1138
SWIDTH 767 0
DWIDTH 25 0
BBX 21 23 2 0
BITMAP
01FC00
07FF00
1F07C0
3C01E0
3800F0
700070
700038
E00038
E00038
E00038
FFFFF8
FFFFF8
E00038
E00038
E00038
E00038
700070
700070
3800E0
1C01E0
0F07C0
07FF00
01FC00
ENDCHAR
STARTCHAR uni0473
ENCODING 1139
SWIDTH 566 0
DWIDTH 19 0
BBX 15 16 2 0
BITMAP
0FC0
3FF0
7878
701C
E00C
E00E
C00E
FFFE
FFFE
C00E
E00E
E00C
701C
7878
3FF0
0FC0
ENDCHAR
STARTCHAR uni0474
ENCODING 1140
SWIDTH 743 0
DWIDTH 25 0
BBX 26 23 0 0
BITMAP
60000380
E0000FC0
70001E00
70003C00
38003800
38007000
1C007000
1C00E000
0E00E000
0E00C000
0601C000
0701C000
03038000
03838000
03870000
01C70000
01C60000
00EE0000
00EC0000
007C0000
007C0000
00380000
00380000
ENDCHAR
STARTCHAR uni0475
ENCODING 1141
SWIDTH 550 0
DWIDTH 18 0
BBX 18 16 1 0
BITMAP
C003C0
E007C0
600F00
700E00
701C00
381800
383800
183800
1C3000
0C7000
0E6000
06E000
07C000
07C000
038000
038000
ENDCHAR
STARTCHAR uni048A
ENCODING 1162
SWIDTH 757 0
DWIDTH 25 0
BBX 22 34 3 -5
BITMAP
180200
1C0600
0E0C00
07F800
03F000
000000
C000C0
C001E0
C001E0
C003E0
C007E0
C00EE0
C00EE0
C01CE0
C038E0
C070E0
C070E0
C0E0E0
C1C0E0
C380E0
C300E0
C700E0
CE00E0
DC00E0
D800E0
F800E0
F000E0
E000FC
C000FC
000018
000018
000038
000030
000030
ENDCHAR
STARTCHAR uni048B
ENCODING 1163
SWIDTH 609 0
DWIDTH 20 0
BBX 16 28 3 -5
BITMAP
6030
7030
38E0
1FC0
0F80
0000
0000
C018
C03C
C03C
C07C
C0FC
C1DC
C19C
C31C
C71C
CE1C
CC1C
D81C
F01C
F01C
E01F
C01F
0007
0006
000E
000C
0004
ENDCHAR
STARTCHAR uni048C
ENCODING 1164
SWIDTH 714 0
DWIDTH 24 0
BBX 22 23 0 0
BITMAP
060000
060000
060000
060000
FFF000
FFF000
060000
060000
060000
060000
07FFC0
07FFF0
060078
060038
06001C
06001C
06001C
06001C
06001C
060038
060078
07FFF0
07FFC0
ENDCHAR
STARTCHAR uni048D
ENCODING 1165
SWIDTH 615 0
DWIDTH 20 0
BBX 19 23 0 0
BITMAP
070000
070000
070000
070000
070000
070000
070000
FFF800
FFF800
070000
070000
070000
070000
07FF00
07FFC0
0701C0
0700E0
0700E0
0700E0
0700E0
0701C0
07FF80
07FF00
ENDCHAR
STARTCHAR uni048E
ENCODING 1166
SWIDTH 633 0
DWIDTH 21 0
BBX 17 23 3 0
BITMAP
FFF800
FFFC00
E01E00
E00700
E00300
E00380
E00380
E00380
E04380
E0E300
E06700
E07E00
FFFC00
FFF800
E00C00
E00E00
E00400
E00000
E00000
E00000
E00000
E00000
C00000
ENDCHAR
STARTCHAR uni048F
ENCODING 1167
SWIDTH 592 0
DWIDTH 20 0
BBX 15 22 3 -6
BITMAP
C7E0
DFF0
D878
F01C
E01C
E00E
C00E
C00E
C00E
C00E
E08E
E0DC
F07C
D878
DFF0
C7D8
C00C
C000
C000
C000
C000
C000
ENDCHAR
STARTCHAR uni0490
ENCODING 1168
SWIDTH 542 0
DWIDTH 18 0
BBX 14 29 3 0
BITMAP
0004
000C
000C
000C
000C
000C
FFFC
FFFC
E000
E000
E000
E000
E000
E000
E000
E000
E000
E000
E000
E000
E000
E000
E000
E000
E000
E000
E000
E000
C000
ENDCHAR
STARTCHAR uni0491
ENCODING 1169
SWIDTH 435 0
DWIDTH 14 0
BBX 11 20 3 0
BITMAP
0060
0060
0060
0060
FFE0
FFE0
C000
C000
C000
C000
C000
C000
C000
C000
C000
C000
C000
C000
C000
C000
ENDCHAR
STARTCHAR uni0492
ENCODING 1170
SWIDTH 578 0
DWIDTH 19 0
BBX 18 23 1 0
BITMAP
1FFFC0
1FFFC0
1C0000
1C0000
1C0000
1C0000
1C0000
1C0000
1C0000
1C0000
FFF000
FFF000
1C0000
1C0000
1C0000
1C0000
1C0000
1C0000
1C0000
1C0000
1C0000
1C0000
1C0000
ENDCHAR
STARTCHAR uni0493
ENCODING 1171
SWIDTH 455 0
DWIDTH 15 0
BBX 15 16 0 0
BITMAP
0FFE
1FFE
1C00
1C00
1C00
1C00
1C00
FFE0
FFE0
1C00
1C00
1C00
1C00
1C00
1C00
0C00
ENDCHAR
STARTCHAR uni0494
ENCODING 1172
SWIDTH 669 0
DWIDTH 22 0
BBX 17 29 3 -6
BITMAP
FFFE00
FFFE00
E00000
E00000
E00000
E00000
E00000
E00000
E00000
EFF000
FFFC00
F01E00
E00F00
E00700
E00380
E00380
E00380
E00380
E00380
E00380
E00380
E00380
C00380
000380
000380
000700
000F00
03FE00
01F800
ENDCHAR
STARTCHAR uni0495
ENCODING 1173
SWIDTH 551 0
DWIDTH 18 0
BBX 14 21 3 -5
BITMAP
FFE0
FFE0
C000
C000
C000
C7E0
DFF0
D878
F038
E01C
E01C
C01C
C01C
C01C
C01C
C01C
0018
0038
0078
01F0
01E0
ENDCHAR
STARTCHAR uni0496
ENCODING 1174
SWIDTH 976 0
DWIDTH 32 0
BBX 32 29 1 -5
BITMAP
20000010
70030030
38030070
1C0300E0
1C0300E0
0E0301C0
07030380
07030380
03830700
01C30E00
01C30E00
01FFFC00
03FFFF00
07830780
0E0301C0
1C0300C0
1C0300E0
38030060
38030070
70030030
70030038
E0030018
E003001F
C003000F
00000003
00000003
00000003
00000003
00000003
ENDCHAR
STARTCHAR uni0497
ENCODING 1175
SWIDTH 827 0
DWIDTH 27 0
BBX 26 20 1 -4
BITMAP
60180600
70180E00
38181C00
38183C00
1C183800
0E187000
0718E000
07FFE000
0FFFF000
1C187800
38181800
38181C00
70180E00
70180E00
E01807C0
C01803C0
000001C0
000001C0
000001C0
000000C0
ENDCHAR
STARTCHAR uni0498
ENCODING 1176
SWIDTH 640 0
DWIDTH 21 0
BBX 18 28 1 -5
BITMAP
07F800
1FFE00
7C0F00
700380
000380
0001C0
000180
000180
000380
000700
0FFE00
0FFE00
000780
000380
0001C0
0001C0
0001C0
0001C0
0001C0
E00380
7C0F80
3FFF00
0FFC00
00E000
00E000
00E000
00E000
00E000
ENDCHAR
STARTCHAR uni0499
ENCODING 1177
SWIDTH 497 0
DWIDTH 16 0
BBX 14 20 1 -4
BITMAP
1FE0
7FF0
F078
4018
0018
0018
0078
0FE0
0FF0
0038
001C
001C
401C
F038
7FF8
1FE0
0300
0300
0300
0300
ENDCHAR
STARTCHAR uni049A
ENCODING 1178
SWIDTH 649 0
DWIDTH 21 0
BBX 20 29 3 -5
BITMAP
000200
C00700
E00E00
E00E00
E01C00
E03800
E03800
E07000
E0E000
E0E000
E1C000
FFC000
FFE000
E0F000
E03800
E01C00
E01C00
E00E00
E00E00
E00700
E00700
E00380
E003E0
C001F0
000070
000070
000070
000070
000060
ENDCHAR
STARTCHAR uni049B
ENCODING 1179
SWIDTH 565 0
DWIDTH 19 0
BBX 15 20 3 -4
BITMAP
C030
C030
C070
C0E0
C1C0
C380
C380
FF00
FF80
C1C0
C0E0
C070
C070
C038
C01E
C01E
0006
0006
0006
0006
ENDCHAR
STARTCHAR uni049C
ENCODING 1180
SWIDTH 671 0
DWIDTH 22 0
BBX 18 24 3 0
BITMAP
000100
C00380
E00700
E00700
E00E00
E01C00
E61C00
E63800
E67000
E67000
E6E000
FFE000
FFF000
E67800
E61C00
E60E00
E60E00
E60700
E60700
E00380
E00380
E001C0
E001C0
C000C0
ENDCHAR
STARTCHAR uni049D
ENCODING 1181
SWIDTH 557 0
DWIDTH 18 0
BBX 15 16 3 0
BITMAP
C018
C018
C038
CC70
CCE0
CDC0
CDC0
FF80
FFE0
CCE0
CC70
CC38
CC38
C01C
C01C
C00E
ENDCHAR
STARTCHAR uni049E
ENCODING 1182
SWIDTH 678 0
DWIDTH 22 0
BBX 22 24 -1 0
BITMAP
000010
070038
070038
070070
FFF8E0
FFF8E0
0701C0
070380
070380
070700
070E00
07FE00
07FF80
0703C0
0701C0
0700E0
070060
070070
070070
070038
070038
07001C
07001C
07000C
ENDCHAR
STARTCHAR uni049F
ENCODING 1183
SWIDTH 527 0
DWIDTH 17 0
BBX 18 23 -1 0
BITMAP
0C0000
0C0000
0C0000
FFF800
7FF800
0C0000
0C0000
0C0300
0C0300
0C0700
0C0E00
0C1C00
0C3800
0C3800
0FF000
0FFC00
0C1C00
0C0E00
0C0700
0C0700
0C0380
0C0380
0C01C0
ENDCHAR
STARTCHAR uni04A0
ENCODING 1184
SWIDTH 771 0
DWIDTH 25 0
BBX 24 24 0 0
BITMAP
000004
FFC00E
FFC00E
01C01C
01C038
01C038
01C070
01C0E0
01C0E0
01C1C0
01C380
01FF80
01FFE0
01C0F0
01C078
01C038
01C01C
01C01C
01C00E
01C00E
01C007
01C007
01C003
01C003
ENDCHAR
STARTCHAR uni04A1
ENCODING 1185
SWIDTH 603 0
DWIDTH 20 0
BBX 19 16 0 0
BITMAP
FF00C0
FF01C0
070380
070380
070700
070E00
071C00
07FC00
07FE00
070F00
070380
070380
0701C0
0701C0
0700E0
070060
ENDCHAR
STARTCHAR uni04A2
ENCODING 1186
SWIDTH 801 0
DWIDTH 26 0
BBX 23 28 3 -5
BITMAP
C00060
E00060
E00060
E00060
E00060
E00060
E00060
E00060
E00060
E00060
FFFFE0
FFFFE0
E00060
E00060
E00060
E00060
E00060
E00060
E00060
E00060
E00060
E0007C
C0007E
00000E
00000E
00000E
00000E
00000E
ENDCHAR
STARTCHAR uni04A3
ENCODING 1187
SWIDTH 611 0
DWIDTH 20 0
BBX 16 20 3 -4
BITMAP
C018
C01C
C01C
C01C
C01C
C01C
C01C
FFFC
FFFC
C01C
C01C
C01C
C01C
C01C
C01F
C01F
0003
0003
0003
0003
ENDCHAR
STARTCHAR uni04A4
ENCODING 1188
SWIDTH 935 0
DWIDTH 31 0
BBX 28 23 3 0
BITMAP
C0007FF0
E0007FF0
E0006000
E0006000
E0006000
E0006000
E0006000
E0006000
E0006000
E0006000
FFFFE000
FFFFE000
E0006000
E0006000
E0006000
E0006000
E0006000
E0006000
E0006000
E0006000
E0006000
E0006000
C0006000
ENDCHAR
STARTCHAR uni04A5
ENCODING 1189
SWIDTH 743 0
DWIDTH 25 0
BBX 21 16 3 0
BITMAP
C01FF8
C01FF8
C01C00
C01C00
C01C00
C01C00
C01C00
FFFC00
FFFC00
C01C00
C01C00
C01C00
C01C00
C01C00
C01C00
C01800
ENDCHAR
STARTCHAR uni04A8
ENCODING 1192
SWIDTH 810 0
DWIDTH 27 0
BBX 25 23 2 0
BITMAP
01F80000
07F80000
1F000000
3C000000
38000000
7007C000
701FF000
E03C7800
E0383800
E0301C00
E0701C00
E0701C00
E0701C00
E0701C00
E0701C00
E0301800
70383800
70383800
381C7000
3C0EE000
1F07C180
07FFFF80
01FCFF00
ENDCHAR
STARTCHAR uni04A9
ENCODING 1193
SWIDTH 641 0
DWIDTH 21 0
BBX 20 16 2 0
BITMAP
0FC000
1FE000
780000
700000
E07C00
E0FF00
C1C700
C18300
C18380
C18380
E18300
E0C300
70E700
3C7E20
1FFFF0
07EFC0
ENDCHAR
STARTCHAR uni04AA
ENCODING 1194
SWIDTH 673 0
DWIDTH 22 0
BBX 19 28 2 -5
BITMAP
01FE00
07FF80
0F07E0
1C00E0
380000
700000
700000
E00000
E00000
E00000
E00000
E00000
E00000
E00000
E00000
E00000
700000
700000
380000
3C00E0
1F03E0
07FF80
01FE00
007000
007000
007000
007000
003000
ENDCHAR
STARTCHAR uni04AB
ENCODING 1195
SWIDTH 469 0
DWIDTH 15 0
BBX 13 20 2 -4
BITMAP
0FC0
3FF0
7838
7010
E000
E000
E000
C000
C000
E000
E000
E000
7000
7838
3FF0
0FC0
0300
0300
0300
0300
ENDCHAR
STARTCHAR uni04AC
ENCODING 1196
SWIDTH 582 0
DWIDTH 19 0
BBX 20 28 0 -5
BITMAP
FFFFE0
FFFFF0
00E000
00E000
00E000
00E000
00E000
00E000
00E000
00E000
00E000
00E000
00E000
00E000
00E000
00E000
00E000
00E000
00E000
00E000
00E000
00FC00
007C00
000C00
000C00
000C00
000C00
000C00
ENDCHAR
STARTCHAR uni04AD
ENCODING 1197
SWIDTH 444 0
DWIDTH 15 0
BBX 15 20 0 -4
BITMAP
FFFE
FFFE
0380
0380
0380
0380
0380
0380
0380
0380
0380
0380
0380
0380
03E0
03E0
0060
0060
0060
0060
ENDCHAR
STARTCHAR uni04AE
ENCODING 1198
SWIDTH 596 0
DWIDTH 20 0
BBX 19 23 0 0
BITMAP
600060
F000E0
7001C0
3801C0
1C0380
1E0700
0E0E00
070E00
039C00
01F800
01F000
00F000
00E000
00E000
00E000
00E000
00E000
00E000
00E000
00E000
00E000
00E000
006000
ENDCHAR
STARTCHAR uni04AF
ENCODING 1199
SWIDTH 518 0
DWIDTH 17 0
BBX 15 22 1 -6
BITMAP
C006
E00E
E00E
700C
701C
3018
3838
1838
1C70
1C70
0E60
0EE0
06C0
07C0
0380
0380
0380
0380
0380
0380
0380
0380
ENDCHAR
STARTCHAR uni04B0
ENCODING 1200
SWIDTH 596 0
DWIDTH 20 0
BBX 19 23 0 0
BITMAP
600060
F000E0
7001C0
3801C0
1C0380
1E0700
0E0E00
070E00
039C00
01F800
01F000
00F000
1FFF80
1FFF80
00E000
00E000
00E000
00E000
00E000
00E000
00E000
00E000
006000
ENDCHAR
STARTCHAR uni04B1
ENCODING 1201
SWIDTH 518 0
DWIDTH 17 0
BBX 15 22 1 -6
BITMAP
C006
E00E
E00E
700C
701C
3818
3838
1830
1C70
0C70
0E60
0EE0
06C0
07C0
0380
3FF8
3FF8
0380
0380
0380
0380
0380
ENDCHAR
STARTCHAR uni04B2
ENCODING 1202
SWIDTH 658 0
DWIDTH 22 0
BBX 21 28 1 -5
BITMAP
6000E0
7000E0
7801C0
380380
1C0780
0E0700
0F0E00
071C00
03BC00
01F800
01F000
00E000
01F000
01F800
03BC00
071C00
0E0E00
1E0700
1C0780
380380
7001C0
F000F8
E00078
000018
000018
000018
000018
000018
ENDCHAR
STARTCHAR uni04B3
ENCODING 1203
SWIDTH 552 0
DWIDTH 18 0
BBX 16 20 2 -4
BITMAP
C01C
E03C
7038
3870
3CE0
1DC0
0FC0
0780
0780
0FC0
1DC0
38E0
7870
7038
E01E
C01F
0007
0007
0007
0006
ENDCHAR
STARTCHAR uni04B4
ENCODING 1204
SWIDTH 922 0
DWIDTH 30 0
BBX 30 28 0 -5
BITMAP
FFFF80C0
FFFF80C0
01C000C0
01C000C0
01C000C0
01C000C0
01C000C0
01C000C0
01C000C0
01C000C0
01C000C0
01C000C0
01C000C0
01C000C0
01C000C0
01C000C0
01C000C0
01C000C0
01C000C0
01C000C0
01C000C0
01FFFFF8
01FFFFFC
0000001C
0000001C
0000001C
0000001C
0000001C
ENDCHAR
STARTCHAR uni04B5
ENCODING 1205
SWIDTH 691 0
DWIDTH 23 0
BBX 22 20 0 -4
BITMAP
FFF860
FFF860
070060
070060
070060
070060
070060
070060
070060
070060
070060
070060
070060
070060
07FFFC
07FFFC
00000C
00000C
00000C
00000C
ENDCHAR
STARTCHAR uni04B6
ENCODING 1206
SWIDTH 714 0
DWIDTH 24 0
BBX 21 28 2 -5
BITMAP
C00180
E00180
E00180
E00180
E00180
E00180
E00180
E00180
E00180
700180
780180
3C0780
1FFF80
07FD80
000180
000180
000180
000180
000180
000180
000180
0001F8
0001F8
000038
000038
000038
000038
000038
ENDCHAR
STARTCHAR uni04B7
ENCODING 1207
SWIDTH 576 0
DWIDTH 19 0
BBX 16 20 2 -4
BITMAP
C018
E01C
E01C
E01C
E01C
E01C
E01C
E01C
787C
3FFC
1FDC
001C
001C
001C
001F
001F
0003
0003
0003
0003
ENDCHAR
STARTCHAR uni04B8
ENCODING 1208
SWIDTH 675 0
DWIDTH 22 0
BBX 17 23 2 0
BITMAP
C00180
E00180
E00180
E00180
E00180
E00180
E0C180
E0C180
E0C180
70C180
70C180
3CC780
1FFF80
07FD80
00C180
00C180
00C180
00C180
00C180
000180
000180
000180
000180
ENDCHAR
STARTCHAR uni04B9
ENCODING 1209
SWIDTH 567 0
DWIDTH 19 0
BBX 14 16 2 0
BITMAP
C00C
E01C
E01C
E01C
E31C
E31C
E31C
731C
7FFC
3FFC
031C
031C
031C
031C
001C
000C
ENDCHAR
STARTCHAR uni04BA
ENCODING 1210
SWIDTH 675 0
DWIDTH 22 0
BBX 17 23 3 0
BITMAP
C00000
E00000
E00000
E00000
E00000
E00000
E00000
E00000
E00000
EFF000
FFFC00
F01E00
E00700
E00380
E00380
E00380
E00180
E00180
E00180
E00180
E00180
E00180
C00180
ENDCHAR
STARTCHAR uni04BB
ENCODING 1211
SWIDTH 578 0
DWIDTH 19 0
BBX 14 23 3 0
BITMAP
C000
C000
C000
C000
C000
C000
C000
C7E0
DFF0
D878
F038
E018
E018
C01C
C01C
C01C
C01C
C01C
C01C
C01C
C01C
C01C
C018
ENDCHAR
STARTCHAR uni04BC
ENCODING 1212
SWIDTH 923 0
DWIDTH 30 0
BBX 27 23 1 0
BITMAP
0007F800
001FFE00
003C0F00
00700380
00E001C0
C1C000C0
C1C000E0
C18000E0
E3800060
F3800060
7FFFFFE0
3FFFFFE0
03800000
03800000
01800000
01C00000
01C00000
00E00000
00F00000
007800E0
003E07C0
000FFF80
0003FC00
ENDCHAR
STARTCHAR uni04BD
ENCODING 1213
SWIDTH 628 0
DWIDTH 21 0
BBX 19 16 1 0
BITMAP
007E00
01FF00
03C380
8701C0
C700C0
C600E0
CE0060
FFFFE0
3FFFE0
0E0000
0E0000
070000
070040
03C1E0
01FFC0
007F00
ENDCHAR
STARTCHAR uni04BE
ENCODING 1214
SWIDTH 923 0
DWIDTH 30 0
BBX 27 29 1 -6
BITMAP
0007F800
001FFE00
003C0F00
00700380
00E001C0
C1C000C0
C1C000E0
C18000E0
E3800060
F3800060
7FFFFFE0
3FFFFFE0
03800000
03800000
01800000
01C00000
01C00000
00E00000
00F00000
007800E0
003E07C0
000FFF80
0003FC00
0000C000
00018000
00018000
0001C000
0000F800
00007800
ENDCHAR
STARTCHAR uni04BF
ENCODING 1215
SWIDTH 628 0
DWIDTH 21 0
BBX 19 22 1 -6
BITMAP
007E00
01FF00
03C380
8701C0
C700C0
C600E0
CE0060
FFFFE0
3FFFE0
0E0000
0E0000
070000
070040
03C1E0
01FFC0
007F00
003000
003000
003000
003800
003F00
001E00
ENDCHAR
STARTCHAR uni04C0
ENCODING 1216
SWIDTH 257 0
DWIDTH 8 0
BBX 3 23 3 0
BITMAP
C0
E0
E0
E0
E0
E0
E0
E0
E0
E0
E0
E0
E0
E0
E0
E0
E0
E0
E0
E0
E0
E0
C0
ENDCHAR
STARTCHAR uni04C1
ENCODING 1217
SWIDTH 968 0
DWIDTH 32 0
BBX 30 30 1 0
BITMAP
00601800
00601800
00387000
001FE000
000F8000
00000000
20000010
70030030
38030070
1C0300E0
1C0300E0
0E0301C0
07030380
07030380
03830700
01C30E00
01C30E00
01FFFC00
03FFFF00
07830780
0E0301C0
1C0300E0
1C0300E0
38030070
38030070
70030038
70030038
E003001C
E003001C
C003000C
ENDCHAR
STARTCHAR uni04C2
ENCODING 1218
SWIDTH 785 0
DWIDTH 26 0
BBX 24 23 1 0
BITMAP
030080
018180
01C300
00FF00
003C00
000000
000000
601806
70180E
38181C
38183C
1C1838
0E1870
0718E0
07FFE0
0FFFF0
1C1878
381838
38181C
70180E
70180E
E01807
C01803
ENDCHAR
STARTCHAR uni04C3
ENCODING 1219
SWIDTH 669 0
DWIDTH 22 0
BBX 17 29 3 -6
BITMAP
C00700
E00F00
E00E00
E01C00
E03C00
E03800
E07000
E0E000
E0E000
E1C000
FFE000
FFFC00
E03E00
E00F00
E00700
E00380
E00380
E00380
E00380
E00380
E00380
E00380
C00380
000380
000380
000700
000F00
03FE00
01F800
ENDCHAR
STARTCHAR uni04C4
ENCODING 1220
SWIDTH 540 0
DWIDTH 18 0
BBX 13 22 3 -6
BITMAP
C030
C030
C070
C0E0
C1C0
C380
C380
FFC0
FFE0
C070
C038
C038
C018
C018
C018
C038
0038
0038
0038
00F0
01E0
0380
ENDCHAR
STARTCHAR uni04C5
ENCODING 1221
SWIDTH 758 0
DWIDTH 25 0
BBX 24 28 1 -5
BITMAP
07FFF0
07FFF8
070038
070038
070038
070038
070038
070038
070038
070038
070038
070038
060038
060038
0E0038
0E0038
0E0038
1C0038
1C0038
380038
780038
F0003F
E0003F
000006
000006
00000E
00000C
00000C
ENDCHAR
STARTCHAR uni04C6
ENCODING 1222
SWIDTH 599 0
DWIDTH 20 0
BBX 18 21 1 -5
BITMAP
0FFE00
0FFE00
0C0600
0C0600
0C0600
0C0600
0C0600
1C0600
1C0600
1C0600
1C0600
180600
380600
700600
F007C0
E00780
000180
000380
000300
000300
000200
ENDCHAR
STARTCHAR uni04C7
ENCODING 1223
SWIDTH 761 0
DWIDTH 25 0
BBX 19 29 3 -6
BITMAP
C00060
E00060
E00060
E00060
E00060
E00060
E00060
E00060
E00060
E00060
FFFFE0
FFFFE0
E00060
E00060
E00060
E00060
E00060
E00060
E00060
E00060
E00060
E00060
C00060
000060
0000E0
0000E0
0001E0
000FC0
000F00
ENDCHAR
STARTCHAR uni04C8
ENCODING 1224
SWIDTH 587 0
DWIDTH 19 0
BBX 14 22 3 -6
BITMAP
C018
C01C
C01C
C01C
C01C
C01C
C01C
FFFC
FFFC
C01C
C01C
C01C
C01C
C01C
C01C
C01C
001C
001C
0018
0078
01F0
01E0
ENDCHAR
STARTCHAR uni04C9
ENCODING 1225
SWIDTH 779 0
DWIDTH 26 0
BBX 23 28 3 -5
BITMAP
C00060
E00060
E00060
E00060
E00060
E00060
E00060
E00060
E00060
E00060
FFFFE0
FFFFE0
E00060
E00060
E00060
E00060
E00060
E00060
E00060
E00060
E00060
E0007E
C0007C
00000C
00001C
000018
000018
000038
ENDCHAR
STARTCHAR uni04CA
ENCODING 1226
SWIDTH 611 0
DWIDTH 20 0
BBX 16 21 3 -5
BITMAP
C018
C01C
C01C
C01C
C01C
C01C
C01C
FFFC
FFFC
C01C
C01C
C01C
C01C
C01C
C01F
C01F
0007
0006
000E
000C
0004
ENDCHAR
STARTCHAR uni04CB
ENCODING 1227
SWIDTH 683 0
DWIDTH 23 0
BBX 17 28 2 -5
BITMAP
C00180
E00180
E00180
E00180
E00180
E00180
E00180
E00180
E00180
700180
780180
3C0780
1FFF80
07FD80
000180
000180
000180
000180
000180
000180
000180
000F80
001F80
001C00
001C00
001C00
001C00
001C00
ENDCHAR
STARTCHAR uni04CC
ENCODING 1228
SWIDTH 552 0
DWIDTH 18 0
BBX 14 20 2 -4
BITMAP
C018
E01C
E01C
E01C
E01C
E01C
E01C
E01C
787C
3FFC
1FDC
001C
001C
001C
007C
00F8
00E0
00E0
00E0
00E0
ENDCHAR
STARTCHAR uni04CD
ENCODING 1229
SWIDTH 873 0
DWIDTH 29 0
BBX 26 28 3 -5
BITMAP
C0000C00
E0001C00
E0001C00
F0003C00
F8003C00
F8007C00
DC006C00
CC00EC00
CE00CC00
C601CC00
C7018C00
C3030C00
C3870C00
C1860C00
C1CE0C00
C0CC0C00
C07C0C00
C0780C00
C0380C00
C0300C00
C0000C00
C0000FC0
C0000F80
00000180
00000380
00000300
00000300
00000700
ENDCHAR
STARTCHAR uni04CE
ENCODING 1230
SWIDTH 684 0
DWIDTH 23 0
BBX 19 21 3 -5
BITMAP
C00300
E00700
E00700
F00F00
F01F00
D81B00
D83B00
CC3300
CE6300
C66300
C7C300
C3C300
C18300
C10300
C003E0
C003C0
0000C0
0001C0
000180
000180
000100
ENDCHAR
STARTCHAR uni04CF
ENCODING 1231
SWIDTH 241 0
DWIDTH 8 0
BBX 2 23 3 0
BITMAP
C0
C0
C0
C0
C0
C0
C0
C0
C0
C0
C0
C0
C0
C0
C0
C0
C0
C0
C0
C0
C0
C0
C0
ENDCHAR
STARTCHAR uni04D0
ENCODING 1232
SWIDTH 729 0
DWIDTH 24 0
BBX 22 30 1 0
BITMAP
060180
060180
038700
01FE00
00F800
000000
000000
003000
007800
007800
00FC00
00CC00
01CE00
018600
018700
038700
030300
070380
060180
0E01C0
0E00C0
1C00E0
1FFFE0
3FFFF0
380070
300038
700038
600018
E0001C
C0000C
ENDCHAR
STARTCHAR uni04D1
ENCODING 1233
SWIDTH 539 0
DWIDTH 18 0
BBX 13 23 2 0
BITMAP
2018
3030
1870
1FE0
0780
0000
0000
0FC0
7FF0
7870
4038
0018
0018
1FF8
7FF8
F018
E018
E038
E038
E078
70D8
3FD8
1F18
ENDCHAR
STARTCHAR uni04D2
ENCODING 1234
SWIDTH 729 0
DWIDTH 24 0
BBX 22 29 1 0
BITMAP
018600
01CE00
018600
000000
000000
000000
003000
007800
007800
00FC00
00CC00
01CE00
018600
018700
038700
030300
070380
060180
0E01C0
0E00C0
1C00E0
1FFFE0
3FFFF0
380070
300038
700038
600018
E0001C
C0000C
ENDCHAR
STARTCHAR uni04D3
ENCODING 1235
SWIDTH 539 0
DWIDTH 18 0
BBX 13 23 2 0
BITMAP
1860
1CF0
1860
0000
0000
0000
0000
0FC0
7FF0
7870
4038
0018
0018
1FF8
7FF8
F018
E018
E038
E038
E078
70D8
3FD8
1F18
ENDCHAR
STARTCHAR uni04D4
ENCODING 1236
SWIDTH 981 0
DWIDTH 32 0
BBX 31 23 0 0
BITMAP
0007FFFE
0007FFFE
000F8000
001F8000
00198000
00398000
0031C000
0071C000
00E0C000
00C0C000
01C0FFFC
0380FFFC
0380E000
07006000
07006000
0FFFF000
1FFFF000
1C007000
38003000
70003000
70003800
E0003FFE
E0001FFE
ENDCHAR
STARTCHAR uni04D5
ENCODING 1237
SWIDTH 871 0
DWIDTH 29 0
BBX 25 16 2 0
BITMAP
0FC0F800
7FF3FE00
78770700
403E0300
001C0180
00180180
1FFFFF80
7FFFFF80
F0180000
E01C0000
E03C0000
E03C0000
E07E0180
70E78780
3FC3FF00
1F80FC00
ENDCHAR
STARTCHAR uni04D6
ENCODING 1238
SWIDTH 583 0
DWIDTH 19 0
BBX 15 30 3 0
BITMAP
200C
3018
1C38
0FF0
07C0
0000
0000
FFFE
FFFE
E000
E000
E000
E000
E000
E000
E000
E000
FFFC
FFFC
E000
E000
E000
E000
E000
E000
E000
E000
E000
FFFE
FFFE
ENDCHAR
STARTCHAR uni04D7
ENCODING 1239
SWIDTH 542 0
DWIDTH 18 0
BBX 14 23 2 0
BITMAP
3018
3038
1C70
0FE0
07C0
0000
0000
0FC0
1FF0
3878
7018
E01C
E00C
C00C
FFFC
FFFC
C000
E000
E000
700C
383C
1FF8
07E0
ENDCHAR
STARTCHAR uni04D8
ENCODING 1240
SWIDTH 769 0
DWIDTH 25 0
BBX 21 23 2 0
BITMAP
03FC00
1FFF00
7C07C0
7001E0
0000E0
000070
000030
000038
000038
000038
FFFFF8
FFFFF8
E00038
E00038
E00038
600038
700070
700070
3800F0
3C01E0
1F07C0
07FF80
01FC00
ENDCHAR
STARTCHAR uni04D9
ENCODING 1241
SWIDTH 542 0
DWIDTH 18 0
BBX 14 16 2 0
BITMAP
1F80
7FE0
F0F0
8038
001C
001C
000C
FFFC
FFFC
C00C
C01C
C01C
E038
7070
3FE0
0FC0
ENDCHAR
STARTCHAR uni04DA
ENCODING 1242
SWIDTH 769 0
DWIDTH 25 0
BBX 21 29 2 0
BITMAP
038E00
038E00
038E00
000000
000000
000000
03FC00
1FFF00
7C07C0
7001E0
0000E0
000070
000030
000038
000038
000038
FFFFF8
FFFFF8
E00038
E00038
E00038
600038
700070
700070
3800F0
3C01E0
1F07C0
07FF80
01FC00
ENDCHAR
STARTCHAR uni04DB
ENCODING 1243
SWIDTH 542 0
DWIDTH 18 0
BBX 14 23 2 0
BITMAP
38C0
38E0
38C0
0000
0000
0000
0000
1F80
7FE0
F0F0
8038
001C
001C
000C
FFFC
FFFC
C00C
C01C
C01C
E038
7070
3FE0
0FC0
ENDCHAR
STARTCHAR uni04DC
ENCODING 1244
SWIDTH 968 0
DWIDTH 32 0
BBX 30 29 1 0
BITMAP
00186000
001CE000
00186000
00000000
00000000
20000010
70030030
38030070
1C0300E0
1C0300E0
0E0301C0
07030380
07030380
03830700
01C30E00
01C30E00
01FFFC00
03FFFF00
07830780
0E0301C0
1C0300E0
1C0300E0
38030070
38030070
70030038
70030038
E003001C
E003001C
C003000C
ENDCHAR
STARTCHAR uni04DD
ENCODING 1245
SWIDTH 785 0
DWIDTH 26 0
BBX 24 23 1 0
BITMAP
00C300
00E700
00C300
000000
000000
000000
000000
601806
70180E
38181C
38183C
1C1838
0E1870
0718E0
07FFE0
0FFFF0
1C1878
381838
38181C
70180E
70180E
E01807
C01803
ENDCHAR
STARTCHAR uni04DE
ENCODING 1246
SWIDTH 640 0
DWIDTH 21 0
BBX 18 29 1 0
BITMAP
071800
071C00
071800
000000
000000
000000
07F800
1FFE00
7C0F00
700380
000380
0001C0
000180
000180
000380
000700
0FFE00
0FFE00
000780
000380
0001C0
0001C0
0001C0
0001C0
0001C0
E00380
7C0F80
3FFF00
07F800
ENDCHAR
STARTCHAR uni04DF
ENCODING 1247
SWIDTH 497 0
DWIDTH 16 0
BBX 14 23 1 0
BITMAP
1860
1CF0
1860
0000
0000
0000
0000
1FE0
7FF0
F078
4018
0018
0018
0078
0FE0
0FF0
0038
001C
001C
401C
F038
7FF0
1FE0
ENDCHAR
STARTCHAR uni04E0
ENCODING 1248
SWIDTH 640 0
DWIDTH 21 0
BBX 18 23 1 0
BITMAP
7FFF80
7FFF80
000700
000F00
001E00
003C00
003800
007000
00E000
01C000
03FC00
03FF00
000F80
0003C0
0001C0
0001C0
0001C0
0001C0
0001C0
E00380
7C0F80
3FFF00
07F800
ENDCHAR
STARTCHAR uni04E1
ENCODING 1249
SWIDTH 495 0
DWIDTH 16 0
BBX 14 22 1 -6
BITMAP
FFF8
FFF8
0038
0070
00E0
01C0
0380
0700
0E00
1FE0
1FF0
0078
001C
001C
000C
000C
001C
001C
803C
E078
FFF0
3FC0
ENDCHAR
STARTCHAR uni04E2
ENCODING 1250
SWIDTH 740 0
DWIDTH 24 0
BBX 19 28 3 0
BITMAP
0FFE00
0FFE00
000000
000000
000000
C000C0
C001E0
C001E0
C003E0
C007E0
C00EE0
C00EE0
C01CE0
C038E0
C070E0
C060E0
C0E0E0
C1C0E0
C380E0
C700E0
C700E0
CE00E0
DC00E0
F800E0
F800E0
F000E0
E000E0
C000C0
ENDCHAR
STARTCHAR uni04E3
ENCODING 1251
SWIDTH 584 0
DWIDTH 19 0
BBX 14 22 3 0
BITMAP
3FF0
3FF0
0000
0000
0000
0000
C018
C03C
C03C
C07C
C0FC
C1DC
C39C
C31C
C71C
CE1C
DC1C
D81C
F01C
F01C
E01C
C018
ENDCHAR
STARTCHAR uni04E4
ENCODING 1252
SWIDTH 740 0
DWIDTH 24 0
BBX 19 29 3 0
BITMAP
071800
071C00
071800
000000
000000
000000
C000C0
C001E0
C001E0
C003E0
C007E0
C00EE0
C00EE0
C01CE0
C038E0
C070E0
C060E0
C0E0E0
C1C0E0
C380E0
C700E0
C700E0
CE00E0
DC00E0
F800E0
F800E0
F000E0
E000E0
C000C0
ENDCHAR
STARTCHAR uni04E5
ENCODING 1253
SWIDTH 584 0
DWIDTH 19 0
BBX 14 23 3 0
BITMAP
18E0
38E0
18E0
0000
0000
0000
0000
C018
C03C
C03C
C07C
C0FC
C1DC
C39C
C31C
C71C
CE1C
DC1C
D81C
F01C
F01C
E01C
C018
ENDCHAR
STARTCHAR uni04E6
ENCODING 1254
SWIDTH 767 0
DWIDTH 25 0
BBX 21 29 2 0
BITMAP
018E00
038E00
018E00
000000
000000
000000
01FC00
07FF00
1F07C0
3C01E0
3800F0
700070
700038
E00038
E00038
E00038
E00038
E00038
E00038
E00038
E00038
E00038
700030
700070
3800E0
1C01E0
0F07C0
07FF00
01FC00
ENDCHAR
STARTCHAR uni04E7
ENCODING 1255
SWIDTH 566 0
DWIDTH 19 0
BBX 15 23 2 0
BITMAP
1C60
1C70
1C60
0000
0000
0000
0000
0FC0
3FF0
7878
701C
E00C
E00E
C00E
C00E
C00E
C00E
E00E
E00C
701C
7878
3FF0
0FC0
ENDCHAR
STARTCHAR uni04E8
ENCODING 1256
SWIDTH 767 0
DWIDTH 25 0
BBX 21 23 2 0
BITMAP
01FC00
07FF00
1F07C0
3C01E0
3800F0
700070
700038
E00038
E00038
E00038
FFFFF8
FFFFF8
E00038
E00038
E00038
E00038
700070
700070
3800E0
1C01E0
0F07C0
07FF00
01FC00
ENDCHAR
STARTCHAR uni04E9
ENCODING 1257
SWIDTH 566 0
DWIDTH 19 0
BBX 15 16 2 0
BITMAP
0FC0
3FF0
7878
701C
E00C
E00E
C00E
FFFE
FFFE
C00E
E00E
E00C
701C
7878
3FF0
0FC0
ENDCHAR
STARTCHAR uni04EA
ENCODING 1258
SWIDTH 767 0
DWIDTH 25 0
BBX 21 29 2 0
BITMAP
018E00
038E00
018E00
000000
000000
000000
01FC00
07FF00
1F07C0
3C01E0
3800F0
700070
700038
E00038
E00038
E00038
FFFFF8
FFFFF8
E00038
E00038
E00038
E00038
700070
700070
3800E0
1C01E0
0F07C0
07FF00
01FC00
ENDCHAR
STARTCHAR uni04EB
ENCODING 1259
SWIDTH 566 0
DWIDTH 19 0
BBX 15 23 2 0
BITMAP
1C60
1C70
1C60
0000
0000
0000
0000
0FC0
3FF0
7878
701C
E00C
E00E
C00E
FFFE
FFFE
C00E
E00E
E00C
701C
7878
3FF0
0FC0
ENDCHAR
STARTCHAR uni04EC
ENCODING 1260
SWIDTH 673 0
DWIDTH 22 0
BBX 19 29 1 0
BITMAP
063800
0F3800
063800
000000
000000
000000
07F000
3FFC00
7C1F00
E00780
000380
0001C0
0001C0
0000E0
0000E0
0000E0
07FFE0
0FFFE0
0000E0
0000E0
0000E0
0000E0
0001C0
0001C0
000380
E00780
7C1F00
3FFC00
0FF000
ENDCHAR
STARTCHAR uni04ED
ENCODING 1261
SWIDTH 490 0
DWIDTH 16 0
BBX 13 23 1 0
BITMAP
30C0
39E0
38C0
0000
0000
0000
0000
1F80
7FE0
E0F0
8070
0038
0018
0018
1FF8
1FF8
0018
0018
0038
8070
E0F0
FFE0
1F80
ENDCHAR
STARTCHAR uni04EE
ENCODING 1262
SWIDTH 644 0
DWIDTH 21 0
BBX 20 28 1 0
BITMAP
0FFE00
0FFE00
000000
000000
000000
C00070
E00070
E000E0
7000E0
3801C0
3801C0
1C0380
0E0380
0E0700
070600
030E00
038C00
01DC00
01D800
00F800
007000
007000
00E000
00E000
01C000
01C000
038000
030000
ENDCHAR
STARTCHAR uni04EF
ENCODING 1263
SWIDTH 524 0
DWIDTH 17 0
BBX 15 28 1 -6
BITMAP
1FF8
1FF8
0000
0000
0000
0000
C006
E006
E00E
700C
701C
381C
3838
1838
1C30
0C70
0E60
0EE0
07C0
07C0
03C0
0380
0380
0700
0700
0600
0E00
0C00
ENDCHAR
STARTCHAR uni04F0
ENCODING 1264
SWIDTH 644 0
DWIDTH 21 0
BBX 20 29 1 0
BITMAP
031C00
071C00
031C00
000000
000000
000000
C00070
E00070
E000E0
7000E0
3801C0
3801C0
1C0380
0E0380
0E0700
070600
030E00
038C00
01DC00
01D800
00F800
007000
007000
00E000
00E000
01C000
01C000
038000
030000
ENDCHAR
STARTCHAR uni04F1
ENCODING 1265
SWIDTH 524 0
DWIDTH 17 0
BBX 15 29 1 -6
BITMAP
0C70
1C70
0C70
0000
0000
0000
0000
C006
E006
E00E
700C
701C
381C
3838
1838
1C30
0C70
0E60
0EE0
07C0
07C0
03C0
0380
0380
0700
0700
0600
0E00
0C00
ENDCHAR
STARTCHAR uni04F2
ENCODING 1266
SWIDTH 644 0
DWIDTH 21 0
BBX 20 31 1 0
BITMAP
007300
006700
00E600
00CC00
018800
019800
000000
000000
C00070
E00070
E000E0
7000E0
3801C0
3801C0
1C0380
0E0380
0E0700
070600
030E00
038C00
01DC00
01D800
00F800
007000
007000
00E000
00E000
01C000
01C000
038000
030000
ENDCHAR
STARTCHAR uni04F3
ENCODING 1267
SWIDTH 524 0
DWIDTH 17 0
BBX 15 31 1 -6
BITMAP
0198
0338
0330
0330
0620
0660
0460
0000
0000
C006
E006
E00E
700C
701C
381C
3838
1838
1C30
0C70
0E60
0EE0
07C0
07C0
03C0
0380
0380
0700
0700
0600
0E00
0C00
ENDCHAR
STARTCHAR uni04F4
ENCODING 1268
SWIDTH 675 0
DWIDTH 22 0
BBX 17 29 2 0
BITMAP
0E3800
0E3800
0E3800
000000
000000
000000
C00180
E00180
E00180
E00180
E00180
E00180
E00180
E00180
E00180
700180
780180
3C0780
1FFF80
07FD80
000180
000180
000180
000180
000180
000180
000180
000180
000180
ENDCHAR
STARTCHAR uni04F5
ENCODING 1269
SWIDTH 552 0
DWIDTH 18 0
BBX 14 23 2 0
BITMAP
18E0
38E0
18E0
0000
0000
0000
0000
C018
E01C
E01C
E01C
E01C
E01C
E01C
703C
7FFC
1FDC
001C
001C
001C
001C
001C
0018
ENDCHAR
STARTCHAR uni04F6
ENCODING 1270
SWIDTH 542 0
DWIDTH 18 0
BBX 15 28 3 -5
BITMAP
FFFE
FFFE
E000
E000
E000
E000
E000
E000
E000
E000
E000
E000
E000
E000
E000
E000
E000
E000
E000
E000
E000
FC00
FC00
1C00
1C00
1C00
1C00
1C00
ENDCHAR
STARTCHAR uni04F7
ENCODING 1271
SWIDTH 435 0
DWIDTH 14 0
BBX 11 20 3 -4
BITMAP
FFE0
FFE0
C000
C000
C000
C000
C000
C000
C000
C000
C000
C000
C000
C000
F800
F800
1800
1800
1800
1800
ENDCHAR
STARTCHAR uni04F8
ENCODING 1272
SWIDTH 854 0
DWIDTH 28 0
BBX 22 29 3 0
BITMAP
01C600
01CF00
01C600
000000
000000
000000
C0000C
E0000C
E0000C
E0000C
E0000C
E0000C
E0000C
E0000C
E0000C
E0000C
FFF00C
FFFC0C
E01E0C
E0070C
E0070C
E0030C
E0030C
E0070C
E0070C
E0070C
E01E0C
FFFC0C
FFF00C
ENDCHAR
STARTCHAR uni04F9
ENCODING 1273
SWIDTH 730 0
DWIDTH 24 0
BBX 18 23 3 0
BITMAP
061800
073800
061800
000000
000000
000000
000000
C000C0
C000C0
C000C0
C000C0
C000C0
C000C0
FFC0C0
FFF0C0
C038C0
C018C0
C018C0
C018C0
C038C0
C038C0
FFF0C0
FFC0C0
ENDCHAR
STARTCHAR uni04FA
ENCODING 1274
SWIDTH 578 0
DWIDTH 19 0
BBX 18 29 1 -6
BITMAP
1FFFC0
1FFFC0
1C0000
1C0000
1C0000
1C0000
1C0000
1C0000
1C0000
1C0000
1C0000
FFF000
FFF000
1C0000
1C0000
1C0000
1C0000
1C0000
1C0000
1C0000
1C0000
1F8000
1F8000
018000
038000
038000
070000
3F0000
3C0000
ENDCHAR
STARTCHAR uni04FB
ENCODING 1275
SWIDTH 455 0
DWIDTH 15 0
BBX 15 22 0 -6
BITMAP
0FFE
1FFE
1C00
1C00
1C00
1C00
1C00
FFE0
FFE0
1C00
1C00
1C00
1C00
1C00
1F80
0F80
0180
0380
0380
0700
3F00
1C00
ENDCHAR
STARTCHAR uni04FC
ENCODING 1276
SWIDTH 650 0
DWIDTH 21 0
BBX 19 29 1 -6
BITMAP
6000E0
7000E0
7801C0
380380
1C0700
0E0700
070E00
071C00
03B800
01F800
00F000
00E000
01F000
03F800
039C00
071C00
0E0E00
1E0700
1C0380
380380
7001C0
F001C0
E000E0
0000E0
0000E0
0000E0
0003C0
000F80
000F00
ENDCHAR
STARTCHAR uni04FD
ENCODING 1277
SWIDTH 535 0
DWIDTH 18 0
BBX 15 22 2 -6
BITMAP
C01C
E03C
7038
3870
1CE0
1DC0
0F80
0780
0780
0FC0
1DE0
38E0
7870
7038
E01C
C01C
000C
000E
000C
001C
0078
00F0
ENDCHAR
STARTCHAR uni04FE
ENCODING 1278
SWIDTH 650 0
DWIDTH 21 0
BBX 19 23 1 0
BITMAP
6000E0
7000E0
7801C0
380380
1C0700
0E0700
070E00
071C00
03B800
01F800
1FFF80
1FFF80
01F000
03F800
039C00
071E00
0E0E00
1E0700
1C0380
3803C0
7001C0
F000E0
E00060
ENDCHAR
STARTCHAR uni04FF
ENCODING 1279
SWIDTH 535 0
DWIDTH 18 0
BBX 14 16 2 0
BITMAP
C01C
E01C
7038
3870
1CE0
1DC0
0FC0
FFFC
FFFC
0FC0
1DE0
38E0
7870
7038
E01C
C00C
ENDCHAR
STARTCHAR uni0510
ENCODING 1296
SWIDTH 640 0
DWIDTH 21 0
BBX 18 23 2 0
BITMAP
07F800
1FFF00
3C0F80
700380
700000
600000
600000
700000
700000
3C0000
1FFC00
1FFC00
780000
700000
E00000
E00000
E00000
E00000
E00000
7001C0
7C0F80
1FFF00
07F800
ENDCHAR
STARTCHAR uni0511
ENCODING 1297
SWIDTH 497 0
DWIDTH 16 0
BBX 13 16 2 0
BITMAP
1FC0
7FF0
F078
E008
E000
E000
7000
3F80
7F80
E000
C000
C000
C008
F078
7FF0
1FC0
ENDCHAR
STARTCHAR uni0512
ENCODING 1298
SWIDTH 741 0
DWIDTH 24 0
BBX 21 29 1 -6
BITMAP
07FFF0
07FFF8
070038
070038
070038
070038
070038
070038
070038
070038
070038
070038
060038
060038
0E0038
0E0038
0E0038
1C0038
1C0038
380038
780038
F00038
E00038
000038
000030
000070
0000F0
0007E0
000780
ENDCHAR
STARTCHAR uni0513
ENCODING 1299
SWIDTH 574 0
DWIDTH 19 0
BBX 15 22 1 -6
BITMAP
0FFE
0FFE
0C06
0C06
0C06
0C06
0C06
1C06
1C06
1C06
1C06
1806
3806
7006
F006
E006
0006
000E
000E
001E
00FC
00F0
ENDCHAR
STARTCHAR uni051A
ENCODING 1306
SWIDTH 767 0
DWIDTH 25 0
BBX 21 29 2 -6
BITMAP
01FC00
07FF00
1F07C0
3C01E0
3800F0
700070
700030
E00038
E00038
E00038
E00038
E00038
E00038
E00038
E00038
E00038
700030
700070
3800F0
1C01E0
0F07C0
07FF80
01FE00
000700
000380
0001C0
0001C0
0000E0
000060
ENDCHAR
STARTCHAR uni051B
ENCODING 1307
SWIDTH 593 0
DWIDTH 20 0
BBX 15 22 2 -6
BITMAP
0F8E
3FEE
787E
701E
E00E
E00E
C00E
C00E
C00E
C00E
E00E
E00E
701E
787E
3FEE
0F8E
000E
000E
000E
000E
000E
000E
ENDCHAR
STARTCHAR uni051C
ENCODING 1308
SWIDTH 1101 0
DWIDTH 36 0
BBX 34 23 1 0
BITMAP
6000C000C0
E000E001C0
7001E001C0
7001E00180
3001F00380
3803B00300
3803380700
1803380700
1C07180600
1C061C0E00
0C0E1C0E00
0E0E0C0C00
0E0C0E1C00
061C0E1C00
071C061800
0318073800
03B8033000
03B0033000
01B003F000
01F001E000
01E001E000
00E001E000
00C000C000
ENDCHAR
STARTCHAR uni051D
ENCODING 1309
SWIDTH 851 0
DWIDTH 28 0
BBX 26 16 1 0
BITMAP
600C0180
E01E01C0
701E0180
701E0380
303F0300
38330700
38338700
18738600
1C618E00
0CE1CE00
0CE0CC00
0EC0DC00
07C0F800
07807800
07807800
03003000
ENDCHAR
STARTCHAR uni0524
ENCODING 1316
SWIDTH 795 0
DWIDTH 26 0
BBX 22 28 3 -5
BITMAP
FFFFE0
FFFFE0
E000E0
E000E0
E000E0
E000E0
E000E0
E000E0
E000E0
E000E0
E000E0
E000E0
E000E0
E000E0
E000E0
E000E0
E000E0
E000E0
E000E0
E000E0
E000E0
E000FC
C0007C
00000C
00000C
00000C
00000C
00000C
ENDCHAR
STARTCHAR uni0525
ENCODING 1317
SWIDTH 608 0
DWIDTH 20 0
BBX 16 20 3 -4
BITMAP
FFF8
FFFC
C01C
C01C
C01C
C01C
C01C
C01C
C01C
C01C
C01C
C01C
C01C
C01C
C01F
C01F
0003
0003
0003
0003
ENDCHAR
STARTCHAR uni0526
ENCODING 1318
SWIDTH 714 0
DWIDTH 24 0
BBX 21 28 3 -5
BITMAP
C00000
E00000
E00000
E00000
E00000
E00000
E00000
E00000
E00000
EFF000
FFFC00
F81E00
E00700
E00380
E00380
E00380
E00180
E00180
E00180
E00180
E00180
E001F8
C001F8
000038
000038
000038
000038
000038
ENDCHAR
STARTCHAR uni0527
ENCODING 1319
SWIDTH 588 0
DWIDTH 19 0
BBX 16 27 3 -4
BITMAP
C000
C000
C000
C000
C000
C000
C000
C7E0
DFF0
D878
F038
E018
C018
C01C
C01C
C01C
C01C
C01C
C01C
C01C
C01C
C01F
C01F
0003
0003
0003
0003
ENDCHAR
STARTCHAR uni0528
ENCODING 1320
SWIDTH 766 0
DWIDTH 25 0
BBX 24 29 -2 -6
BITMAP
060003
070003
070003
070003
070003
070003
070003
070003
070003
070003
07FFFF
07FFFF
070003
070003
070003
070003
070003
070003
070003
070003
070003
070003
070003
070000
060000
0E0000
1E0000
FC0000
F00000
ENDCHAR
STARTCHAR uni0529
ENCODING 1321
SWIDTH 587 0
DWIDTH 19 0
BBX 19 22 -2 -6
BITMAP
0600C0
0600E0
0600E0
0600E0
0600E0
0600E0
0600E0
07FFE0
07FFE0
0600E0
0600E0
0600E0
0600E0
0600E0
0600E0
0600C0
060000
060000
0E0000
1E0000
FC0000
F00000
ENDCHAR
STARTCHAR uni052E
ENCODING 1326
SWIDTH 780 0
DWIDTH 26 0
BBX 24 28 1 -5
BITMAP
07FFF0
07FFF8
070038
070038
070038
070038
070038
070038
070038
070038
070038
070038
060038
060038
0E0038
0E0038
0E0038
1C0038
1C0038
380038
780038
F0003F
E0003F
000007
000007
000007
000007
000007
ENDCHAR
STARTCHAR uni052F
ENCODING 1327
SWIDTH 599 0
DWIDTH 20 0
BBX 18 20 1 -4
BITMAP
0FFE00
0FFE00
0C0600
0C0600
0C0600
0C0600
0C0600
1C0600
1C0600
1C0600
1C0600
180600
380600
700600
F007C0
E007C0
0001C0
0001C0
0001C0
0000C0
ENDCHAR
STARTCHAR uni1E08
ENCODING 7688
SWIDTH 673 0
DWIDTH 22 0
BBX 19 37 2 -6
BITMAP
000700
000600
000E00
001C00
001800
003000
000000
000000
01FE00
07FF80
0F07E0
1C00E0
380000
700000
700000
E00000
E00000
E00000
E00000
E00000
E00000
E00000
E00000
E00000
700000
700000
380000
1C00E0
1F03E0
07FF80
01FE00
002000
007C00
000C00
000600
00FC00
00F800
ENDCHAR
STARTCHAR uni1E09
ENCODING 7689
SWIDTH 463 0
DWIDTH 15 0
BBX 13 31 2 -6
BITMAP
0070
0070
00E0
00C0
01C0
0180
0100
0000
0000
0FC0
3FF0
7878
7010
E000
E000
C000
C000
C000
C000
E000
E000
7010
7878
3FF0
0FC0
0300
03C0
0060
0060
0FE0
07C0
ENDCHAR
STARTCHAR uni1E0C
ENCODING 7692
SWIDTH 742 0
DWIDTH 24 0
BBX 20 29 3 -6
BITMAP
FFF000
FFFC00
E01F00
E00780
E003C0
E001C0
E000E0
E000E0
E000E0
E00060
E00060
E00070
E00060
E000E0
E000E0
E000E0
E000E0
E001C0
E003C0
E00780
E01F00
FFFC00
FFF000
000000
000000
000000
00E000
00E000
00E000
ENDCHAR
STARTCHAR uni1E0D
ENCODING 7693
SWIDTH 583 0
DWIDTH 19 0
BBX 15 29 2 -6
BITMAP
000C
000E
000E
000E
000E
000E
000E
0F8E
3FEE
787E
F01E
E01E
E00E
C00E
C00E
C00E
C00E
E00E
E01E
701E
787E
3FEE
0F8C
0000
0000
0000
0380
0380
0380
ENDCHAR
STARTCHAR uni1E0E
ENCODING 7694
SWIDTH 742 0
DWIDTH 24 0
BBX 20 28 3 -5
BITMAP
FFF000
FFFC00
E01F00
E00780
E003C0
E001C0
E000E0
E000E0
E000E0
E00060
E00060
E00070
E00060
E000E0
E000E0
E000E0
E000E0
E001C0
E003C0
E00780
E01F00
FFFC00
FFF000
000000
000000
000000
0FFC00
0FFC00
ENDCHAR
STARTCHAR uni1E0F
ENCODING 7695
SWIDTH 583 0
DWIDTH 19 0
BBX 15 28 2 -5
BITMAP
000C
000E
000E
000E
000E
000E
000E
0F8E
3FEE
787E
F01E
E01E
E00E
C00E
C00E
C00E
C00E
E00E
E01E
701E
787E
3FEE
0F8C
0000
0000
0000
1FF8
1FF8
ENDCHAR
STARTCHAR uni1E14
ENCODING 7700
SWIDTH 583 0
DWIDTH 19 0
BBX 15 34 3 0
BITMAP
0C00
0E00
0600
0300
0300
0000
1FF8
1FF8
0000
0000
0000
FFFE
FFFE
E000
E000
E000
E000
E000
E000
E000
E000
FFFC
FFFC
E000
E000
E000
E000
E000
E000
E000
E000
E000
FFFE
FFFE
ENDCHAR
STARTCHAR uni1E15
ENCODING 7701
SWIDTH 532 0
DWIDTH 18 0
BBX 14 27 2 0
BITMAP
1800
1C00
0E00
0600
0300
0200
0000
3FF0
3FF0
0000
0000
0FC0
3FF0
7878
7018
E01C
C00C
C00C
FFFC
FFFC
C000
C000
E000
700C
783C
3FF8
0FE0
ENDCHAR
STARTCHAR uni1E16
ENCODING 7702
SWIDTH 583 0
DWIDTH 19 0
BBX 15 34 3 0
BITMAP
0070
0060
00E0
00C0
0180
0000
1FF8
1FF8
0000
0000
0000
FFFE
FFFE
E000
E000
E000
E000
E000
E000
E000
E000
FFFC
FFFC
E000
E000
E000
E000
E000
E000
E000
E000
E000
FFFE
FFFE
ENDCHAR
STARTCHAR uni1E17
ENCODING 7703
SWIDTH 532 0
DWIDTH 18 0
BBX 14 27 2 0
BITMAP
0060
00E0
00C0
0180
0180
0100
0000
3FF0
3FF0
0000
0000
0FC0
3FF0
7878
7018
E01C
C00C
C00C
FFFC
FFFC
C000
C000
E000
700C
783C
3FF8
0FE0
ENDCHAR
STARTCHAR uni1E1C
ENCODING 7708
SWIDTH 583 0
DWIDTH 19 0
BBX 15 37 3 -6
BITMAP
1008
3018
3818
1C70
0FF0
07C0
0000
0000
FFFE
FFFE
E000
E000
E000
E000
E000
E000
E000
E000
FFFC
FFFC
E000
E000
E000
E000
E000
E000
E000
E000
E000
FFFE
FFFE
0100
03C0
0060
0020
07E0
07C0
ENDCHAR
STARTCHAR uni1E1D
ENCODING 7709
SWIDTH 532 0
DWIDTH 18 0
BBX 14 31 2 -6
BITMAP
1010
3010
3030
1830
1C60
0FE0
0780
0000
0000
0FC0
3FF0
7878
7018
E01C
C00C
C00C
FFFC
FFFC
C000
C000
E000
700C
783C
3FF8
0FE0
0300
03C0
0060
0060
0FE0
07C0
ENDCHAR
STARTCHAR uni1E20
ENCODING 7712
SWIDTH 726 0
DWIDTH 24 0
BBX 19 28 2 0
BITMAP
07FF00
03FF00
000000
000000
000000
01FE00
07FFC0
0F03E0
1C00E0
380000
700000
700000
E00000
E00000
E00000
E00000
E01FE0
E01FE0
E00060
E00060
E00060
700060
700060
380060
1C0060
0F81E0
07FFE0
01FF00
ENDCHAR
STARTCHAR uni1E21
ENCODING 7713
SWIDTH 586 0
DWIDTH 19 0
BBX 15 28 2 -6
BITMAP
1FF8
1FF8
0000
0000
0000
0000
0F8E
3FEE
787E
701E
E01E
E00E
C00E
C00E
C00E
C00E
E00E
E01E
701E
787E
3FEE
0F8E
000E
000C
401C
783C
7FF8
0FE0
ENDCHAR
STARTCHAR uni1E24
ENCODING 7716
SWIDTH 761 0
DWIDTH 25 0
BBX 19 29 3 -6
BITMAP
C00060
E00060
E00060
E00060
E00060
E00060
E00060
E00060
E00060
E00060
FFFFE0
FFFFE0
E00060
E00060
E00060
E00060
E00060
E00060
E00060
E00060
E00060
E00060
C00060
000000
000000
000000
00E000
00E000
00E000
ENDCHAR
STARTCHAR uni1E25
ENCODING 7717
SWIDTH 568 0
DWIDTH 19 0
BBX 13 29 3 -6
BITMAP
C000
C000
C000
C000
C000
C000
C000
C7C0
DFF0
F878
E038
E038
C018
C018
C018
C018
C018
C018
C018
C018
C018
C018
C018
0000
0000
0000
0700
0700
0700
ENDCHAR
STARTCHAR uni1E2A
ENCODING 7722
SWIDTH 761 0
DWIDTH 25 0
BBX 19 30 3 -7
BITMAP
C00060
E00060
E00060
E00060
E00060
E00060
E00060
E00060
E00060
E00060
FFFFE0
FFFFE0
E00060
E00060
E00060
E00060
E00060
E00060
E00060
E00060
E00060
E00060
C00060
000000
040400
040600
060C00
071C00
03F800
01F000
ENDCHAR
STARTCHAR uni1E2B
ENCODING 7723
SWIDTH 568 0
DWIDTH 19 0
BBX 13 30 3 -7
BITMAP
C000
C000
C000
C000
C000
C000
C000
C7C0
DFF0
F878
E038
E038
C018
C018
C018
C018
C018
C018
C018
C018
C018
C018
C018
0000
2020
6020
3060
38E0
1FC0
0F80
ENDCHAR
STARTCHAR uni1E2E
ENCODING 7726
SWIDTH 257 0
DWIDTH 8 0
BBX 9 34 0 0
BITMAP
0300
0700
0600
0C00
0800
0000
0000
E380
E300
0000
0000
1800
1C00
1C00
1C00
1C00
1C00
1C00
1C00
1C00
1C00
1C00
1C00
1C00
1C00
1C00
1C00
1C00
1C00
1C00
1C00
1C00
1C00
1800
ENDCHAR
STARTCHAR uni1E2F
ENCODING 7727
SWIDTH 232 0
DWIDTH 8 0
BBX 9 27 -1 0
BITMAP
0180
0380
0700
0600
0C00
0400
0000
F380
6380
0000
0000
0C00
0C00
0C00
0C00
0C00
0C00
0C00
0C00
0C00
0C00
0C00
0C00
0C00
0C00
0C00
0C00
ENDCHAR
STARTCHAR uni1E36
ENCODING 7734
SWIDTH 543 0
DWIDTH 18 0
BBX 15 29 3 -6
BITMAP
C000
E000
E000
E000
E000
E000
E000
E000
E000
E000
E000
E000
E000
E000
E000
E000
E000
E000
E000
E000
E000
FFFE
FFFE
0000
0000
0000
0300
0380
0300
ENDCHAR
STARTCHAR uni1E37
ENCODING 7735
SWIDTH 296 0
DWIDTH 10 0
BBX 7 29 3 -6
BITMAP
C0
C0
C0
C0
C0
C0
C0
C0
C0
C0
C0
C0
C0
C0
C0
C0
C0
C0
C0
E0
E0
7E
3C
00
00
00
30
38
30
ENDCHAR
STARTCHAR uni1E3A
ENCODING 7738
SWIDTH 543 0
DWIDTH 18 0
BBX 15 28 3 -5
BITMAP
C000
E000
E000
E000
E000
E000
E000
E000
E000
E000
E000
E000
E000
E000
E000
E000
E000
E000
E000
E000
E000
FFFE
FFFE
0000
0000
0000
3FF0
3FF0
ENDCHAR
STARTCHAR uni1E3B
ENCODING 7739
SWIDTH 296 0
DWIDTH 10 0
BBX 10 28 1 -5
BITMAP
3000
3000
3000
3000
3000
3000
3000
3000
3000
3000
3000
3000
3000
3000
3000
3000
3000
3000
3000
3800
3800
1F80
0F00
0000
0000
0000
FFC0
FFC0
ENDCHAR
STARTCHAR uni1E42
ENCODING 7746
SWIDTH 855 0
DWIDTH 28 0
BBX 22 29 3 -6
BITMAP
C0000C
E0001C
E0001C
F0003C
F8003C
D8007C
DC006C
CC00EC
CE00CC
C6018C
C7038C
C3030C
C3870C
C1C60C
C0CE0C
C0EC0C
C07C0C
C0780C
C0300C
C0100C
C0000C
C0000C
C0000C
000000
000000
000000
003000
003800
003000
ENDCHAR
STARTCHAR uni1E43
ENCODING 7747
SWIDTH 856 0
DWIDTH 28 0
BBX 23 22 3 -6
BITMAP
C7C1F0
DFE7F8
F8FE1C
E07C0C
E0380E
C0380E
C0380E
C0380E
C0380E
C0380E
C0380E
C0380E
C0380E
C0380E
C0380E
C0300E
000000
000000
000000
003000
003800
003000
ENDCHAR
STARTCHAR uni1E44
ENCODING 7748
SWIDTH 740 0
DWIDTH 24 0
BBX 19 29 3 0
BITMAP
00C000
00E000
00C000
000000
000000
000000
C000C0
E000E0
F000E0
F800E0
F800E0
DC00E0
CE00E0
C700E0
C700E0
C380E0
C1C0E0
C0E0E0
C0E0E0
C070E0
C038E0
C01CE0
C00EE0
C00EE0
C007E0
C003E0
C001E0
C001E0
C000C0
ENDCHAR
STARTCHAR uni1E45
ENCODING 7749
SWIDTH 568 0
DWIDTH 19 0
BBX 13 23 3 0
BITMAP
0700
0700
0700
0000
0000
0000
0000
C7C0
DFF0
F878
E038
E038
C018
C018
C018
C018
C018
C018
C018
C018
C018
C018
C018
ENDCHAR
STARTCHAR uni1E46
ENCODING 7750
SWIDTH 740 0
DWIDTH 24 0
BBX 19 29 3 -6
BITMAP
C000C0
E000E0
F000E0
F800E0
F800E0
DC00E0
CE00E0
C700E0
C700E0
C380E0
C1C0E0
C0E0E0
C0E0E0
C070E0
C038E0
C01CE0
C00EE0
C00EE0
C007E0
C003E0
C001E0
C001E0
C000C0
000000
000000
000000
00E000
00E000
00E000
ENDCHAR
STARTCHAR uni1E47
ENCODING 7751
SWIDTH 568 0
DWIDTH 19 0
BBX 13 22 3 -6
BITMAP
C7C0
DFF0
F878
E038
E038
C018
C018
C018
C018
C018
C018
C018
C018
C018
C018
C018
0000
0000
0000
0700
0700
0700
ENDCHAR
STARTCHAR uni1E48
ENCODING 7752
SWIDTH 740 0
DWIDTH 24 0
BBX 19 28 3 -5
BITMAP
C000C0
E000E0
F000E0
F800E0
F800E0
DC00E0
CE00E0
C700E0
C700E0
C380E0
C1C0E0
C0E0E0
C0E0E0
C070E0
C038E0
C01CE0
C00EE0
C00EE0
C007E0
C003E0
C001E0
C001E0
C000C0
000000
000000
000000
0FFC00
0FFC00
ENDCHAR
STARTCHAR uni1E49
ENCODING 7753
SWIDTH 568 0
DWIDTH 19 0
BBX 13 21 3 -5
BITMAP
C7C0
DFF0
F878
E038
E038
C018
C018
C018
C018
C018
C018
C018
C018
C018
C018
C018
0000
0000
0000
7FE0
3FE0
ENDCHAR
STARTCHAR uni1E4C
ENCODING 7756
SWIDTH 767 0
DWIDTH 25 0
BBX 21 34 2 0
BITMAP
000E00
000C00
001C00
001800
003000
000000
01E300
023E00
021E00
000000
000000
01FC00
07FF00
1F07C0
3C01E0
3800F0
700070
700038
E00038
E00038
E00038
E00038
E00038
E00038
E00038
E00038
E00038
700030
700070
3800E0
1C01E0
0F07C0
07FF00
01FC00
ENDCHAR
STARTCHAR uni1E4D
ENCODING 7757
SWIDTH 556 0
DWIDTH 18 0
BBX 15 27 2 0
BITMAP
0060
00E0
00C0
0180
0180
1F10
1F30
33F0
20E0
0000
0000
0FC0
3FF0
7878
701C
E01C
E00E
C00E
C00E
C00E
C00E
E00E
E01C
701C
7878
3FF0
0FC0
ENDCHAR
STARTCHAR uni1E4E
ENCODING 7758
SWIDTH 767 0
DWIDTH 25 0
BBX 21 32 2 0
BITMAP
038E00
038E00
000000
000000
01E300
023E00
021E00
000000
000000
01FC00
07FF00
1F07C0
3C01E0
3800F0
700070
700038
E00038
E00038
E00038
E00038
E00038
E00038
E00038
E00038
E00038
700030
700070
3800E0
1C01E0
0F07C0
07FF00
01FC00
ENDCHAR
STARTCHAR uni1E4F
ENCODING 7759
SWIDTH 556 0
DWIDTH 18 0
BBX 15 25 2 0
BITMAP
1C60
1CF0
0000
1E10
1F30
33F0
20E0
0000
0000
0FC0
3FF0
7878
701C
E01C
E00E
C00E
C00E
C00E
C00E
E00E
E01C
701C
7878
3FF0
0FC0
ENDCHAR
STARTCHAR uni1E50
ENCODING 7760
SWIDTH 767 0
DWIDTH 25 0
BBX 21 34 2 0
BITMAP
018000
01C000
00C000
006000
006000
000000
03FF00
03FF00
000000
000000
000000
01FC00
07FF00
1F07C0
3C01E0
3800F0
700070
700038
E00038
E00038
E00038
E00038
E00038
E00038
E00038
E00038
E00038
700030
700070
3800E0
1C01E0
0F07C0
07FF00
01FC00
ENDCHAR
STARTCHAR uni1E51
ENCODING 7761
SWIDTH 556 0
DWIDTH 18 0
BBX 15 27 2 0
BITMAP
1800
1C00
0E00
0600
0300
0200
0000
3FF0
3FF0
0000
0000
0FC0
3FF0
7878
701C
E01C
E00E
C00E
C00E
C00E
C00E
E00E
E01C
701C
7878
3FF0
0FC0
ENDCHAR
STARTCHAR uni1E52
ENCODING 7762
SWIDTH 767 0
DWIDTH 25 0
BBX 21 34 2 0
BITMAP
000E00
000C00
001C00
001800
003000
000000
03FF00
03FF00
000000
000000
000000
01FC00
07FF00
1F07C0
3C01E0
3800F0
700070
700038
E00038
E00038
E00038
E00038
E00038
E00038
E00038
E00038
E00038
700030
700070
3800E0
1C01E0
0F07C0
07FF00
01FC00
ENDCHAR
STARTCHAR uni1E53
ENCODING 7763
SWIDTH 556 0
DWIDTH 18 0
BBX 15 27 2 0
BITMAP
0060
00E0
00C0
0180
0180
0100
0000
3FF0
3FF0
0000
0000
0FC0
3FF0
7878
701C
E01C
E00E
C00E
C00E
C00E
C00E
E00E
E01C
701C
7878
3FF0
0FC0
ENDCHAR
STARTCHAR uni1E5A
ENCODING 7770
SWIDTH 669 0
DWIDTH 22 0
BBX 17 29 3 -6
BITMAP
FFF800
FFFE00
E01F00
E00700
E00380
E00380
E00380
E00380
E00380
E00700
E00F00
FFFE00
FFF800
E07800
E01C00
E01C00
E00E00
E00E00
E00700
E00700
E00380
E00380
C00180
000000
000000
000000
01C000
01C000
01C000
ENDCHAR
STARTCHAR uni1E5B
ENCODING 7771
SWIDTH 358 0
DWIDTH 12 0
BBX 10 22 2 -6
BITMAP
6380
6FC0
7E00
7800
7000
6000
6000
6000
6000
6000
6000
6000
6000
6000
6000
6000
0000
0000
0000
6000
E000
6000
ENDCHAR
STARTCHAR uni1E5E
ENCODING 7774
SWIDTH 669 0
DWIDTH 22 0
BBX 17 28 3 -5
BITMAP
FFF800
FFFE00
E01F00
E00700
E00380
E00380
E00380
E00380
E00380
E00700
E00F00
FFFE00
FFF800
E07800
E01C00
E01C00
E00E00
E00E00
E00700
E00700
E00380
E00380
C00180
000000
000000
000000
1FF800
1FF800
ENDCHAR
STARTCHAR uni1E5F
ENCODING 7775
SWIDTH 358 0
DWIDTH 12 0
BBX 13 21 -1 -5
BITMAP
0C70
0DF8
0FC0
0F00
0E00
0C00
0C00
0C00
0C00
0C00
0C00
0C00
0C00
0C00
0C00
0C00
0000
0000
0000
FFC0
FFC0
ENDCHAR
STARTCHAR uni1E60
ENCODING 7776
SWIDTH 615 0
DWIDTH 20 0
BBX 17 29 2 0
BITMAP
01C000
01C000
01C000
000000
000000
000000
07F000
1FFE00
3C1F00
700300
E00000
E00000
E00000
E00000
F00000
780000
3F8000
1FF800
07FE00
003F00
000780
000380
000380
000380
000380
C00700
F81E00
7FFC00
0FF000
ENDCHAR
STARTCHAR uni1E61
ENCODING 7777
SWIDTH 481 0
DWIDTH 16 0
BBX 12 23 2 0
BITMAP
0700
0700
0700
0000
0000
0000
0000
1F80
7FE0
7070
E010
E000
E000
7000
7F00
0FE0
00F0
0070
0030
8070
E0F0
FFE0
3F80
ENDCHAR
STARTCHAR uni1E62
ENCODING 7778
SWIDTH 615 0
DWIDTH 20 0
BBX 17 29 2 -6
BITMAP
07F000
1FFE00
3C1F00
700300
E00000
E00000
E00000
E00000
F00000
780000
3F8000
1FF800
07FE00
003F00
000780
000380
000380
000380
000380
C00700
F81E00
7FFC00
0FF000
000000
000000
000000
01C000
01C000
01C000
ENDCHAR
STARTCHAR uni1E63
ENCODING 7779
SWIDTH 481 0
DWIDTH 16 0
BBX 12 22 2 -6
BITMAP
1F80
7FE0
7070
E010
E000
E000
7000
7F00
0FE0
00F0
0070
0030
8070
E0F0
FFE0
3F80
0000
0000
0000
0600
0F00
0600
ENDCHAR
STARTCHAR uni1E64
ENCODING 7780
SWIDTH 615 0
DWIDTH 20 0
BBX 17 32 2 0
BITMAP
070000
031800
003800
003000
006000
00C000
00C000
000000
000000
07F000
1FFE00
3C1F00
700300
E00000
E00000
E00000
E00000
F00000
780000
3F8000
1FF800
07FE00
003F00
000780
000380
000380
000380
000380
C00700
F81E00
7FFC00
0FF000
ENDCHAR
STARTCHAR uni1E65
ENCODING 7781
SWIDTH 481 0
DWIDTH 16 0
BBX 12 26 2 0
BITMAP
1C00
1C60
00E0
01C0
0180
0380
0300
0200
0000
0000
1F80
7FE0
7070
E010
E000
E000
7000
7F00
0FE0
00F0
0070
0030
8070
E0F0
FFE0
3F80
ENDCHAR
STARTCHAR uni1E66
ENCODING 7782
SWIDTH 615 0
DWIDTH 20 0
BBX 17 33 2 0
BITMAP
01C000
01C000
000000
0C1800
0E3000
067000
03E000
01C000
000000
000000
07F000
1FFE00
3C1F00
700300
E00000
E00000
E00000
E00000
F00000
780000
3F8000
1FF800
07FE00
003F00
000780
000380
000380
000380
000380
C00700
F81E00
7FFC00
0FF000
ENDCHAR
STARTCHAR uni1E67
ENCODING 7783
SWIDTH 481 0
DWIDTH 16 0
BBX 12 26 2 0
BITMAP
0700
0700
2020
3060
30C0
1980
0F80
0F00
0000
0000
1F80
7FE0
7070
E010
E000
E000
7000
7F00
0FE0
00F0
0070
0030
8070
E0F0
FFE0
3F80
ENDCHAR
STARTCHAR uni1E68
ENCODING 7784
SWIDTH 615 0
DWIDTH 20 0
BBX 17 35 2 -6
BITMAP
01C000
01C000
01C000
000000
000000
000000
07F000
1FFE00
3C1F00
700300
E00000
E00000
E00000
E00000
F00000
780000
3F8000
1FF800
07FE00
003F00
000780
000380
000380
000380
000380
C00700
F81E00
7FFC00
0FF000
000000
000000
000000
01C000
01C000
01C000
ENDCHAR
STARTCHAR uni1E69
ENCODING 7785
SWIDTH 481 0
DWIDTH 16 0
BBX 12 29 2 -6
BITMAP
0700
0700
0700
0000
0000
0000
0000
1F80
7FE0
7070
E010
E000
E000
7000
7F00
0FE0
00F0
0070
0030
8070
E0F0
FFE0
3F80
0000
0000
0000
0600
0F00
0600
ENDCHAR
STARTCHAR uni1E6C
ENCODING 7788
SWIDTH 602 0
DWIDTH 20 0
BBX 20 29 0 -6
BITMAP
FFFFF0
FFFFF0
006000
006000
006000
006000
006000
006000
006000
006000
006000
006000
006000
006000
006000
006000
006000
006000
006000
006000
006000
006000
006000
000000
000000
000000
006000
00F000
006000
ENDCHAR
STARTCHAR uni1E6D
ENCODING 7789
SWIDTH 350 0
DWIDTH 12 0
BBX 12 27 0 -6
BITMAP
1C00
1C00
1C00
1C00
1C00
FFE0
FFE0
1C00
1C00
1C00
1C00
1C00
1C00
1C00
1C00
1C00
1C00
0C00
0E00
07F0
03E0
0000
0000
0000
0300
0380
0300
ENDCHAR
STARTCHAR uni1E6E
ENCODING 7790
SWIDTH 602 0
DWIDTH 20 0
BBX 20 28 0 -5
BITMAP
FFFFF0
FFFFF0
006000
006000
006000
006000
006000
006000
006000
006000
006000
006000
006000
006000
006000
006000
006000
006000
006000
006000
006000
006000
006000
000000
000000
000000
07FE00
07FE00
ENDCHAR
STARTCHAR uni1E6F
ENCODING 7791
SWIDTH 350 0
DWIDTH 12 0
BBX 12 26 0 -5
BITMAP
1C00
1C00
1C00
1C00
1C00
FFE0
FFE0
1C00
1C00
1C00
1C00
1C00
1C00
1C00
1C00
1C00
1C00
0C00
0E00
07F0
03E0
0000
0000
0000
3FF0
3FF0
ENDCHAR
STARTCHAR uni1E78
ENCODING 7800
SWIDTH 728 0
DWIDTH 24 0
BBX 18 34 3 0
BITMAP
001800
003800
003000
006000
00C000
000000
078C00
0CFC00
083800
000000
000000
C000C0
C000C0
C000C0
C000C0
C000C0
C000C0
C000C0
C000C0
C000C0
C000C0
C000C0
C000C0
C000C0
C000C0
C000C0
E001C0
E001C0
E001C0
700380
700380
3E0F00
1FFE00
07F800
ENDCHAR
STARTCHAR uni1E79
ENCODING 7801
SWIDTH 561 0
DWIDTH 19 0
BBX 14 27 2 0
BITMAP
0060
0060
00C0
01C0
0180
1F10
1F30
31F0
30E0
0000
0000
600C
E01C
E01C
E01C
E01C
E01C
E01C
E01C
E01C
E01C
E01C
601C
703C
787C
3FDC
1F8C
ENDCHAR
STARTCHAR uni1E7A
ENCODING 7802
SWIDTH 728 0
DWIDTH 24 0
BBX 18 32 3 0
BITMAP
071800
073800
000000
000000
0FFC00
0FFC00
000000
000000
000000
C000C0
C000C0
C000C0
C000C0
C000C0
C000C0
C000C0
C000C0
C000C0
C000C0
C000C0
C000C0
C000C0
C000C0
C000C0
E001C0
E001C0
E001C0
700380
700380
3E0F00
1FFE00
07F800
ENDCHAR
STARTCHAR uni1E7B
ENCODING 7803
SWIDTH 561 0
DWIDTH 19 0
BBX 14 25 2 0
BITMAP
1C60
1C70
0000
0000
3FF0
3FF0
0000
0000
0000
600C
E01C
E01C
E01C
E01C
E01C
E01C
E01C
E01C
E01C
E01C
601C
703C
787C
3FDC
1F8C
ENDCHAR
STARTCHAR Wgrave
ENCODING 7808
SWIDTH 1101 0
DWIDTH 36 0
BBX 34 31 1 0
BITMAP
000E000000
0006000000
0007000000
0003800000
0001800000
0000C00000
0000000000
0000000000
6000C000C0
E000E001C0
7001E001C0
7001E00180
3001F00380
3803B00300
3803380700
1803380700
1C07180600
1C061C0E00
0C0E1C0E00
0E0E0C0C00
0E0C0E1C00
061C0E1C00
071C061800
0318073800
03B8033000
03B0033000
01B003F000
01F001E000
01E001E000
00E001E000
00C000C000
ENDCHAR
STARTCHAR wgrave
ENCODING 7809
SWIDTH 841 0
DWIDTH 28 0
BBX 25 25 1 0
BITMAP
00E00000
00E00000
00700000
00300000
00380000
00180000
00080000
00000000
00000000
E00C0180
E01E0180
601E0380
701E0380
703F0300
38330700
38730700
18638600
1C618E00
1CE18C00
0CC1CC00
0EC0DC00
07C0F800
07807800
07807800
03007000
ENDCHAR
STARTCHAR Wacute
ENCODING 7810
SWIDTH 1101 0
DWIDTH 36 0
BBX 34 31 1 0
BITMAP
00000C0000
00001C0000
0000380000
0000300000
0000600000
0000400000
0000000000
0000000000
6000C000C0
E000E001C0
7001E001C0
7001E00180
3001F00380
3803B00300
3803380700
1803380700
1C07180600
1C061C0E00
0C0E1C0E00
0E0E0C0C00
0E0C0E1C00
061C0E1C00
071C061800
0318073800
03B8033000
03B0033000
01B003F000
01F001E000
01E001E000
00E001E000
00C000C000
ENDCHAR
STARTCHAR wacute
ENCODING 7811
SWIDTH 841 0
DWIDTH 28 0
BBX 25 25 1 0
BITMAP
00018000
00018000
00038000
00030000
00060000
00060000
000C0000
00000000
00000000
E00C0180
E01E0180
601E0380
701E0380
703F0300
38330700
38730700
18638600
1C618E00
1CE18C00
0CC1CC00
0EC0DC00
07C0F800
07807800
07807800
03007000
ENDCHAR
STARTCHAR Wdieresis
ENCODING 7812
SWIDTH 1101 0
DWIDTH 36 0
BBX 34 29 1 0
BITMAP
0007180000
00073C0000
0007180000
0000000000
0000000000
0000000000
6000C000C0
E000E001C0
7001E001C0
7001E00180
3001F00380
3803B00300
3803380700
1803380700
1C07180600
1C061C0E00
0C0E1C0E00
0E0E0C0C00
0E0C0E1C00
061C0E1C00
071C061800
0318073800
03B8033000
03B0033000
01B003F000
01F001E000
01E001E000
00E001E000
00C000C000
ENDCHAR
STARTCHAR wdieresis
ENCODING 7813
SWIDTH 841 0
DWIDTH 28 0
BBX 25 23 1 0
BITMAP
00618000
00F38000
00618000
00000000
00000000
00000000
00000000
E00C0180
E01E0180
601E0380
701E0380
703F0300
38330700
38730700
18638600
1C618E00
1CE18C00
0CC1CC00
0EC0DC00
07C0F800
07807800
07807800
03007000
ENDCHAR
STARTCHAR uni1E8E
ENCODING 7822
SWIDTH 596 0
DWIDTH 20 0
BBX 19 29 0 0
BITMAP
006000
00E000
006000
000000
000000
000000
600060
F000E0
7001C0
3801C0
1C0380
1E0700
0E0E00
070E00
039C00
01F800
01F000
00F000
00E000
00E000
00E000
00E000
00E000
00E000
00E000
00E000
00E000
00E000
006000
ENDCHAR
STARTCHAR uni1E8F
ENCODING 7823
SWIDTH 514 0
DWIDTH 17 0
BBX 15 29 1 -6
BITMAP
0380
0380
0380
0000
0000
0000
0000
C006
E00E
E00E
700C
701C
3018
3838
3830
1C70
1C70
0E60
0EE0
06C0
07C0
0380
0380
0380
0700
0700
0E00
0E00
0C00
ENDCHAR
STARTCHAR uni1E92
ENCODING 7826
SWIDTH 589 0
DWIDTH 19 0
BBX 18 29 1 -6
BITMAP
FFFF80
FFFF80
000380
000700
000F00
000E00
001C00
003800
007800
007000
00E000
01E000
01C000
038000
070000
0F0000
0E0000
1C0000
3C0000
380000
700000
FFFFC0
7FFFC0
000000
000000
000000
00C000
00E000
00C000
ENDCHAR
STARTCHAR uni1E93
ENCODING 7827
SWIDTH 463 0
DWIDTH 15 0
BBX 13 22 2 -6
BITMAP
FFF0
FFF0
0060
00E0
01C0
0380
0300
0700
0E00
1C00
1800
3800
7000
E000
FFF8
FFF0
0000
0000
0000
0600
0F00
0600
ENDCHAR
STARTCHAR uni1E97
ENCODING 7831
SWIDTH 350 0
DWIDTH 12 0
BBX 12 27 0 0
BITMAP
E380
E380
6380
0000
0000
0000
1C00
1C00
1C00
1C00
1C00
FFE0
FFE0
1C00
1C00
1C00
1C00
1C00
1C00
1C00
1C00
1C00
1C00
0C00
0E00
07F0
03E0
ENDCHAR
STARTCHAR uni1E9E
ENCODING 7838
SWIDTH 713 0
DWIDTH 24 0
BBX 18 23 3 0
BITMAP
07F800
1FFE00
3C0F00
700380
E00380
E00380
E00380
E00380
E00380
E00F00
E3FC00
E3FF00
E00780
E001C0
E001C0
E000C0
E000C0
E000C0
E001C0
E401C0
E70780
E7FF00
C1FC00
ENDCHAR
STARTCHAR uni1EA0
ENCODING 7840
SWIDTH 729 0
DWIDTH 24 0
BBX 22 29 1 -6
BITMAP
003000
007800
007800
00FC00
00CC00
01CE00
018600
018700
038700
030300
070380
060180
0E01C0
0E00C0
1C00E0
1FFFE0
3FFFF0
380070
300038
700038
600018
E0001C
C0000C
000000
000000
000000
003000
007800
003000
ENDCHAR
STARTCHAR uni1EA1
ENCODING 7841
SWIDTH 530 0
DWIDTH 17 0
BBX 13 22 2 -6
BITMAP
0FC0
7FF0
7070
4038
0038
0038
1FF8
7FF8
F038
E038
E038
E038
E078
70D8
7F98
1F18
0000
0000
0000
0300
0780
0300
ENDCHAR
STARTCHAR uni1EA2
ENCODING 7842
SWIDTH 729 0
DWIDTH 24 0
BBX 22 31 1 0
BITMAP
007C00
00FC00
000C00
000C00
001800
003000
000000
000000
003000
007800
007800
00FC00
00CC00
01CE00
018600
018700
038700
030300
070380
060180
0E01C0
0E00C0
1C00E0
1FFFE0
3FFFF0
380070
300038
700038
600018
E0001C
C0000C
ENDCHAR
STARTCHAR uni1EA3
ENCODING 7843
SWIDTH 530 0
DWIDTH 17 0
BBX 13 25 2 0
BITMAP
0780
0FC0
00C0
00C0
0180
0300
0300
0000
0000
0FC0
7FF0
7070
4038
0038
0038
1FF8
7FF8
F038
E038
E038
E038
E078
70D8
7F98
1F18
ENDCHAR
STARTCHAR uni1EA4
ENCODING 7844
SWIDTH 729 0
DWIDTH 24 0
BBX 22 34 1 0
BITMAP
000060
0000E0
0000C0
000180
003180
007B00
00FC00
00CE00
018600
010200
000000
003000
007800
007800
00FC00
00CC00
01CE00
018600
018700
038700
030300
070380
060180
0E01C0
0E00C0
1C00E0
1FFFE0
3FFFF0
380070
300038
700038
600018
E0001C
C0000C
ENDCHAR
STARTCHAR uni1EA5
ENCODING 7845
SWIDTH 530 0
DWIDTH 17 0
BBX 15 27 2 0
BITMAP
0006
000E
000C
0018
0310
07B0
0FC0
0CC0
1860
1020
0000
0FC0
7FF0
7070
4038
0038
0038
1FF8
7FF8
F038
E038
E038
E038
E078
70D8
7F98
1F18
ENDCHAR
STARTCHAR uni1EA6
ENCODING 7846
SWIDTH 729 0
DWIDTH 24 0
BBX 22 34 1 0
BITMAP
000400
000600
000700
000300
003180
007880
00FC00
00CE00
018600
010200
000000
003000
007800
007800
00FC00
00CC00
01CE00
018600
018700
038700
030300
070380
060180
0E01C0
0E00C0
1C00E0
1FFFE0
3FFFF0
380070
300038
700038
600018
E0001C
C0000C
ENDCHAR
STARTCHAR uni1EA7
ENCODING 7847
SWIDTH 530 0
DWIDTH 17 0
BBX 13 27 2 0
BITMAP
0040
00E0
0060
0030
0318
0798
0FC0
0CC0
1860
1020
0000
0FC0
7FF0
7070
4038
0038
0038
1FF8
7FF8
F038
E038
E038
E038
E078
70D8
7F98
1F18
ENDCHAR
STARTCHAR uni1EA8
ENCODING 7848
SWIDTH 729 0
DWIDTH 24 0
BBX 22 33 1 0
BITMAP
0007C0
0000C0
0000C0
0078C0
007900
00CC00
01C600
018600
010200
000000
003000
007800
007800
00FC00
00CC00
01CE00
018600
018700
038700
030300
070380
060180
0E01C0
0E00C0
1C00E0
1FFFE0
3FFFF0
380070
300038
700038
600018
E0001C
C0000C
ENDCHAR
STARTCHAR uni1EA9
ENCODING 7849
SWIDTH 530 0
DWIDTH 17 0
BBX 14 26 2 0
BITMAP
00FC
000C
000C
0318
07B0
0FC0
0CC0
1860
1020
0000
0FC0
7FF0
7070
4038
0038
0038
1FF8
7FF8
F038
E038
E038
E038
E078
70D8
7F98
1F18
ENDCHAR
STARTCHAR uni1EAA
ENCODING 7850
SWIDTH 729 0
DWIDTH 24 0
BBX 22 34 1 0
BITMAP
01E100
03F300
033F00
020E00
001000
007800
00FC00
01CE00
018200
000000
000000
003000
007800
007800
00FC00
00CC00
01CE00
018600
018700
038700
030300
070380
060180
0E01C0
0E00C0
1C00E0
1FFFE0
3FFFF0
380070
300038
700038
600018
E0001C
C0000C
ENDCHAR
STARTCHAR uni1EAB
ENCODING 7851
SWIDTH 530 0
DWIDTH 17 0
BBX 13 27 2 0
BITMAP
1E10
3F30
33F0
21E0
0300
0780
0CC0
1860
1020
0000
0000
0FC0
7FF0
7070
4038
0038
0038
1FF8
7FF8
F038
E038
E038
E038
E078
70D8
7F98
1F18
ENDCHAR
STARTCHAR uni1EAC
ENCODING 7852
SWIDTH 729 0
DWIDTH 24 0
BBX 22 37 1 -6
BITMAP
003000
007800
00FC00
00CE00
018600
030300
000000
000000
003000
007800
007800
00FC00
00CC00
01CE00
018600
018700
038700
030300
070380
060180
0E01C0
0E00C0
1C00E0
1FFFE0
3FFFF0
380070
300038
700038
600018
E0001C
C0000C
000000
000000
000000
003000
007800
003000
ENDCHAR
STARTCHAR uni1EAD
ENCODING 7853
SWIDTH 530 0
DWIDTH 17 0
BBX 13 31 2 -6
BITMAP
0300
0780
0780
0CC0
1CC0
1860
3020
0000
0000
0FC0
7FF0
7070
4038
0038
0038
1FF8
7FF8
F038
E038
E038
E038
E078
70D8
7F98
1F18
0000
0000
0000
0300
0780
0300
ENDCHAR
STARTCHAR uni1EAE
ENCODING 7854
SWIDTH 729 0
DWIDTH 24 0
BBX 22 34 1 0
BITMAP
000600
000E00
000C00
021900
033300
031300
018600
00FE00
007800
000000
000000
003000
007800
007800
00FC00
00CC00
01CE00
018600
018700
038700
030300
070380
060180
0E01C0
0E00C0
1C00E0
1FFFE0
3FFFF0
380070
300038
700038
600018
E0001C
C0000C
ENDCHAR
STARTCHAR uni1EAF
ENCODING 7855
SWIDTH 530 0
DWIDTH 17 0
BBX 13 27 2 0
BITMAP
0060
00E0
01C0
2190
3330
3130
1860
1FE0
0780
0000
0000
0FC0
7FF0
7070
4038
0038
0038
1FF8
7FF8
F038
E038
E038
E038
E078
70D8
7F98
1F18
ENDCHAR
STARTCHAR uni1EB0
ENCODING 7856
SWIDTH 729 0
DWIDTH 24 0
BBX 22 34 1 0
BITMAP
008000
01C000
00E000
026100
033300
032300
018600
00FE00
007800
000000
000000
003000
007800
007800
00FC00
00CC00
01CE00
018600
018700
038700
030300
070380
060180
0E01C0
0E00C0
1C00E0
1FFFE0
3FFFF0
380070
300038
700038
600018
E0001C
C0000C
ENDCHAR
STARTCHAR uni1EB1
ENCODING 7857
SWIDTH 530 0
DWIDTH 17 0
BBX 13 27 2 0
BITMAP
1800
1C00
0E00
2610
3330
3230
1860
1FE0
0780
0000
0000
0FC0
7FF0
7070
4038
0038
0038
1FF8
7FF8
F038
E038
E038
E038
E078
70D8
7F98
1F18
ENDCHAR
STARTCHAR uni1EB2
ENCODING 7858
SWIDTH 729 0
DWIDTH 24 0
BBX 22 33 1 0
BITMAP
00FC00
000C00
020D00
031B00
033300
018600
00FE00
007800
000000
000000
003000
007800
007800
00FC00
00CC00
01CE00
018600
018700
038700
030300
070380
060180
0E01C0
0E00C0
1C00E0
1FFFE0
3FFFF0
380070
300038
700038
600018
E0001C
C0000C
ENDCHAR
STARTCHAR uni1EB3
ENCODING 7859
SWIDTH 530 0
DWIDTH 17 0
BBX 13 26 2 0
BITMAP
0F80
00C0
20D0
31B0
3330
1860
1FE0
0780
0000
0000
0FC0
7FF0
7070
4038
0038
0038
1FF8
7FF8
F038
E038
E038
E038
E078
70D8
7F98
1F18
ENDCHAR
STARTCHAR uni1EB4
ENCODING 7860
SWIDTH 729 0
DWIDTH 24 0
BBX 22 34 1 0
BITMAP
01E100
03F300
033F00
020E00
000000
030300
018700
01FE00
007800
000000
000000
003000
007800
007800
00FC00
00CC00
01CE00
018600
018700
038700
030300
070380
060180
0E01C0
0E00C0
1C00E0
1FFFE0
3FFFF0
380070
300038
700038
600018
E0001C
C0000C
ENDCHAR
STARTCHAR uni1EB5
ENCODING 7861
SWIDTH 530 0
DWIDTH 17 0
BBX 13 27 2 0
BITMAP
1C10
3F30
33F0
21E0
0000
3030
3860
1FE0
0780
0000
0000
0FC0
7FF0
7070
4038
0038
0038
1FF8
7FF8
F038
E038
E038
E038
E078
70D8
7F98
1F18
ENDCHAR
STARTCHAR uni1EB6
ENCODING 7862
SWIDTH 729 0
DWIDTH 24 0
BBX 22 37 1 -6
BITMAP
020100
020180
030300
038700
01FE00
007C00
000000
000000
003000
007800
007800
00FC00
00CC00
01CE00
018600
018700
038700
030300
070380
060180
0E01C0
0E00C0
1C00E0
1FFFE0
3FFFF0
380070
300038
700038
600018
E0001C
C0000C
000000
000000
000000
003000
007800
003000
ENDCHAR
STARTCHAR uni1EB7
ENCODING 7863
SWIDTH 530 0
DWIDTH 17 0
BBX 13 31 2 -6
BITMAP
2010
3030
3030
3030
18E0
0FC0
0780
0000
0000
0FC0
7FF0
7070
4038
0038
0038
1FF8
7FF8
F038
E038
E038
E038
E078
70D8
7F98
1F18
0000
0000
0000
0300
0780
0300
ENDCHAR
STARTCHAR uni1EB8
ENCODING 7864
SWIDTH 583 0
DWIDTH 19 0
BBX 15 29 3 -6
BITMAP
FFFE
FFFE
E000
E000
E000
E000
E000
E000
E000
E000
FFFC
FFFC
E000
E000
E000
E000
E000
E000
E000
E000
E000
FFFE
FFFE
0000
0000
0000
0380
0380
0380
ENDCHAR
STARTCHAR uni1EB9
ENCODING 7865
SWIDTH 532 0
DWIDTH 18 0
BBX 14 22 2 -6
BITMAP
0FC0
3FF0
7878
7018
E01C
C00C
C00C
FFFC
FFFC
C000
C000
E000
700C
783C
3FF8
0FE0
0000
0000
0000
0380
0380
0380
ENDCHAR
STARTCHAR uni1EBA
ENCODING 7866
SWIDTH 583 0
DWIDTH 19 0
BBX 15 31 3 0
BITMAP
07C0
07E0
0060
00C0
0180
0180
0000
0000
FFFE
FFFE
E000
E000
E000
E000
E000
E000
E000
E000
FFFC
FFFC
E000
E000
E000
E000
E000
E000
E000
E000
E000
FFFE
FFFE
ENDCHAR
STARTCHAR uni1EBB
ENCODING 7867
SWIDTH 532 0
DWIDTH 18 0
BBX 14 25 2 0
BITMAP
07C0
0FC0
00E0
00C0
01C0
0180
0300
0000
0000
0FC0
3FF0
7878
7018
E01C
C00C
C00C
FFFC
FFFC
C000
C000
E000
700C
783C
3FF8
0FE0
ENDCHAR
STARTCHAR uni1EBC
ENCODING 7868
SWIDTH 583 0
DWIDTH 19 0
BBX 15 30 3 0
BITMAP
1E04
3F04
73CC
61FC
4070
0000
0000
FFFE
FFFE
E000
E000
E000
E000
E000
E000
E000
E000
FFFC
FFFC
E000
E000
E000
E000
E000
E000
E000
E000
E000
FFFE
FFFE
ENDCHAR
STARTCHAR uni1EBD
ENCODING 7869
SWIDTH 532 0
DWIDTH 18 0
BBX 14 24 2 0
BITMAP
1C08
3E18
3398
61F0
60E0
0000
0000
0000
0FC0
3FF0
7878
7018
E01C
C00C
C00C
FFFC
FFFC
C000
C000
E000
700C
783C
3FF8
0FE0
ENDCHAR
STARTCHAR uni1EBE
ENCODING 7870
SWIDTH 583 0
DWIDTH 19 0
BBX 15 34 3 0
BITMAP
0002
0006
000E
000C
0398
03D0
06C0
0C60
0C30
1810
0000
FFFE
FFFE
E000
E000
E000
E000
E000
E000
E000
E000
FFFC
FFFC
E000
E000
E000
E000
E000
E000
E000
E000
E000
FFFE
FFFE
ENDCHAR
STARTCHAR uni1EBF
ENCODING 7871
SWIDTH 532 0
DWIDTH 18 0
BBX 15 27 2 0
BITMAP
0006
0006
000C
0018
0398
0790
0EC0
0CE0
1860
1030
0000
0FC0
3FF0
7878
7018
E01C
C00C
C00C
FFFC
FFFC
C000
C000
E000
700C
783C
3FF8
0FE0
ENDCHAR
STARTCHAR uni1EC0
ENCODING 7872
SWIDTH 583 0
DWIDTH 19 0
BBX 15 34 3 0
BITMAP
0060
0070
0030
0018
0398
03CC
06C0
0C60
0C30
1810
0000
FFFE
FFFE
E000
E000
E000
E000
E000
E000
E000
E000
FFFC
FFFC
E000
E000
E000
E000
E000
E000
E000
E000
E000
FFFE
FFFE
ENDCHAR
STARTCHAR uni1EC1
ENCODING 7873
SWIDTH 532 0
DWIDTH 18 0
BBX 14 27 2 0
BITMAP
0060
0060
0030
0030
0398
0788
0EC0
0CE0
1860
1030
0000
0FC0
3FF0
7878
7018
E01C
C00C
C00C
FFFC
FFFC
C000
C000
E000
700C
783C
3FF8
0FE0
ENDCHAR
STARTCHAR uni1EC2
ENCODING 7874
SWIDTH 583 0
DWIDTH 19 0
BBX 15 33 3 0
BITMAP
007C
0006
0006
038C
07D8
06E0
0C60
1830
0810
0000
FFFE
FFFE
E000
E000
E000
E000
E000
E000
E000
E000
FFFC
FFFC
E000
E000
E000
E000
E000
E000
E000
E000
E000
FFFE
FFFE
ENDCHAR
STARTCHAR uni1EC3
ENCODING 7875
SWIDTH 532 0
DWIDTH 18 0
BBX 15 26 2 0
BITMAP
007C
000E
000C
038C
0798
0EC0
0CE0
1860
1030
0000
0FC0
3FF0
7878
7018
E01C
C00C
C00C
FFFC
FFFC
C000
C000
E000
700C
783C
3FF8
0FE0
ENDCHAR
STARTCHAR uni1EC4
ENCODING 7876
SWIDTH 583 0
DWIDTH 19 0
BBX 15 34 3 0
BITMAP
0E18
1F98
11F0
10E0
0100
03C0
06C0
0C60
1830
0000
0000
FFFE
FFFE
E000
E000
E000
E000
E000
E000
E000
E000
FFFC
FFFC
E000
E000
E000
E000
E000
E000
E000
E000
E000
FFFE
FFFE
ENDCHAR
STARTCHAR uni1EC5
ENCODING 7877
SWIDTH 532 0
DWIDTH 18 0
BBX 14 27 2 0
BITMAP
1E10
1F30
33F0
20E0
0380
07C0
0CC0
1860
1030
0000
0000
0FC0
3FF0
7878
7018
E01C
C00C
C00C
FFFC
FFFC
C000
C000
E000
700C
783C
3FF8
0FE0
ENDCHAR
STARTCHAR uni1EC6
ENCODING 7878
SWIDTH 583 0
DWIDTH 19 0
BBX 15 37 3 -6
BITMAP
0380
03C0
06E0
0C60
1C30
1810
0000
0000
FFFE
FFFE
E000
E000
E000
E000
E000
E000
E000
E000
FFFC
FFFC
E000
E000
E000
E000
E000
E000
E000
E000
E000
FFFE
FFFE
0000
0000
0000
0380
0380
0380
ENDCHAR
STARTCHAR uni1EC7
ENCODING 7879
SWIDTH 532 0
DWIDTH 18 0
BBX 14 31 2 -6
BITMAP
0300
0780
07C0
0CC0
0C60
1860
1830
0000
0000
0FC0
3FF0
7878
7018
E01C
C00C
C00C
FFFC
FFFC
C000
C000
E000
700C
783C
3FF8
0FE0
0000
0000
0000
0380
0380
0380
ENDCHAR
STARTCHAR uni1EC8
ENCODING 7880
SWIDTH 257 0
DWIDTH 8 0
BBX 7 31 1 0
BITMAP
7C
FC
0E
0C
18
30
00
00
30
38
38
38
38
38
38
38
38
38
38
38
38
38
38
38
38
38
38
38
38
38
30
ENDCHAR
STARTCHAR uni1EC9
ENCODING 7881
SWIDTH 232 0
DWIDTH 8 0
BBX 6 25 1 0
BITMAP
F8
FC
0C
0C
18
30
30
00
00
30
30
30
30
30
30
30
30
30
30
30
30
30
30
30
30
ENDCHAR
STARTCHAR uni1ECA
ENCODING 7882
SWIDTH 257 0
DWIDTH 8 0
BBX 3 29 3 -6
BITMAP
C0
E0
E0
E0
E0
E0
E0
E0
E0
E0
E0
E0
E0
E0
E0
E0
E0
E0
E0
E0
E0
E0
C0
00
00
00
E0
E0
E0
ENDCHAR
STARTCHAR uni1ECB
ENCODING 7883
SWIDTH 232 0
DWIDTH 8 0
BBX 4 29 2 -6
BITMAP
E0
F0
E0
00
00
00
00
60
60
60
60
60
60
60
60
60
60
60
60
60
60
60
60
00
00
00
60
E0
60
ENDCHAR
STARTCHAR uni1ECC
ENCODING 7884
SWIDTH 767 0
DWIDTH 25 0
BBX 21 29 2 -6
BITMAP
01FC00
07FF00
1F07C0
3C01E0
3800F0
700070
700038
E00038
E00038
E00038
E00038
E00038
E00038
E00038
E00038
E00038
700030
700070
3800E0
1C01E0
0F07C0
07FF00
01FC00
000000
000000
000000
007000
007000
007000
ENDCHAR
STARTCHAR uni1ECD
ENCODING 7885
SWIDTH 556 0
DWIDTH 18 0
BBX 15 22 2 -6
BITMAP
0FC0
3FF0
7878
701C
E01C
E00E
C00E
C00E
C00E
C00E
E00E
E01C
701C
7878
3FF0
0FC0
0000
0000
0000
0380
0380
0300
ENDCHAR
STARTCHAR uni1ECE
ENCODING 7886
SWIDTH 767 0
DWIDTH 25 0
BBX 21 31 2 0
BITMAP
00F800
00FC00
000C00
001800
003000
003000
000000
000000
01FC00
07FF00
1F07C0
3C01E0
3800F0
700070
700038
E00038
E00038
E00038
E00038
E00038
E00038
E00038
E00038
E00038
700030
700070
3800E0
1C01E0
0F07C0
07FF00
01FC00
ENDCHAR
STARTCHAR uni1ECF
ENCODING 7887
SWIDTH 556 0
DWIDTH 18 0
BBX 15 25 2 0
BITMAP
07C0
0FC0
00E0
00C0
0180
0100
0300
0000
0000
0FC0
3FF0
7878
701C
E01C
E00E
C00E
C00E
C00E
C00E
E00E
E01C
701C
7878
3FF0
0FC0
ENDCHAR
STARTCHAR uni1ED0
ENCODING 7888
SWIDTH 767 0
DWIDTH 25 0
BBX 21 34 2 0
BITMAP
000040
0000C0
0001C0
000180
007300
007A00
00D800
018C00
018600
030200
000000
01FC00
07FF00
1F07C0
3C01E0
3800F0
700070
700038
E00038
E00038
E00038
E00038
E00038
E00038
E00038
E00038
E00038
700030
700070
3800E0
1C01E0
0F07C0
07FF00
01FC00
ENDCHAR
STARTCHAR uni1ED1
ENCODING 7889
SWIDTH 556 0
DWIDTH 18 0
BBX 15 27 2 0
BITMAP
0006
0006
000C
0018
0398
0790
0EC0
0CE0
1860
1030
0000
0FC0
3FF0
7878
701C
E01C
E00E
C00E
C00E
C00E
C00E
E00E
E01C
701C
7878
3FF0
0FC0
ENDCHAR
STARTCHAR uni1ED2
ENCODING 7890
SWIDTH 767 0
DWIDTH 25 0
BBX 21 34 2 0
BITMAP
000C00
000E00
000600
000300
007300
007980
00D800
018C00
018600
030200
000000
01FC00
07FF00
1F07C0
3C01E0
3800F0
700070
700038
E00038
E00038
E00038
E00038
E00038
E00038
E00038
E00038
E00038
700030
700070
3800E0
1C01E0
0F07C0
07FF00
01FC00
ENDCHAR
STARTCHAR uni1ED3
ENCODING 7891
SWIDTH 556 0
DWIDTH 18 0
BBX 15 27 2 0
BITMAP
0040
0060
0070
0030
0398
0788
0EC0
0CE0
1860
1030
0000
0FC0
3FF0
7878
701C
E01C
E00E
C00E
C00E
C00E
C00E
E00E
E01C
701C
7878
3FF0
0FC0
ENDCHAR
STARTCHAR uni1ED4
ENCODING 7892
SWIDTH 767 0
DWIDTH 25 0
BBX 21 33 2 0
BITMAP
000F80
0000C0
0000C0
007180
00FB00
00DC00
018C00
030600
010200
000000
01FC00
07FF00
1F07C0
3C01E0
3800F0
700070
700038
E00038
E00038
E00038
E00038
E00038
E00038
E00038
E00038
E00038
700030
700070
3800E0
1C01E0
0F07C0
07FF00
01FC00
ENDCHAR
STARTCHAR uni1ED5
ENCODING 7893
SWIDTH 556 0
DWIDTH 18 0
BBX 15 26 2 0
BITMAP
007C
000C
000C
038C
0798
0EC0
0CE0
1860
1030
0000
0FC0
3FF0
7878
701C
E01C
E00E
C00E
C00E
C00E
C00E
E00E
E01C
701C
7878
3FF0
0FC0
ENDCHAR
STARTCHAR uni1ED6
ENCODING 7894
SWIDTH 767 0
DWIDTH 25 0
BBX 21 34 2 0
BITMAP
01C300
03F300
023E00
021C00
002000
007800
00D800
018C00
030600
000000
000000
01FC00
07FF00
1F07C0
3C01E0
3800F0
700070
700038
E00038
E00038
E00038
E00038
E00038
E00038
E00038
E00038
E00038
700030
700070
3800E0
1C01E0
0F07C0
07FF00
01FC00
ENDCHAR
STARTCHAR uni1ED7
ENCODING 7895
SWIDTH 556 0
DWIDTH 18 0
BBX 15 27 2 0
BITMAP
1E10
1F30
33F0
20E0
0380
07C0
0CC0
1860
1030
0000
0000
0FC0
3FF0
7878
701C
E01C
E00E
C00E
C00E
C00E
C00E
E00E
E01C
701C
7878
3FF0
0FC0
ENDCHAR
STARTCHAR uni1ED8
ENCODING 7896
SWIDTH 767 0
DWIDTH 25 0
BBX 21 37 2 -6
BITMAP
007000
007800
00DC00
018C00
038600
030200
000000
000000
01FC00
07FF00
1F07C0
3C01E0
3800F0
700070
700038
E00038
E00038
E00038
E00038
E00038
E00038
E00038
E00038
E00038
700030
700070
3800E0
1C01E0
0F07C0
07FF00
01FC00
000000
000000
000000
007000
007000
007000
ENDCHAR
STARTCHAR uni1ED9
ENCODING 7897
SWIDTH 556 0
DWIDTH 18 0
BBX 15 31 2 -6
BITMAP
0300
0780
07C0
0CC0
0C60
1860
1030
0000
0000
0FC0
3FF0
7878
701C
E01C
E00E
C00E
C00E
C00E
C00E
E00E
E01C
701C
7878
3FF0
0FC0
0000
0000
0000
0380
0380
0300
ENDCHAR
STARTCHAR uni1EDA
ENCODING 7898
SWIDTH 767 0
DWIDTH 25 0
BBX 21 31 2 0
BITMAP
000600
000E00
000C00
001C00
003818
003018
000018
000038
01FFF0
07FFE0
1F07C0
3C01E0
3800F0
700070
700038
E00038
E00038
E00038
E00038
E00038
E00038
E00038
E00038
E00038
700030
700070
3800E0
1C01E0
0F07C0
07FF00
01FC00
ENDCHAR
STARTCHAR uni1EDB
ENCODING 7899
SWIDTH 556 0
DWIDTH 18 0
BBX 15 25 2 0
BITMAP
0070
0070
00E0
00C0
01C4
0186
010E
000E
001C
0FF8
3FF0
7878
701C
E01C
E00E
C00E
C00E
C00E
C00E
E00E
E01C
701C
7878
3FF0
0FC0
ENDCHAR
STARTCHAR uni1EDC
ENCODING 7900
SWIDTH 767 0
DWIDTH 25 0
BBX 21 31 2 0
BITMAP
030000
038000
018000
00C000
00E018
006018
000018
000038
01FFF0
07FFE0
1F07C0
3C01E0
3800F0
700070
700038
E00038
E00038
E00038
E00038
E00038
E00038
E00038
E00038
E00038
700030
700070
3800E0
1C01E0
0F07C0
07FF00
01FC00
ENDCHAR
STARTCHAR uni1EDD
ENCODING 7901
SWIDTH 556 0
DWIDTH 18 0
BBX 15 25 2 0
BITMAP
1800
1800
1C00
0C00
0604
0606
030E
000E
001C
0FF8
3FF0
7878
701C
E01C
E00E
C00E
C00E
C00E
C00E
E00E
E01C
701C
7878
3FF0
0FC0
ENDCHAR
STARTCHAR uni1EDE
ENCODING 7902
SWIDTH 767 0
DWIDTH 25 0
BBX 21 31 2 0
BITMAP
00F800
00FC00
000C00
001800
003018
003018
000018
000038
01FFF0
07FFE0
1F07C0
3C01E0
3800F0
700070
700038
E00038
E00038
E00038
E00038
E00038
E00038
E00038
E00038
E00038
700030
700070
3800E0
1C01E0
0F07C0
07FF00
01FC00
ENDCHAR
STARTCHAR uni1EDF
ENCODING 7903
SWIDTH 556 0
DWIDTH 18 0
BBX 15 25 2 0
BITMAP
07C0
0FC0
00C0
00C0
0184
0306
030E
000E
001C
0FF8
3FF0
7878
701C
E01C
E00E
C00E
C00E
C00E
C00E
E00E
E01C
701C
7878
3FF0
0FC0
ENDCHAR
STARTCHAR uni1EE0
ENCODING 7904
SWIDTH 767 0
DWIDTH 25 0
BBX 21 30 2 0
BITMAP
03C180
07E180
067300
0C3F18
0C1E18
000018
000038
01FFF0
07FFE0
1F07C0
3C01E0
3800F0
700070
700038
E00038
E00038
E00038
E00038
E00038
E00038
E00038
E00038
E00038
700030
700070
3800E0
1C01E0
0F07C0
07FF00
01FC00
ENDCHAR
STARTCHAR uni1EE1
ENCODING 7905
SWIDTH 556 0
DWIDTH 18 0
BBX 15 23 2 0
BITMAP
1C18
3E18
3334
61F6
60EE
000E
001C
0FF8
3FF0
7878
701C
E01C
E00E
C00E
C00E
C00E
C00E
E00E
E01C
701C
7878
3FF0
0FC0
ENDCHAR
STARTCHAR uni1EE2
ENCODING 7906
SWIDTH 767 0
DWIDTH 25 0
BBX 21 33 2 -6
BITMAP
000018
000018
000018
000038
01FFF0
07FFE0
1F07C0
3C01E0
3800F0
700070
700038
E00038
E00038
E00038
E00038
E00038
E00038
E00038
E00038
E00038
700030
700070
3800E0
1C01E0
0F07C0
07FF00
01FC00
000000
000000
000000
007000
007000
007000
ENDCHAR
STARTCHAR uni1EE3
ENCODING 7907
SWIDTH 556 0
DWIDTH 18 0
BBX 15 27 2 -6
BITMAP
0004
0006
000E
000E
001C
0FF8
3FF0
7878
701C
E01C
E00E
C00E
C00E
C00E
C00E
E00E
E01C
701C
7878
3FF0
0FC0
0000
0000
0000
0300
0380
0300
ENDCHAR
STARTCHAR uni1EE4
ENCODING 7908
SWIDTH 728 0
DWIDTH 24 0
BBX 18 29 3 -6
BITMAP
C000C0
C000C0
C000C0
C000C0
C000C0
C000C0
C000C0
C000C0
C000C0
C000C0
C000C0
C000C0
C000C0
C000C0
C000C0
E001C0
E001C0
E001C0
700380
700380
3E0F00
1FFE00
07F800
000000
000000
000000
00C000
01E000
00C000
ENDCHAR
STARTCHAR uni1EE5
ENCODING 7909
SWIDTH 561 0
DWIDTH 19 0
BBX 14 22 2 -6
BITMAP
600C
E01C
E01C
E01C
E01C
E01C
E01C
E01C
E01C
E01C
E01C
601C
703C
787C
3FDC
1F8C
0000
0000
0000
0380
0380
0380
ENDCHAR
STARTCHAR uni1EE6
ENCODING 7910
SWIDTH 728 0
DWIDTH 24 0
BBX 18 31 3 0
BITMAP
01F000
03F000
003000
003000
006000
00C000
000000
000000
C000C0
C000C0
C000C0
C000C0
C000C0
C000C0
C000C0
C000C0
C000C0
C000C0
C000C0
C000C0
C000C0
C000C0
C000C0
E001C0
E001C0
E001C0
700380
700380
3E0F00
1FFE00
07F800
ENDCHAR
STARTCHAR uni1EE7
ENCODING 7911
SWIDTH 561 0
DWIDTH 19 0
BBX 14 25 2 0
BITMAP
07C0
0FC0
00E0
00C0
01C0
0180
0300
0000
0000
600C
E01C
E01C
E01C
E01C
E01C
E01C
E01C
E01C
E01C
E01C
601C
703C
787C
3FDC
1F8C
ENDCHAR
STARTCHAR uni1EE8
ENCODING 7912
SWIDTH 728 0
DWIDTH 24 0
BBX 22 31 3 0
BITMAP
000C00
001C00
003800
003000
00600C
00400C
00001C
00001C
C000F8
C000F0
C000C0
C000C0
C000C0
C000C0
C000C0
C000C0
C000C0
C000C0
C000C0
C000C0
C000C0
C000C0
C000C0
E001C0
E001C0
E001C0
700380
700380
3E0F00
1FFE00
07F800
ENDCHAR
STARTCHAR uni1EE9
ENCODING 7913
SWIDTH 561 0
DWIDTH 19 0
BBX 18 25 2 0
BITMAP
003000
007000
00E000
00C000
01C080
0181C0
0101C0
0001C0
000380
601F80
E01E00
E01C00
E01C00
E01C00
E01C00
E01C00
E01C00
E01C00
E01C00
E01C00
601C00
703C00
787C00
3FDC00
1F8C00
ENDCHAR
STARTCHAR uni1EEA
ENCODING 7914
SWIDTH 728 0
DWIDTH 24 0
BBX 22 31 3 0
BITMAP
0C0000
0E0000
070000
038000
01800C
00C00C
00001C
00001C
C000F8
C000F0
C000C0
C000C0
C000C0
C000C0
C000C0
C000C0
C000C0
C000C0
C000C0
C000C0
C000C0
C000C0
C000C0
E001C0
E001C0
E001C0
700380
700380
3E0F00
1FFE00
07F800
ENDCHAR
STARTCHAR uni1EEB
ENCODING 7915
SWIDTH 561 0
DWIDTH 19 0
BBX 18 25 2 0
BITMAP
180000
1C0000
0C0000
0E0000
060080
0701C0
0301C0
0001C0
000380
601F80
E01E00
E01C00
E01C00
E01C00
E01C00
E01C00
E01C00
E01C00
E01C00
E01C00
601C00
703C00
787C00
3FDC00
1F8C00
ENDCHAR
STARTCHAR uni1EEC
ENCODING 7916
SWIDTH 728 0
DWIDTH 24 0
BBX 22 31 3 0
BITMAP
01F000
03F000
003000
003000
00600C
00C00C
00001C
00001C
C000F8
C000F0
C000C0
C000C0
C000C0
C000C0
C000C0
C000C0
C000C0
C000C0
C000C0
C000C0
C000C0
C000C0
C000C0
E001C0
E001C0
E001C0
700380
700380
3E0F00
1FFE00
07F800
ENDCHAR
STARTCHAR uni1EED
ENCODING 7917
SWIDTH 561 0
DWIDTH 19 0
BBX 18 25 2 0
BITMAP
07C000
0FC000
00E000
00C000
01C080
0181C0
0301C0
0001C0
000380
601F80
E01E00
E01C00
E01C00
E01C00
E01C00
E01C00
E01C00
E01C00
E01C00
E01C00
601C00
703C00
787C00
3FDC00
1F8C00
ENDCHAR
STARTCHAR uni1EEE
ENCODING 7918
SWIDTH 728 0
DWIDTH 24 0
BBX 22 30 3 0
BITMAP
070200
0F8600
19C600
107C0C
10380C
00001C
00001C
C000F8
C000F0
C000C0
C000C0
C000C0
C000C0
C000C0
C000C0
C000C0
C000C0
C000C0
C000C0
C000C0
C000C0
C000C0
E001C0
E001C0
E001C0
700380
700380
3E0F00
1FFE00
07F800
ENDCHAR
STARTCHAR uni1EEF
ENCODING 7919
SWIDTH 561 0
DWIDTH 19 0
BBX 18 23 2 0
BITMAP
1C1800
3E1800
333080
61F1C0
60E1C0
0001C0
000380
601F80
E01E00
E01C00
E01C00
E01C00
E01C00
E01C00
E01C00
E01C00
E01C00
E01C00
601C00
703C00
787C00
3FDC00
1F8C00
ENDCHAR
STARTCHAR uni1EF0
ENCODING 7920
SWIDTH 728 0
DWIDTH 24 0
BBX 22 33 3 -6
BITMAP
00000C
00000C
00001C
00001C
C000F8
C000F0
C000C0
C000C0
C000C0
C000C0
C000C0
C000C0
C000C0
C000C0
C000C0
C000C0
C000C0
C000C0
C000C0
E001C0
E001C0
E001C0
700380
700380
3E0F00
1FFE00
07F800
000000
000000
000000
00C000
01E000
00C000
ENDCHAR
STARTCHAR uni1EF1
ENCODING 7921
SWIDTH 561 0
DWIDTH 19 0
BBX 18 27 2 -6
BITMAP
000080
0001C0
0001C0
0001C0
000380
601F80
E01E00
E01C00
E01C00
E01C00
E01C00
E01C00
E01C00
E01C00
E01C00
E01C00
601C00
703C00
787C00
3FDC00
1F8C00
000000
000000
000000
038000
038000
038000
ENDCHAR
STARTCHAR Ygrave
ENCODING 7922
SWIDTH 596 0
DWIDTH 20 0
BBX 19 31 0 0
BITMAP
060000
070000
038000
018000
00C000
004000
000000
000000
600060
F000E0
7001C0
3801C0
1C0380
1E0700
0E0E00
070E00
039C00
01F800
01F000
00F000
00E000
00E000
00E000
00E000
00E000
00E000
00E000
00E000
00E000
00E000
006000
ENDCHAR
STARTCHAR ygrave
ENCODING 7923
SWIDTH 514 0
DWIDTH 17 0
BBX 15 31 1 -6
BITMAP
1800
1C00
0C00
0E00
0600
0300
0300
0000
0000
C006
E00E
E00E
700C
701C
3018
3838
3830
1C70
1C70
0E60
0EE0
06C0
07C0
0380
0380
0380
0700
0700
0E00
0E00
0C00
ENDCHAR
STARTCHAR uni1EF4
ENCODING 7924
SWIDTH 596 0
DWIDTH 20 0
BBX 19 29 0 -6
BITMAP
600060
F000E0
7001C0
3801C0
1C0380
1E0700
0E0E00
070E00
039C00
01F800
01F000
00F000
00E000
00E000
00E000
00E000
00E000
00E000
00E000
00E000
00E000
00E000
006000
000000
000000
000000
006000
00E000
006000
ENDCHAR
STARTCHAR uni1EF5
ENCODING 7925
SWIDTH 514 0
DWIDTH 17 0
BBX 15 22 1 -6
BITMAP
C006
E00E
E00E
700C
701C
3018
3838
3830
1C70
1C70
0E60
0EE0
06C0
07C0
0380
0380
0380
0700
0700
0E18
0E3C
0C18
ENDCHAR
STARTCHAR uni1EF6
ENCODING 7926
SWIDTH 596 0
DWIDTH 20 0
BBX 19 31 0 0
BITMAP
01F000
01F800
001800
001800
006000
006000
000000
000000
600060
F000E0
7001C0
3801C0
1C0380
1E0700
0E0E00
070E00
039C00
01F800
01F000
00F000
00E000
00E000
00E000
00E000
00E000
00E000
00E000
00E000
00E000
00E000
006000
ENDCHAR
STARTCHAR uni1EF7
ENCODING 7927
SWIDTH 514 0
DWIDTH 17 0
BBX 15 31 1 -6
BITMAP
07C0
07E0
0060
00E0
00C0
0180
0100
0000
0000
C006
E00E
E00E
700C
701C
3018
3838
3830
1C70
1C70
0E60
0EE0
06C0
07C0
0380
0380
0380
0700
0700
0E00
0E00
0C00
ENDCHAR
STARTCHAR uni1EF8
ENCODING 7928
SWIDTH 596 0
DWIDTH 20 0
BBX 19 30 0 0
BITMAP
078180
0FC180
1CF300
187F00
181E00
000000
000000
600060
F000E0
7001C0
3801C0
1C0380
1E0700
0E0E00
070E00
039C00
01F800
01F000
00F000
00E000
00E000
00E000
00E000
00E000
00E000
00E000
00E000
00E000
00E000
006000
ENDCHAR
STARTCHAR uni1EF9
ENCODING 7929
SWIDTH 514 0
DWIDTH 17 0
BBX 15 30 1 -6
BITMAP
1E08
1F08
3398
21F0
20F0
0000
0000
0000
C006
E00E
E00E
700C
701C
3018
3838
3830
1C70
1C70
0E60
0EE0
06C0
07C0
0380
0380
0380
0700
0700
0E00
0E00
0C00
ENDCHAR
STARTCHAR uni2007
ENCODING 8199
SWIDTH 600 0
DWIDTH 20 0
BBX 1 1 0 0
BITMAP
00
ENDCHAR
STARTCHAR uni2008
ENCODING 8200
SWIDTH 228 0
DWIDTH 8 0
BBX 1 1 0 0
BITMAP
00
ENDCHAR
STARTCHAR uni2009
ENCODING 8201
SWIDTH 200 0
DWIDTH 7 0
BBX 1 1 0 0
BITMAP
00
ENDCHAR
STARTCHAR uni200A
ENCODING 8202
SWIDTH 100 0
DWIDTH 3 0
BBX 1 1 0 0
BITMAP
00
ENDCHAR
STARTCHAR uni200B
ENCODING 8203
SWIDTH 0 0
DWIDTH 0 0
BBX 1 1 0 0
BITMAP
00
ENDCHAR
STARTCHAR uni2010
ENCODING 8208
SWIDTH 424 0
DWIDTH 14 0
BBX 10 2 2 8
BITMAP
FFC0
FFC0
ENDCHAR
STARTCHAR figuredash
ENCODING 8210
SWIDTH 600 0
DWIDTH 20 0
BBX 16 2 2 8
BITMAP
FFFF
FFFE
ENDCHAR
STARTCHAR endash
ENCODING 8211
SWIDTH 500 0
DWIDTH 17 0
BBX 17 2 0 8
BITMAP
FFFF80
FFFF80
ENDCHAR
STARTCHAR emdash
ENCODING 8212
SWIDTH 1000 0
DWIDTH 33 0
BBX 33 2 0 8
BITMAP
FFFFFFFF80
FFFFFFFF80
ENDCHAR
STARTCHAR uni2015
ENCODING 8213
SWIDTH 1000 0
DWIDTH 33 0
BBX 33 2 0 8
BITMAP
FFFFFFFF80
FFFFFFFF80
ENDCHAR
STARTCHAR quoteleft
ENCODING 8216
SWIDTH 228 0
DWIDTH 8 0
BBX 4 8 2 16
BITMAP
20
60
40
C0
E0
F0
F0
60
ENDCHAR
STARTCHAR quoteright
ENCODING 8217
SWIDTH 228 0
DWIDTH 8 0
BBX 4 7 2 16
BITMAP
E0
F0
F0
60
60
60
C0
ENDCHAR
STARTCHAR quotesinglbase
ENCODING 8218
SWIDTH 228 0
DWIDTH 8 0
BBX 4 7 2 -4
BITMAP
E0
F0
F0
60
60
60
C0
ENDCHAR
STARTCHAR quotedblleft
ENCODING 8220
SWIDTH 394 0
DWIDTH 13 0
BBX 9 8 2 16
BITMAP
2100
6100
4300
C200
E300
F780
F380
6380
ENDCHAR
STARTCHAR quotedblright
ENCODING 8221
SWIDTH 394 0
DWIDTH 13 0
BBX 9 7 2 16
BITMAP
E380
F780
F380
6180
6180
6300
C300
ENDCHAR
STARTCHAR quotedblbase
ENCODING 8222
SWIDTH 394 0
DWIDTH 13 0
BBX 9 7 2 -4
BITMAP
E300
F780
F380
6180
6180
6300
C300
ENDCHAR
STARTCHAR dagger
ENCODING 8224
SWIDTH 324 0
DWIDTH 11 0
BBX 10 18 0 5
BITMAP
0C00
0C00
0C00
0C00
FFC0
7FC0
0C00
0C00
0C00
0C00
0C00
0C00
0C00
0C00
0C00
0C00
0C00
0C00
ENDCHAR
STARTCHAR daggerdbl
ENCODING 8225
SWIDTH 324 0
DWIDTH 11 0
BBX 10 18 0 5
BITMAP
0C00
0C00
0C00
0C00
FFC0
7FC0
0C00
0C00
0C00
0C00
0C00
0C00
7FC0
FFC0
0C00
0C00
0C00
0C00
ENDCHAR
STARTCHAR bullet
ENCODING 8226
SWIDTH 524 0
DWIDTH 17 0
BBX 12 11 3 3
BITMAP
1F00
3FC0
7FE0
FFE0
FFF0
FFF0
FFF0
FFE0
7FE0
3FC0
1F00
ENDCHAR
STARTCHAR ellipsis
ENCODING 8230
SWIDTH 686 0
DWIDTH 23 0
BBX 19 4 2 0
BITMAP
60E0C0
F0E1E0
F0E1E0
60E0C0
ENDCHAR
STARTCHAR perthousand
ENCODING 8240
SWIDTH 1327 0
DWIDTH 44 0
BBX 40 25 2 -1
BITMAP
0000180000
1F00380000
3F80300000
71C0700000
E0E0600000
C0E0E00000
C061C00000
C061800000
C063800000
C063000000
C0E71F00F8
E0C67F81FC
71CE71C38E
3F9CE0C706
1F18C0E607
0038C0E603
0030C06603
0070C06603
0060C0E603
00E0C0E607
01C0E0C706
018071C38E
03807F83FC
03001F00F8
0200000000
ENDCHAR
STARTCHAR minute
ENCODING 8242
SWIDTH 221 0
DWIDTH 7 0
BBX 3 9 2 14
BITMAP
E0
E0
E0
E0
E0
60
60
60
60
ENDCHAR
STARTCHAR second
ENCODING 8243
SWIDTH 392 0
DWIDTH 13 0
BBX 9 9 2 14
BITMAP
E300
E380
E380
E380
E380
6300
6300
6300
6300
ENDCHAR
STARTCHAR guilsinglleft
ENCODING 8249
SWIDTH 260 0
DWIDTH 9 0
BBX 5 12 2 3
BITMAP
10
38
30
70
60
E0
E0
E0
70
30
38
18
ENDCHAR
STARTCHAR guilsinglright
ENCODING 8250
SWIDTH 260 0
DWIDTH 9 0
BBX 5 12 2 3
BITMAP
80
C0
E0
60
70
38
38
70
70
E0
C0
C0
ENDCHAR
STARTCHAR fraction
ENCODING 8260
SWIDTH 173 0
DWIDTH 6 0
BBX 15 23 -5 0
BITMAP
0006
0006
000E
000C
0018
0038
0030
0060
00E0
00C0
01C0
0180
0300
0700
0600
0E00
0C00
1800
3800
3000
7000
6000
C000
ENDCHAR
STARTCHAR uni2052
ENCODING 8274
SWIDTH 600 0
DWIDTH 20 0
BBX 12 27 4 -2
BITMAP
0020
0070
0060
E060
E0E0
E0C0
E1C0
0180
0180
0380
0300
0300
0700
0600
0E00
0C00
0C00
1C00
1800
3800
3070
3070
7070
6070
6000
E000
C000
ENDCHAR
STARTCHAR uni2070
ENCODING 8304
SWIDTH 380 0
DWIDTH 13 0
BBX 10 14 1 9
BITMAP
1F00
3F80
71C0
60C0
E0C0
C0C0
C0C0
C0C0
C0C0
E0C0
60C0
7180
3F80
1F00
ENDCHAR
STARTCHAR uni2074
ENCODING 8308
SWIDTH 380 0
DWIDTH 13 0
BBX 11 14 1 9
BITMAP
0380
0380
0780
0D80
0D80
1980
3180
3180
6180
FFE0
FFE0
0180
0180
0180
ENDCHAR
STARTCHAR uni2075
ENCODING 8309
SWIDTH 380 0
DWIDTH 13 0
BBX 9 14 2 9
BITMAP
FF80
FF80
C000
C000
C000
DE00
FF00
E380
0180
0180
0180
C380
FF00
3E00
ENDCHAR
STARTCHAR uni2076
ENCODING 8310
SWIDTH 380 0
DWIDTH 13 0
BBX 10 14 1 9
BITMAP
0F80
3FC0
70C0
6000
6000
EF00
DFC0
F1C0
E0C0
E0C0
60C0
71C0
3F80
1F00
ENDCHAR
STARTCHAR uni2077
ENCODING 8311
SWIDTH 380 0
DWIDTH 13 0
BBX 10 14 1 9
BITMAP
FFC0
FFC0
01C0
0180
0380
0300
0700
0600
0E00
0C00
1C00
1800
3800
3000
ENDCHAR
STARTCHAR uni2078
ENCODING 8312
SWIDTH 380 0
DWIDTH 13 0
BBX 10 14 1 9
BITMAP
3F00
7F80
61C0
E0C0
E0C0
71C0
3F00
7F80
E0C0
C0C0
C0C0
E1C0
7FC0
3F00
ENDCHAR
ENDFONT
